<?xml version="1.0" encoding="UTF-8" standalone="no"?>
<!-- Created with Inkscape (http://www.inkscape.org/) -->

<svg
   width="600mm"
   height="400mm"
   viewBox="0 0 600 400"
   version="1.1"
   id="svg5"
   inkscape:version="1.1.1 (3bf5ae0d25, 2021-09-20)"
   sodipodi:docname="superposition decoupe new ventil.svg"
   xmlns:inkscape="http://www.inkscape.org/namespaces/inkscape"
   xmlns:sodipodi="http://sodipodi.sourceforge.net/DTD/sodipodi-0.dtd"
   xmlns="http://www.w3.org/2000/svg"
   xmlns:svg="http://www.w3.org/2000/svg">
  <sodipodi:namedview
     id="namedview7"
     pagecolor="#ffffff"
     bordercolor="#666666"
     borderopacity="1.0"
     inkscape:pageshadow="2"
     inkscape:pageopacity="0.0"
     inkscape:pagecheckerboard="0"
     inkscape:document-units="mm"
     showgrid="false"
     width="600mm"
     objecttolerance="1"
     inkscape:zoom="0.13102506"
     inkscape:cx="1705.7805"
     inkscape:cy="988.36054"
     inkscape:window-width="1920"
     inkscape:window-height="1017"
     inkscape:window-x="-8"
     inkscape:window-y="-8"
     inkscape:window-maximized="1"
     inkscape:current-layer="layer1" />
  <defs
     id="defs2" />
  <g
     inkscape:label="Calque 1"
     inkscape:groupmode="layer"
     id="layer1">
    <g
       id="Sketch"
       transform="matrix(-1,0,0,1,176.98536,117.39164)">
      <path
         id="Sketch_w0000"
         d="m -149.9,-99.6 h 8 c 0.055,0 0.1,0.045 0.1,0.1 v 2.9 h 5.8 v -2.9 c 0,-0.055 0.045,-0.1 0.1,-0.1 h 6 c 0.055,0 0.1,0.045 0.1,0.1 v 2.9 h 5.8 v -2.9 c 0,-0.055 0.045,-0.1 0.1,-0.1 h 6 c 0.055,0 0.1,0.045 0.1,0.1 v 2.9 h 5.8 v -2.9 c 0,-0.055 0.045,-0.1 0.1,-0.1 h 6 c 0.055,0 0.1,0.045 0.1,0.1 v 2.9 h 5.8 v -2.9 c 0,-0.055 0.045,-0.1 0.1,-0.1 h 6 c 0.055,0 0.1,0.045 0.1,0.1 v 2.9 h 5.8 v -2.9 c 0,-0.055 0.045,-0.1 0.1,-0.1 h 6 c 0.055,0 0.1,0.045 0.1,0.1 v 2.9 h 5.8 v -2.9 c 0,-0.055 0.045,-0.1 0.1,-0.1 h 6 c 0.055,0 0.1,0.045 0.1,0.1 v 2.9 h 5.8 v -2.9 c 0,-0.055 0.045,-0.1 0.1,-0.1 h 6 c 0.055,0 0.1,0.045 0.1,0.1 v 2.9 h 5.8 v -2.9 c 0,-0.055 0.045,-0.1 0.1,-0.1 h 6 c 0.055,0 0.1,0.045 0.1,0.1 v 2.9 h 5.8 v -2.9 c 0,-0.055 0.045,-0.1 0.1,-0.1 h 6 c 0.055,0 0.1,0.045 0.1,0.1 v 2.9 h 5.8 v -2.9 c 0,-0.055 0.045,-0.1 0.1,-0.1 h 6 c 0.055,0 0.1,0.045 0.1,0.1 v 2.9 h 5.8 v -2.9 c 0,-0.055 0.045,-0.1 0.1,-0.1 h 6 c 0.055,0 0.1,0.045 0.1,0.1 v 2.9 H -4 v -2.9 c 0,-0.055 0.045,-0.1 0.1,-0.1 h 6 c 0.055,0 0.1,0.045 0.1,0.1 v 2.9 H 8 v -2.9 c 0,-0.055 0.045,-0.1 0.1,-0.1 h 6 c 0.055,0 0.1,0.045 0.1,0.1 v 2.9 H 20 v -2.9 c 0,-0.055 0.045,-0.1 0.1,-0.1 h 6 c 0.055,0 0.1,0.045 0.1,0.1 v 2.9 H 32 v -2.9 c 0,-0.055 0.045,-0.1 0.1,-0.1 h 6 c 0.055,0 0.1,0.045 0.1,0.1 v 2.9 H 44 v -2.9 c 0,-0.055 0.045,-0.1 0.1,-0.1 h 6 c 0.055,0 0.1,0.045 0.1,0.1 v 2.9 H 56 v -2.9 c 0,-0.055 0.045,-0.1 0.1,-0.1 h 6 c 0.055,0 0.1,0.045 0.1,0.1 v 2.9 H 68 v -2.9 c 0,-0.055 0.045,-0.1 0.1,-0.1 h 6 c 0.055,0 0.1,0.045 0.1,0.1 v 2.9 H 80 v -2.9 c 0,-0.055 0.045,-0.1 0.1,-0.1 h 6 c 0.055,0 0.1,0.045 0.1,0.1 v 2.9 H 92 v -2.9 c 0,-0.055 0.045,-0.1 0.1,-0.1 h 6 c 0.055,0 0.1,0.045 0.1,0.1 v 2.9 h 5.8 v -2.9 c 0,-0.055 0.045,-0.1 0.1,-0.1 h 6 c 0.055,0 0.1,0.045 0.1,0.1 v 2.9 h 5.8 v -2.9 c 0,-0.055 0.045,-0.1 0.1,-0.1 h 6 c 0.055,0 0.1,0.045 0.1,0.1 v 2.9 h 5.8 v -2.9 c 0,-0.055 0.045,-0.1 0.1,-0.1 h 6 c 0.055,0 0.1,0.045 0.1,0.1 v 2.9 h 5.8 v -2.9 c 0,-0.055 0.045,-0.1 0.1,-0.1 h 6 c 0.055,0 0.1,0.045 0.1,0.1 v 2.9 h 5.8 v -2.9 c 0,-0.055 0.045,-0.1 0.1,-0.1 h 8 3 c 0.055,0 0.1,0.045 0.1,0.1 v 3 7 c 0,0.055 -0.045,0.1 -0.1,0.1 h -2.9 v 5.8 h 2.9 c 0.055,0 0.1,0.045 0.1,0.1 v 6 c 0,0.055 -0.045,0.1 -0.1,0.1 h -2.9 v 5.8 h 2.9 c 0.055,0 0.1,0.045 0.1,0.1 v 6 c 0,0.055 -0.045,0.1 -0.1,0.1 h -2.9 v 5.8 h 2.9 c 0.055,0 0.1,0.045 0.1,0.1 v 6 c 0,0.055 -0.045,0.1 -0.1,0.1 h -2.9 v 5.8 h 2.9 c 0.055,0 0.1,0.045 0.1,0.1 v 6 c 0,0.055 -0.045,0.1 -0.1,0.1 h -2.9 v 5.8 h 2.9 c 0.055,0 0.1,0.045 0.1,0.1 v 6 c 0,0.055 -0.045,0.1 -0.1,0.1 h -2.9 v 5.8 h 2.9 c 0.055,0 0.1,0.045 0.1,0.1 v 6 c 0,0.055 -0.045,0.1 -0.1,0.1 h -2.9 v 5.8 h 2.9 c 0.055,0 0.1,0.045 0.1,0.1 v 6 c 0,0.055 -0.045,0.1 -0.1,0.1 h -2.9 v 5.8 h 2.9 c 0.055,0 0.1,0.045 0.1,0.1 v 6 c 0,0.055 -0.045,0.1 -0.1,0.1 h -2.9 v 5.8 h 2.9 c 0.055,0 0.1,0.045 0.1,0.1 v 6 c 0,0.055 -0.045,0.1 -0.1,0.1 h -2.9 v 5.8 h 2.9 c 0.055,0 0.1,0.045 0.1,0.1 v 6 c 0,0.055 -0.045,0.1 -0.1,0.1 h -2.9 v 5.8 h 2.9 c 0.055,0 0.1,0.045 0.1,0.1 v 6 c 0,0.055 -0.045,0.1 -0.1,0.1 h -2.9 v 5.8 h 2.9 c 0.055,0 0.1,0.045 0.1,0.1 v 6 c 0,0.055 -0.045,0.1 -0.1,0.1 h -2.9 v 5.8 h 2.9 c 0.055,0 0.1,0.045 0.1,0.1 v 6 c 0,0.055 -0.045,0.1 -0.1,0.1 h -2.9 v 5.8 h 2.9 c 0.055,0 0.1,0.045 0.1,0.1 v 6 c 0,0.055 -0.045,0.1 -0.1,0.1 h -2.9 v 5.8 h 2.9 c 0.055,0 0.1,0.045 0.1,0.1 v 6 c 0,0.055 -0.045,0.1 -0.1,0.1 h -2.9 v 5.8 h 2.9 c 0.055,0 0.1,0.045 0.1,0.1 v 7 3 c 0,0.055 -0.045,0.1 -0.1,0.1 h -3 -8 c -0.055,0 -0.1,-0.045 -0.1,-0.1 v -2.9 h -5.8 v 2.9 c 0,0.055 -0.045,0.1 -0.1,0.1 h -6 c -0.055,0 -0.1,-0.045 -0.1,-0.1 v -2.9 h -5.8 v 2.9 c 0,0.055 -0.045,0.1 -0.1,0.1 h -6 c -0.055,0 -0.1,-0.045 -0.1,-0.1 v -2.9 h -5.8 v 2.9 c 0,0.055 -0.045,0.1 -0.1,0.1 h -6 c -0.055,0 -0.1,-0.045 -0.1,-0.1 v -2.9 h -5.8 v 2.9 c 0,0.055 -0.045,0.1 -0.1,0.1 h -6 c -0.055,0 -0.1,-0.045 -0.1,-0.1 v -2.9 h -5.8 v 2.9 c 0,0.055 -0.045,0.1 -0.1,0.1 h -6 c -0.055,0 -0.1,-0.045 -0.1,-0.1 v -2.9 h -5.8 v 2.9 c 0,0.055 -0.045,0.1 -0.1,0.1 h -6 c -0.055,0 -0.1,-0.045 -0.1,-0.1 v -2.9 h -5.8 v 2.9 c 0,0.055 -0.045,0.1 -0.1,0.1 h -6 c -0.055,0 -0.1,-0.045 -0.1,-0.1 v -2.9 h -5.8 v 2.9 c 0,0.055 -0.045,0.1 -0.1,0.1 h -6 c -0.055,0 -0.1,-0.045 -0.1,-0.1 v -2.9 h -5.8 v 2.9 c 0,0.055 -0.045,0.1 -0.1,0.1 h -6 c -0.055,0 -0.1,-0.045 -0.1,-0.1 v -2.9 h -5.8 v 2.9 c 0,0.055 -0.045,0.1 -0.1,0.1 h -6 c -0.055,0 -0.1,-0.045 -0.1,-0.1 v -2.9 h -5.8 v 2.9 c 0,0.055 -0.045,0.1 -0.1,0.1 h -6 c -0.055,0 -0.1,-0.045 -0.1,-0.1 v -2.9 h -5.8 v 2.9 c 0,0.055 -0.045,0.1 -0.1,0.1 h -6 C 8.045,106.6 8,106.555 8,106.5 v -2.9 H 2.2 v 2.9 c 0,0.055 -0.045,0.1 -0.1,0.1 h -6 c -0.055,0 -0.1,-0.045 -0.1,-0.1 v -2.9 h -5.8 v 2.9 c 0,0.055 -0.045,0.1 -0.1,0.1 h -6 c -0.055,0 -0.1,-0.045 -0.1,-0.1 v -2.9 h -5.8 v 2.9 c 0,0.055 -0.045,0.1 -0.1,0.1 h -6 c -0.055,0 -0.1,-0.045 -0.1,-0.1 v -2.9 h -5.8 v 2.9 c 0,0.055 -0.045,0.1 -0.1,0.1 h -6 c -0.055,0 -0.1,-0.045 -0.1,-0.1 v -2.9 h -5.8 v 2.9 c 0,0.055 -0.045,0.1 -0.1,0.1 h -6 c -0.055,0 -0.1,-0.045 -0.1,-0.1 v -2.9 h -5.8 v 2.9 c 0,0.055 -0.045,0.1 -0.1,0.1 h -6 c -0.055,0 -0.1,-0.045 -0.1,-0.1 v -2.9 h -5.8 v 2.9 c 0,0.055 -0.045,0.1 -0.1,0.1 h -6 c -0.055,0 -0.1,-0.045 -0.1,-0.1 v -2.9 h -5.8 v 2.9 c 0,0.055 -0.045,0.1 -0.1,0.1 h -6 c -0.055,0 -0.1,-0.045 -0.1,-0.1 v -2.9 h -5.8 v 2.9 c 0,0.055 -0.045,0.1 -0.1,0.1 h -6 c -0.055,0 -0.1,-0.045 -0.1,-0.1 v -2.9 h -5.8 v 2.9 c 0,0.055 -0.045,0.1 -0.1,0.1 h -6 c -0.055,0 -0.1,-0.045 -0.1,-0.1 v -2.9 h -5.8 v 2.9 c 0,0.055 -0.045,0.1 -0.1,0.1 h -6 c -0.055,0 -0.1,-0.045 -0.1,-0.1 v -2.9 h -5.8 v 2.9 c 0,0.055 -0.045,0.1 -0.1,0.1 h -6 c -0.055,0 -0.1,-0.045 -0.1,-0.1 v -2.9 h -5.8 v 2.9 c 0,0.055 -0.045,0.1 -0.1,0.1 h -8 -3 c -0.055,0 -0.1,-0.045 -0.1,-0.1 v -3 -7 c 0,-0.055 0.045,-0.1 0.1,-0.1 h 2.9 v -5.8 h -2.9 c -0.055,0 -0.1,-0.045 -0.1,-0.1 v -6 c 0,-0.055 0.045,-0.1 0.1,-0.1 h 2.9 v -5.8 h -2.9 c -0.055,0 -0.1,-0.045 -0.1,-0.1 v -6 c 0,-0.055 0.045,-0.1 0.1,-0.1 h 2.9 v -5.8 h -2.9 c -0.055,0 -0.1,-0.045 -0.1,-0.1 v -6 c 0,-0.055 0.045,-0.1 0.1,-0.1 h 2.9 v -5.8 h -2.9 c -0.055,0 -0.1,-0.045 -0.1,-0.1 v -6 c 0,-0.055 0.045,-0.1 0.1,-0.1 h 2.9 v -5.8 h -2.9 c -0.055,0 -0.1,-0.045 -0.1,-0.1 v -6 c 0,-0.055 0.045,-0.1 0.1,-0.1 h 2.9 v -5.8 h -2.9 c -0.055,0 -0.1,-0.045 -0.1,-0.1 v -6 c 0,-0.055 0.045,-0.1 0.1,-0.1 h 2.9 v -5.8 h -2.9 c -0.055,0 -0.1,-0.045 -0.1,-0.1 v -6 c 0,-0.055 0.045,-0.1 0.1,-0.1 h 2.9 V 6.6 h -2.9 c -0.055,0 -0.1,-0.045 -0.1,-0.1 v -6 c 0,-0.055 0.045,-0.1 0.1,-0.1 h 2.9 v -5.8 h -2.9 c -0.055,0 -0.1,-0.045 -0.1,-0.1 v -6 c 0,-0.055 0.045,-0.1 0.1,-0.1 h 2.9 v -5.8 h -2.9 c -0.055,0 -0.1,-0.045 -0.1,-0.1 v -6 c 0,-0.055 0.045,-0.1 0.1,-0.1 h 2.9 v -5.8 h -2.9 c -0.055,0 -0.1,-0.045 -0.1,-0.1 v -6 c 0,-0.055 0.045,-0.1 0.1,-0.1 h 2.9 v -5.8 h -2.9 c -0.055,0 -0.1,-0.045 -0.1,-0.1 v -6 c 0,-0.055 0.045,-0.1 0.1,-0.1 h 2.9 v -5.8 h -2.9 c -0.055,0 -0.1,-0.045 -0.1,-0.1 v -6 c 0,-0.055 0.045,-0.1 0.1,-0.1 h 2.9 v -5.8 h -2.9 c -0.055,0 -0.1,-0.045 -0.1,-0.1 v -6 c 0,-0.055 0.045,-0.1 0.1,-0.1 h 2.9 v -5.8 h -2.9 c -0.055,0 -0.1,-0.045 -0.1,-0.1 v -6 c 0,-0.055 0.045,-0.1 0.1,-0.1 h 2.9 v -5.8 h -2.9 c -0.055,0 -0.1,-0.045 -0.1,-0.1 v -7 -3 c 0,-0.055 0.045,-0.1 0.1,-0.1 h 3"
         stroke="#000000"
         stroke-width="0.35 px"
         style="fill:none;fill-opacity:1;fill-rule:evenodd;stroke-width:0.35;stroke-miterlimit:4;stroke-dasharray:none" />
      <path
         id="Sketch_w0001"
         d="m -89.957224,17.708092 h 25.989426 V 34.070331 H -89.957224 V 17.708092"
         stroke="#000000"
         stroke-width="0.35 px"
         style="fill:none;fill-opacity:1;fill-rule:evenodd;stroke-width:0.35;stroke-miterlimit:4;stroke-dasharray:none" />
      <path
         id="Sketch_w0002"
         d="m -88.633074,63.71162 h 36.824869 V 93.88656 H -88.633074 V 63.71162"
         stroke="#000000"
         stroke-width="0.35 px"
         style="fill:none;fill-opacity:1;fill-rule:evenodd;stroke-width:0.35;stroke-miterlimit:4;stroke-dasharray:none" />
      <path
         id="Sketch_w0003"
         d="m -76.259363,-17.024578 h -55.406367 v -12 h 55.406367 v 12"
         stroke="#000000"
         stroke-width="0.35 px"
         style="fill:none;fill-opacity:1;fill-rule:evenodd;stroke-width:0.35;stroke-miterlimit:4;stroke-dasharray:none" />
      <path
         id="Sketch_w0004"
         d="M 2.345619,-17.567686 H -55.759707 V -39.916942 H 2.345619 v 22.349256"
         stroke="#000000"
         stroke-width="0.35 px"
         style="fill:none;fill-opacity:1;fill-rule:evenodd;stroke-width:0.35;stroke-miterlimit:4;stroke-dasharray:none" />
      <circle
         cx="6.1317272"
         cy="-11.517731"
         r="1.75"
         stroke="#000000"
         stroke-width="0.35 px"
         style="fill:none;stroke-width:0.35;stroke-miterlimit:4;stroke-dasharray:none"
         id="circle131" />
      <circle
         cx="-60.17271"
         cy="-11.494431"
         r="1.75"
         stroke="#000000"
         stroke-width="0.35 px"
         style="fill:none;stroke-width:0.35;stroke-miterlimit:4;stroke-dasharray:none"
         id="circle133" />
      <title
         id="title135">b'Sketch'</title>
    </g>
    <g
       id="Sketch004"
       transform="matrix(-1,0,0,1,-174.18599,115.66761)">
      <path
         id="Sketch004_w0000"
         d="m -149.9,-107.9 h 8 c 0.055,0 0.1,0.045 0.1,0.1 v 2.9 h 5.8 v -2.9 c 0,-0.055 0.045,-0.1 0.1,-0.1 h 6 c 0.055,0 0.1,0.045 0.1,0.1 v 2.9 h 5.8 v -2.9 c 0,-0.055 0.045,-0.1 0.1,-0.1 h 6 c 0.055,0 0.1,0.045 0.1,0.1 v 2.9 h 5.8 v -2.9 c 0,-0.055 0.045,-0.1 0.1,-0.1 h 6 c 0.055,0 0.1,0.045 0.1,0.1 v 2.9 h 5.8 v -2.9 c 0,-0.055 0.045,-0.1 0.1,-0.1 h 6 c 0.055,0 0.1,0.045 0.1,0.1 v 2.9 h 5.8 v -2.9 c 0,-0.055 0.045,-0.1 0.1,-0.1 h 6 c 0.055,0 0.1,0.045 0.1,0.1 v 2.9 h 5.8 v -2.9 c 0,-0.055 0.045,-0.1 0.1,-0.1 h 6 c 0.055,0 0.1,0.045 0.1,0.1 v 2.9 h 5.8 v -2.9 c 0,-0.055 0.045,-0.1 0.1,-0.1 h 6 c 0.055,0 0.1,0.045 0.1,0.1 v 2.9 h 5.8 v -2.9 c 0,-0.055 0.045,-0.1 0.1,-0.1 h 6 c 0.055,0 0.1,0.045 0.1,0.1 v 2.9 h 5.8 v -2.9 c 0,-0.055 0.045,-0.1 0.1,-0.1 h 6 c 0.055,0 0.1,0.045 0.1,0.1 v 2.9 h 5.8 v -2.9 c 0,-0.055 0.045,-0.1 0.1,-0.1 h 6 c 0.055,0 0.1,0.045 0.1,0.1 v 2.9 h 5.8 v -2.9 c 0,-0.055 0.045,-0.1 0.1,-0.1 h 6 c 0.055,0 0.1,0.045 0.1,0.1 v 2.9 H -4 v -2.9 c 0,-0.055 0.045,-0.1 0.1,-0.1 h 6 c 0.055,0 0.1,0.045 0.1,0.1 v 2.9 H 8 v -2.9 c 0,-0.055 0.045,-0.1 0.1,-0.1 h 6 c 0.055,0 0.1,0.045 0.1,0.1 v 2.9 H 20 v -2.9 c 0,-0.055 0.045,-0.1 0.1,-0.1 h 6 c 0.055,0 0.1,0.045 0.1,0.1 v 2.9 H 32 v -2.9 c 0,-0.055 0.045,-0.1 0.1,-0.1 h 6 c 0.055,0 0.1,0.045 0.1,0.1 v 2.9 H 44 v -2.9 c 0,-0.055 0.045,-0.1 0.1,-0.1 h 6 c 0.055,0 0.1,0.045 0.1,0.1 v 2.9 H 56 v -2.9 c 0,-0.055 0.045,-0.1 0.1,-0.1 h 6 c 0.055,0 0.1,0.045 0.1,0.1 v 2.9 H 68 v -2.9 c 0,-0.055 0.045,-0.1 0.1,-0.1 h 6 c 0.055,0 0.1,0.045 0.1,0.1 v 2.9 H 80 v -2.9 c 0,-0.055 0.045,-0.1 0.1,-0.1 h 6 c 0.055,0 0.1,0.045 0.1,0.1 v 2.9 H 92 v -2.9 c 0,-0.055 0.045,-0.1 0.1,-0.1 h 6 c 0.055,0 0.1,0.045 0.1,0.1 v 2.9 h 5.8 v -2.9 c 0,-0.055 0.045,-0.1 0.1,-0.1 h 6 c 0.055,0 0.1,0.045 0.1,0.1 v 2.9 h 5.8 v -2.9 c 0,-0.055 0.045,-0.1 0.1,-0.1 h 6 c 0.055,0 0.1,0.045 0.1,0.1 v 2.9 h 5.8 v -2.9 c 0,-0.055 0.045,-0.1 0.1,-0.1 h 6 c 0.055,0 0.1,0.045 0.1,0.1 v 2.9 h 5.8 v -2.9 c 0,-0.055 0.045,-0.1 0.1,-0.1 h 6 c 0.055,0 0.1,0.045 0.1,0.1 v 2.9 h 5.8 v -2.9 c 0,-0.055 0.045,-0.1 0.1,-0.1 h 8 3 c 0.055,0 0.1,0.045 0.1,0.1 v 3 7 c 0,0.055 -0.045,0.1 -0.1,0.1 h -2.9 v 5.8 h 2.9 c 0.055,0 0.1,0.045 0.1,0.1 v 6 c 0,0.055 -0.045,0.1 -0.1,0.1 h -2.9 v 5.8 h 2.9 c 0.055,0 0.1,0.045 0.1,0.1 v 6 c 0,0.055 -0.045,0.1 -0.1,0.1 h -2.9 v 5.8 h 2.9 c 0.055,0 0.1,0.045 0.1,0.1 v 6 c 0,0.055 -0.045,0.1 -0.1,0.1 h -2.9 v 5.8 h 2.9 c 0.055,0 0.1,0.045 0.1,0.1 v 6 c 0,0.055 -0.045,0.1 -0.1,0.1 h -2.9 v 5.8 h 2.9 c 0.055,0 0.1,0.045 0.1,0.1 v 6 c 0,0.055 -0.045,0.1 -0.1,0.1 h -2.9 v 5.8 h 2.9 c 0.055,0 0.1,0.045 0.1,0.1 v 6 c 0,0.055 -0.045,0.1 -0.1,0.1 h -2.9 v 5.8 h 2.9 c 0.055,0 0.1,0.045 0.1,0.1 v 6 c 0,0.055 -0.045,0.1 -0.1,0.1 h -2.9 v 5.8 h 2.9 c 0.055,0 0.1,0.045 0.1,0.1 v 6 c 0,0.055 -0.045,0.1 -0.1,0.1 h -2.9 v 5.8 h 2.9 c 0.055,0 0.1,0.045 0.1,0.1 v 6 c 0,0.055 -0.045,0.1 -0.1,0.1 h -2.9 v 5.8 h 2.9 c 0.055,0 0.1,0.045 0.1,0.1 v 6 c 0,0.055 -0.045,0.1 -0.1,0.1 h -2.9 v 5.8 h 2.9 c 0.055,0 0.1,0.045 0.1,0.1 v 6 c 0,0.055 -0.045,0.1 -0.1,0.1 h -2.9 v 5.8 h 2.9 c 0.055,0 0.1,0.045 0.1,0.1 v 6 c 0,0.055 -0.045,0.1 -0.1,0.1 h -2.9 v 5.8 h 2.9 c 0.055,0 0.1,0.045 0.1,0.1 v 6 c 0,0.055 -0.045,0.1 -0.1,0.1 h -2.9 v 5.8 h 2.9 c 0.055,0 0.1,0.045 0.1,0.1 v 6 c 0,0.055 -0.045,0.1 -0.1,0.1 h -2.9 v 5.8 h 2.9 c 0.055,0 0.1,0.045 0.1,0.1 v 6 c 0,0.055 -0.045,0.1 -0.1,0.1 h -2.9 v 5.8 h 2.9 c 0.055,0 0.1,0.045 0.1,0.1 v 7 3 c 0,0.055 -0.045,0.1 -0.1,0.1 h -3 -8 c -0.055,0 -0.1,-0.045 -0.1,-0.1 v -2.9 h -5.8 v 2.9 c 0,0.055 -0.045,0.1 -0.1,0.1 h -6 c -0.055,0 -0.1,-0.045 -0.1,-0.1 v -2.9 h -5.8 v 2.9 c 0,0.055 -0.045,0.1 -0.1,0.1 h -6 c -0.055,0 -0.1,-0.045 -0.1,-0.1 v -2.9 h -5.8 v 2.9 c 0,0.055 -0.045,0.1 -0.1,0.1 h -6 c -0.055,0 -0.1,-0.045 -0.1,-0.1 v -2.9 h -5.8 v 2.9 c 0,0.055 -0.045,0.1 -0.1,0.1 h -6 c -0.055,0 -0.1,-0.045 -0.1,-0.1 v -2.9 h -5.8 v 2.9 c 0,0.055 -0.045,0.1 -0.1,0.1 h -6 C 92.045,98.3 92,98.255 92,98.2 v -2.9 h -5.8 v 2.9 c 0,0.055 -0.045,0.1 -0.1,0.1 h -6 C 80.045,98.3 80,98.255 80,98.2 v -2.9 h -5.8 v 2.9 c 0,0.055 -0.045,0.1 -0.1,0.1 h -6 C 68.045,98.3 68,98.255 68,98.2 v -2.9 h -5.8 v 2.9 c 0,0.055 -0.045,0.1 -0.1,0.1 h -6 C 56.045,98.3 56,98.255 56,98.2 v -2.9 h -5.8 v 2.9 c 0,0.055 -0.045,0.1 -0.1,0.1 h -6 C 44.045,98.3 44,98.255 44,98.2 v -2.9 h -5.8 v 2.9 c 0,0.055 -0.045,0.1 -0.1,0.1 h -6 C 32.045,98.3 32,98.255 32,98.2 v -2.9 h -5.8 v 2.9 c 0,0.055 -0.045,0.1 -0.1,0.1 h -6 C 20.045,98.3 20,98.255 20,98.2 v -2.9 h -5.8 v 2.9 c 0,0.055 -0.045,0.1 -0.1,0.1 h -6 C 8.045,98.3 8,98.255 8,98.2 V 95.3 H 2.2 v 2.9 c 0,0.055 -0.045,0.1 -0.1,0.1 h -6 C -3.955,98.3 -4,98.255 -4,98.2 v -2.9 h -5.8 v 2.9 c 0,0.055 -0.045,0.1 -0.1,0.1 h -6 c -0.055,0 -0.1,-0.045 -0.1,-0.1 v -2.9 h -5.8 v 2.9 c 0,0.055 -0.045,0.1 -0.1,0.1 h -6 c -0.055,0 -0.1,-0.045 -0.1,-0.1 v -2.9 h -5.8 v 2.9 c 0,0.055 -0.045,0.1 -0.1,0.1 h -6 c -0.055,0 -0.1,-0.045 -0.1,-0.1 v -2.9 h -5.8 v 2.9 c 0,0.055 -0.045,0.1 -0.1,0.1 h -6 c -0.055,0 -0.1,-0.045 -0.1,-0.1 v -2.9 h -5.8 v 2.9 c 0,0.055 -0.045,0.1 -0.1,0.1 h -6 c -0.055,0 -0.1,-0.045 -0.1,-0.1 v -2.9 h -5.8 v 2.9 c 0,0.055 -0.045,0.1 -0.1,0.1 h -6 c -0.055,0 -0.1,-0.045 -0.1,-0.1 v -2.9 h -5.8 v 2.9 c 0,0.055 -0.045,0.1 -0.1,0.1 h -6 c -0.055,0 -0.1,-0.045 -0.1,-0.1 v -2.9 h -5.8 v 2.9 c 0,0.055 -0.045,0.1 -0.1,0.1 h -6 c -0.055,0 -0.1,-0.045 -0.1,-0.1 v -2.9 h -5.8 v 2.9 c 0,0.055 -0.045,0.1 -0.1,0.1 h -6 c -0.055,0 -0.1,-0.045 -0.1,-0.1 v -2.9 h -5.8 v 2.9 c 0,0.055 -0.045,0.1 -0.1,0.1 h -6 c -0.055,0 -0.1,-0.045 -0.1,-0.1 v -2.9 h -5.8 v 2.9 c 0,0.055 -0.045,0.1 -0.1,0.1 h -6 c -0.055,0 -0.1,-0.045 -0.1,-0.1 v -2.9 h -5.8 v 2.9 c 0,0.055 -0.045,0.1 -0.1,0.1 h -8 -3 c -0.055,0 -0.1,-0.045 -0.1,-0.1 v -3 -7 c 0,-0.055 0.045,-0.1 0.1,-0.1 h 2.9 v -5.8 h -2.9 c -0.055,0 -0.1,-0.045 -0.1,-0.1 v -6 c 0,-0.055 0.045,-0.1 0.1,-0.1 h 2.9 v -5.8 h -2.9 c -0.055,0 -0.1,-0.045 -0.1,-0.1 v -6 c 0,-0.055 0.045,-0.1 0.1,-0.1 h 2.9 v -5.8 h -2.9 c -0.055,0 -0.1,-0.045 -0.1,-0.1 v -6 c 0,-0.055 0.045,-0.1 0.1,-0.1 h 2.9 v -5.8 h -2.9 c -0.055,0 -0.1,-0.045 -0.1,-0.1 v -6 c 0,-0.055 0.045,-0.1 0.1,-0.1 h 2.9 v -5.8 h -2.9 c -0.055,0 -0.1,-0.045 -0.1,-0.1 v -6 c 0,-0.055 0.045,-0.1 0.1,-0.1 h 2.9 v -5.8 h -2.9 c -0.055,0 -0.1,-0.045 -0.1,-0.1 v -6 c 0,-0.055 0.045,-0.1 0.1,-0.1 h 2.9 v -5.8 h -2.9 c -0.055,0 -0.1,-0.045 -0.1,-0.1 v -6 c 0,-0.055 0.045,-0.1 0.1,-0.1 h 2.9 v -5.8 h -2.9 c -0.055,0 -0.1,-0.045 -0.1,-0.1 v -6 c 0,-0.055 0.045,-0.1 0.1,-0.1 h 2.9 v -5.8 h -2.9 c -0.055,0 -0.1,-0.045 -0.1,-0.1 v -6 c 0,-0.055 0.045,-0.1 0.1,-0.1 h 2.9 v -5.8 h -2.9 c -0.055,0 -0.1,-0.045 -0.1,-0.1 v -6 c 0,-0.055 0.045,-0.1 0.1,-0.1 h 2.9 v -5.8 h -2.9 c -0.055,0 -0.1,-0.045 -0.1,-0.1 v -6 c 0,-0.055 0.045,-0.1 0.1,-0.1 h 2.9 v -5.8 h -2.9 c -0.055,0 -0.1,-0.045 -0.1,-0.1 v -6 c 0,-0.055 0.045,-0.1 0.1,-0.1 h 2.9 v -5.8 h -2.9 c -0.055,0 -0.1,-0.045 -0.1,-0.1 v -6 c 0,-0.055 0.045,-0.1 0.1,-0.1 h 2.9 v -5.8 h -2.9 c -0.055,0 -0.1,-0.045 -0.1,-0.1 v -6 c 0,-0.055 0.045,-0.1 0.1,-0.1 h 2.9 v -5.8 h -2.9 c -0.055,0 -0.1,-0.045 -0.1,-0.1 v -6 c 0,-0.055 0.045,-0.1 0.1,-0.1 h 2.9 v -5.8 h -2.9 c -0.055,0 -0.1,-0.045 -0.1,-0.1 v -7 -3 c 0,-0.055 0.045,-0.1 0.1,-0.1 h 3"
         stroke="#000000"
         stroke-width="0.35 px"
         style="fill:none;fill-opacity:1;fill-rule:evenodd;stroke-width:0.35;stroke-miterlimit:4;stroke-dasharray:none" />
      <circle
         cx="-43.0387"
         cy="44.415283"
         r="45"
         stroke="#000000"
         stroke-width="0.35 px"
         style="fill:none;stroke-width:0.35;stroke-miterlimit:4;stroke-dasharray:none"
         id="circle195" />
      <circle
         cx="-44.951"
         cy="-37.975555"
         r="16.25"
         stroke="#000000"
         stroke-width="0.35 px"
         style="fill:none;stroke-width:0.35;stroke-miterlimit:4;stroke-dasharray:none"
         id="circle197" />
      <circle
         cx="-110.83706"
         cy="-8.9783707"
         r="1.65"
         stroke="#000000"
         stroke-width="0.35 px"
         style="fill:none;stroke-width:0.35;stroke-miterlimit:4;stroke-dasharray:none"
         id="circle199" />
      <circle
         cx="-110.76186"
         cy="-39.01577"
         r="1.65"
         stroke="#000000"
         stroke-width="0.35 px"
         style="fill:none;stroke-width:0.35;stroke-miterlimit:4;stroke-dasharray:none"
         id="circle201" />
      <circle
         cx="-80.74807"
         cy="-39.01577"
         r="1.65"
         stroke="#000000"
         stroke-width="0.35 px"
         style="fill:none;stroke-width:0.35;stroke-miterlimit:4;stroke-dasharray:none"
         id="circle203" />
      <circle
         cx="-80.74807"
         cy="-9.0019836"
         r="1.65"
         stroke="#000000"
         stroke-width="0.35 px"
         style="fill:none;stroke-width:0.35;stroke-miterlimit:4;stroke-dasharray:none"
         id="circle205" />
      <circle
         cx="-30.013302"
         cy="-22.992989"
         r="3.1500001"
         stroke="#000000"
         stroke-width="0.35 px"
         style="fill:none;stroke-width:0.35;stroke-miterlimit:4;stroke-dasharray:none"
         id="circle207" />
      <circle
         cx="-59.983337"
         cy="-23.031776"
         r="3.1500001"
         stroke="#000000"
         stroke-width="0.35 px"
         style="fill:none;stroke-width:0.35;stroke-miterlimit:4;stroke-dasharray:none"
         id="circle209" />
      <circle
         cx="-60.00079"
         cy="-53.046604"
         r="3.1500001"
         stroke="#000000"
         stroke-width="0.35 px"
         style="fill:none;stroke-width:0.35;stroke-miterlimit:4;stroke-dasharray:none"
         id="circle211" />
      <circle
         cx="-29.986862"
         cy="-52.98719"
         r="3.1500001"
         stroke="#000000"
         stroke-width="0.35 px"
         style="fill:none;stroke-width:0.35;stroke-miterlimit:4;stroke-dasharray:none"
         id="circle213" />
      <circle
         cx="-107.68233"
         cy="61.988861"
         r="8.8115196"
         stroke="#000000"
         stroke-width="0.35 px"
         style="fill:none;stroke-width:0.35;stroke-miterlimit:4;stroke-dasharray:none"
         id="circle215" />
      <path
         id="Sketch004_w0012"
         d="m -101.26917,-5.7262304 a 19.0354,19.0354 0 1 1 11.17647,-0.05119 l 1.2e-5,3.4542292 h -11.176482 v -3.4030396"
         stroke="#000000"
         stroke-width="0.35 px"
         style="fill:none;fill-opacity:1;fill-rule:evenodd;stroke-width:0.35;stroke-miterlimit:4;stroke-dasharray:none" />
      <path
         id="Sketch004_w0013"
         d="m 108.41169,83.87233 h 40.82444 V 72.515167 H 108.41169 V 83.87233"
         stroke="#000000"
         stroke-width="0.35 px"
         style="fill:none;fill-opacity:1;fill-rule:evenodd;stroke-width:0.35;stroke-miterlimit:4;stroke-dasharray:none" />
      <path
         id="Sketch004_w0014"
         d="m 109.79295,68.678284 h 45.27523 V 9.28334 h -45.27523 v 59.394944"
         stroke="#000000"
         stroke-width="0.35 px"
         style="fill:none;fill-opacity:1;fill-rule:evenodd;stroke-width:0.35;stroke-miterlimit:4;stroke-dasharray:none" />
      <circle
         cx="103.79151"
         cy="87.210175"
         r="1.75"
         stroke="#000000"
         stroke-width="0.35 px"
         style="fill:none;stroke-width:0.35;stroke-miterlimit:4;stroke-dasharray:none"
         id="circle220" />
      <circle
         cx="154.19743"
         cy="87.185486"
         r="1.75"
         stroke="#000000"
         stroke-width="0.35 px"
         style="fill:none;stroke-width:0.35;stroke-miterlimit:4;stroke-dasharray:none"
         id="circle222" />
      <circle
         cx="132.65919"
         cy="5.858788"
         r="1.75"
         stroke="#000000"
         stroke-width="0.35 px"
         style="fill:none;stroke-width:0.35;stroke-miterlimit:4;stroke-dasharray:none"
         id="circle224" />
      <title
         id="title226">b'Sketch004'</title>
    </g>
    <g
       id="Sketch003"
       transform="matrix(0,1,1,0,790.68771,143.55696)">
      <path
         id="Sketch003_w0000"
         d="m -135.9,-123.2 h 7.9 v -2.9 c 0,-0.055 0.045,-0.1 0.1,-0.1 h 6 c 0.055,0 0.1,0.045 0.1,0.1 v 2.9 h 5.8 v -2.9 c 0,-0.055 0.045,-0.1 0.1,-0.1 h 6 c 0.055,0 0.1,0.045 0.1,0.1 v 2.9 h 5.8 v -2.9 c 0,-0.055 0.045,-0.1 0.1,-0.1 h 6 c 0.055,0 0.1,0.045 0.1,0.1 v 2.9 h 5.8 v -2.9 c 0,-0.055 0.045,-0.1 0.1,-0.1 h 6 c 0.055,0 0.1,0.045 0.1,0.1 v 2.9 h 5.8 v -2.9 c 0,-0.055 0.045,-0.1 0.1,-0.1 h 6 c 0.055,0 0.1,0.045 0.1,0.1 v 2.9 h 5.8 v -2.9 c 0,-0.055 0.045,-0.1 0.1,-0.1 h 6 c 0.055,0 0.1,0.045 0.1,0.1 v 2.9 h 5.8 v -2.9 c 0,-0.055 0.045,-0.1 0.1,-0.1 h 6 c 0.055,0 0.1,0.045 0.1,0.1 v 2.9 h 5.8 v -2.9 c 0,-0.055 0.045,-0.1 0.1,-0.1 h 6 c 0.055,0 0.1,0.045 0.1,0.1 v 2.9 h 5.8 v -2.9 c 0,-0.055 0.045,-0.1 0.1,-0.1 h 6 c 0.055,0 0.1,0.045 0.1,0.1 v 2.9 h 5.8 v -2.9 c 0,-0.055 0.045,-0.1 0.1,-0.1 h 6 c 0.055,0 0.1,0.045 0.1,0.1 v 2.9 H -8 v -2.9 c 0,-0.055 0.045,-0.1 0.1,-0.1 h 6 c 0.055,0 0.1,0.045 0.1,0.1 v 2.9 H 4 v -2.9 c 0,-0.055 0.045,-0.1 0.1,-0.1 h 6 c 0.055,0 0.1,0.045 0.1,0.1 v 2.9 H 16 v -2.9 c 0,-0.055 0.045,-0.1 0.1,-0.1 h 6 c 0.055,0 0.1,0.045 0.1,0.1 v 2.9 H 28 v -2.9 c 0,-0.055 0.045,-0.1 0.1,-0.1 h 6 c 0.055,0 0.1,0.045 0.1,0.1 v 2.9 H 40 v -2.9 c 0,-0.055 0.045,-0.1 0.1,-0.1 h 6 c 0.055,0 0.1,0.045 0.1,0.1 v 2.9 H 52 v -2.9 c 0,-0.055 0.045,-0.1 0.1,-0.1 h 6 c 0.055,0 0.1,0.045 0.1,0.1 v 2.9 H 64 v -2.9 c 0,-0.055 0.045,-0.1 0.1,-0.1 h 6 c 0.055,0 0.1,0.045 0.1,0.1 v 2.9 H 76 v -2.9 c 0,-0.055 0.045,-0.1 0.1,-0.1 h 6 c 0.055,0 0.1,0.045 0.1,0.1 v 2.9 H 88 v -2.9 c 0,-0.055 0.045,-0.1 0.1,-0.1 h 6 c 0.055,0 0.1,0.045 0.1,0.1 v 2.9 h 5.8 v -2.9 c 0,-0.055 0.045,-0.1 0.1,-0.1 h 6 c 0.055,0 0.1,0.045 0.1,0.1 v 2.9 h 5.8 v -2.9 c 0,-0.055 0.045,-0.1 0.1,-0.1 h 6 c 0.055,0 0.1,0.045 0.1,0.1 v 2.9 h 5.8 v -2.9 c 0,-0.055 0.045,-0.1 0.1,-0.1 h 6 c 0.055,0 0.1,0.045 0.1,0.1 v 2.9 h 5.8 v -2.9 c 0,-0.055 0.045,-0.1 0.1,-0.1 h 6 c 0.055,0 0.1,0.045 0.1,0.1 v 2.9 h 5.8 v -2.9 c 0,-0.055 0.045,-0.1 0.1,-0.1 h 6 c 0.055,0 0.1,0.045 0.1,0.1 v 2.9 h 5.8 v -2.9 c 0,-0.055 0.045,-0.1 0.1,-0.1 h 6 c 0.055,0 0.1,0.045 0.1,0.1 v 2.9 h 7.9 c 0.055,0 0.1,0.045 0.1,0.1 v 8.9 h 2.9 c 0.055,0 0.1,0.045 0.1,0.1 v 6 c 0,0.055 -0.045,0.1 -0.1,0.1 h -2.9 v 5.8 h 2.9 c 0.055,0 0.1,0.045 0.1,0.1 v 6 c 0,0.055 -0.045,0.1 -0.1,0.1 h -2.9 v 5.8 h 2.9 c 0.055,0 0.1,0.045 0.1,0.1 v 6 c 0,0.055 -0.045,0.1 -0.1,0.1 h -2.9 v 5.8 h 2.9 c 0.055,0 0.1,0.045 0.1,0.1 v 6 c 0,0.055 -0.045,0.1 -0.1,0.1 h -2.9 v 5.8 h 2.9 c 0.055,0 0.1,0.045 0.1,0.1 v 6 c 0,0.055 -0.045,0.1 -0.1,0.1 h -2.9 v 5.8 h 2.9 c 0.055,0 0.1,0.045 0.1,0.1 v 6 c 0,0.055 -0.045,0.1 -0.1,0.1 h -2.9 v 5.8 h 2.9 c 0.055,0 0.1,0.045 0.1,0.1 v 6 c 0,0.055 -0.045,0.1 -0.1,0.1 h -2.9 v 5.8 h 2.9 c 0.055,0 0.1,0.045 0.1,0.1 v 6 c 0,0.055 -0.045,0.1 -0.1,0.1 h -2.9 v 5.8 h 2.9 c 0.055,0 0.1,0.045 0.1,0.1 v 6 c 0,0.055 -0.045,0.1 -0.1,0.1 h -2.9 v 5.8 h 2.9 c 0.055,0 0.1,0.045 0.1,0.1 v 6 c 0,0.055 -0.045,0.1 -0.1,0.1 h -2.9 v 5.8 h 2.9 c 0.055,0 0.1,0.045 0.1,0.1 v 6 c 0,0.055 -0.045,0.1 -0.1,0.1 h -2.9 v 5.8 h 2.9 c 0.055,0 0.1,0.045 0.1,0.1 v 6 c 0,0.055 -0.045,0.1 -0.1,0.1 h -2.9 v 5.8 h 2.9 c 0.055,0 0.1,0.045 0.1,0.1 v 6 c 0,0.055 -0.045,0.1 -0.1,0.1 h -2.9 v 5.8 h 2.9 c 0.055,0 0.1,0.045 0.1,0.1 v 6 c 0,0.055 -0.045,0.1 -0.1,0.1 h -2.9 v 5.8 h 2.9 c 0.055,0 0.1,0.045 0.1,0.1 v 6 c 0,0.055 -0.045,0.1 -0.1,0.1 h -2.9 v 5.8 h 2.9 c 0.055,0 0.1,0.045 0.1,0.1 v 6 c 0,0.055 -0.045,0.1 -0.1,0.1 h -2.9 v 5.8 h 2.9 c 0.055,0 0.1,0.045 0.1,0.1 v 6 c 0,0.055 -0.045,0.1 -0.1,0.1 h -2.9 v 5.8 h 2.9 c 0.055,0 0.1,0.045 0.1,0.1 v 6 c 0,0.055 -0.045,0.1 -0.1,0.1 h -2.9 v 5.8 h 2.9 c 0.055,0 0.1,0.045 0.1,0.1 v 6 c 0,0.055 -0.045,0.1 -0.1,0.1 h -2.9 v 8.9 c 0,0.055 -0.045,0.1 -0.1,0.1 h -7.9 v 2.9 c 0,0.055 -0.045,0.1 -0.1,0.1 h -6 c -0.055,0 -0.1,-0.045 -0.1,-0.1 V 117 h -5.8 v 2.9 c 0,0.055 -0.045,0.1 -0.1,0.1 h -6 c -0.055,0 -0.1,-0.045 -0.1,-0.1 V 117 h -5.8 v 2.9 c 0,0.055 -0.045,0.1 -0.1,0.1 h -6 c -0.055,0 -0.1,-0.045 -0.1,-0.1 V 117 h -5.8 v 2.9 c 0,0.055 -0.045,0.1 -0.1,0.1 h -6 c -0.055,0 -0.1,-0.045 -0.1,-0.1 V 117 h -5.8 v 2.9 c 0,0.055 -0.045,0.1 -0.1,0.1 h -6 c -0.055,0 -0.1,-0.045 -0.1,-0.1 V 117 h -5.8 v 2.9 c 0,0.055 -0.045,0.1 -0.1,0.1 h -6 c -0.055,0 -0.1,-0.045 -0.1,-0.1 V 117 h -5.8 v 2.9 c 0,0.055 -0.045,0.1 -0.1,0.1 h -6 C 88.045,120 88,119.955 88,119.9 V 117 h -5.8 v 2.9 c 0,0.055 -0.045,0.1 -0.1,0.1 h -6 C 76.045,120 76,119.955 76,119.9 V 117 h -5.8 v 2.9 c 0,0.055 -0.045,0.1 -0.1,0.1 h -6 C 64.045,120 64,119.955 64,119.9 V 117 h -5.8 v 2.9 c 0,0.055 -0.045,0.1 -0.1,0.1 h -6 C 52.045,120 52,119.955 52,119.9 V 117 h -5.8 v 2.9 c 0,0.055 -0.045,0.1 -0.1,0.1 h -6 C 40.045,120 40,119.955 40,119.9 V 117 h -5.8 v 2.9 c 0,0.055 -0.045,0.1 -0.1,0.1 h -6 C 28.045,120 28,119.955 28,119.9 V 117 h -5.8 v 2.9 c 0,0.055 -0.045,0.1 -0.1,0.1 h -6 C 16.045,120 16,119.955 16,119.9 V 117 h -5.8 v 2.9 c 0,0.055 -0.045,0.1 -0.1,0.1 h -6 C 4.045,120 4,119.955 4,119.9 V 117 h -5.8 v 2.9 c 0,0.055 -0.045,0.1 -0.1,0.1 h -6 C -7.955,120 -8,119.955 -8,119.9 V 117 h -5.8 v 2.9 c 0,0.055 -0.045,0.1 -0.1,0.1 h -6 c -0.055,0 -0.1,-0.045 -0.1,-0.1 V 117 h -5.8 v 2.9 c 0,0.055 -0.045,0.1 -0.1,0.1 h -6 c -0.055,0 -0.1,-0.045 -0.1,-0.1 V 117 h -5.8 v 2.9 c 0,0.055 -0.045,0.1 -0.1,0.1 h -6 c -0.055,0 -0.1,-0.045 -0.1,-0.1 V 117 h -5.8 v 2.9 c 0,0.055 -0.045,0.1 -0.1,0.1 h -6 c -0.055,0 -0.1,-0.045 -0.1,-0.1 V 117 h -5.8 v 2.9 c 0,0.055 -0.045,0.1 -0.1,0.1 h -6 c -0.055,0 -0.1,-0.045 -0.1,-0.1 V 117 h -5.8 v 2.9 c 0,0.055 -0.045,0.1 -0.1,0.1 h -6 c -0.055,0 -0.1,-0.045 -0.1,-0.1 V 117 h -5.8 v 2.9 c 0,0.055 -0.045,0.1 -0.1,0.1 h -6 c -0.055,0 -0.1,-0.045 -0.1,-0.1 V 117 h -5.8 v 2.9 c 0,0.055 -0.045,0.1 -0.1,0.1 h -6 c -0.055,0 -0.1,-0.045 -0.1,-0.1 V 117 h -5.8 v 2.9 c 0,0.055 -0.045,0.1 -0.1,0.1 h -6 c -0.055,0 -0.1,-0.045 -0.1,-0.1 V 117 h -5.8 v 2.9 c 0,0.055 -0.045,0.1 -0.1,0.1 h -6 c -0.055,0 -0.1,-0.045 -0.1,-0.1 V 117 h -7.9 c -0.055,0 -0.1,-0.045 -0.1,-0.1 V 108 h -2.9 c -0.055,0 -0.1,-0.045 -0.1,-0.1 v -6 c 0,-0.055 0.045,-0.1 0.1,-0.1 h 2.9 V 96 h -2.9 c -0.055,0 -0.1,-0.045 -0.1,-0.1 v -6 c 0,-0.055 0.045,-0.1 0.1,-0.1 h 2.9 V 84 h -2.9 c -0.055,0 -0.1,-0.045 -0.1,-0.1 v -6 c 0,-0.055 0.045,-0.1 0.1,-0.1 h 2.9 V 72 h -2.9 c -0.055,0 -0.1,-0.045 -0.1,-0.1 v -6 c 0,-0.055 0.045,-0.1 0.1,-0.1 h 2.9 V 60 h -2.9 c -0.055,0 -0.1,-0.045 -0.1,-0.1 v -6 c 0,-0.055 0.045,-0.1 0.1,-0.1 h 2.9 V 48 h -2.9 c -0.055,0 -0.1,-0.045 -0.1,-0.1 v -6 c 0,-0.055 0.045,-0.1 0.1,-0.1 h 2.9 V 36 h -2.9 c -0.055,0 -0.1,-0.045 -0.1,-0.1 v -6 c 0,-0.055 0.045,-0.1 0.1,-0.1 h 2.9 V 24 h -2.9 c -0.055,0 -0.1,-0.045 -0.1,-0.1 v -6 c 0,-0.055 0.045,-0.1 0.1,-0.1 h 2.9 V 12 h -2.9 c -0.055,0 -0.1,-0.045 -0.1,-0.1 v -6 c 0,-0.055 0.045,-0.1 0.1,-0.1 h 2.9 V 0 h -2.9 c -0.055,0 -0.1,-0.045 -0.1,-0.1 v -6 c 0,-0.055 0.045,-0.1 0.1,-0.1 h 2.9 V -12 h -2.9 c -0.055,0 -0.1,-0.045 -0.1,-0.1 v -6 c 0,-0.055 0.045,-0.1 0.1,-0.1 h 2.9 V -24 h -2.9 c -0.055,0 -0.1,-0.045 -0.1,-0.1 v -6 c 0,-0.055 0.045,-0.1 0.1,-0.1 h 2.9 V -36 h -2.9 c -0.055,0 -0.1,-0.045 -0.1,-0.1 v -6 c 0,-0.055 0.045,-0.1 0.1,-0.1 h 2.9 V -48 h -2.9 c -0.055,0 -0.1,-0.045 -0.1,-0.1 v -6 c 0,-0.055 0.045,-0.1 0.1,-0.1 h 2.9 V -60 h -2.9 c -0.055,0 -0.1,-0.045 -0.1,-0.1 v -6 c 0,-0.055 0.045,-0.1 0.1,-0.1 h 2.9 V -72 h -2.9 c -0.055,0 -0.1,-0.045 -0.1,-0.1 v -6 c 0,-0.055 0.045,-0.1 0.1,-0.1 h 2.9 V -84 h -2.9 c -0.055,0 -0.1,-0.045 -0.1,-0.1 v -6 c 0,-0.055 0.045,-0.1 0.1,-0.1 h 2.9 V -96 h -2.9 c -0.055,0 -0.1,-0.045 -0.1,-0.1 v -6 c 0,-0.055 0.045,-0.1 0.1,-0.1 h 2.9 v -5.8 h -2.9 c -0.055,0 -0.1,-0.045 -0.1,-0.1 v -6 c 0,-0.055 0.045,-0.1 0.1,-0.1 h 2.9 v -8.9 c 0,-0.055 0.045,-0.1 0.1,-0.1"
         stroke="#000000"
         stroke-width="0.35 px"
         style="fill:none;fill-opacity:1;fill-rule:evenodd;stroke-width:0.35;stroke-miterlimit:4;stroke-dasharray:none" />
      <circle
         cx="150.15134"
         cy="-90.193153"
         r="12"
         stroke="#000000"
         stroke-width="0.35 px"
         style="fill:none;stroke-width:0.35;stroke-miterlimit:4;stroke-dasharray:none"
         id="circle278" />
      <circle
         cx="-100.12016"
         cy="-90.033577"
         r="12"
         stroke="#000000"
         stroke-width="0.35 px"
         style="fill:none;stroke-width:0.35;stroke-miterlimit:4;stroke-dasharray:none"
         id="circle280" />
      <circle
         cx="26.173069"
         cy="83.028069"
         r="12"
         stroke="#000000"
         stroke-width="0.35 px"
         style="fill:none;stroke-width:0.35;stroke-miterlimit:4;stroke-dasharray:none"
         id="circle282" />
      <circle
         cx="-65.645851"
         cy="-4.7084398"
         r="3"
         stroke="#000000"
         stroke-width="0.35 px"
         style="fill:none;stroke-width:0.35;stroke-miterlimit:4;stroke-dasharray:none"
         id="circle284" />
      <circle
         cx="133.09377"
         cy="-5.0812569"
         r="3"
         stroke="#000000"
         stroke-width="0.35 px"
         style="fill:none;stroke-width:0.35;stroke-miterlimit:4;stroke-dasharray:none"
         id="circle286" />
      <circle
         cx="-65.629524"
         cy="55.7099"
         r="3"
         stroke="#000000"
         stroke-width="0.35 px"
         style="fill:none;stroke-width:0.35;stroke-miterlimit:4;stroke-dasharray:none"
         id="circle288" />
      <title
         id="title290">b'Sketch003'</title>
    </g>
    <g
       id="Sketch002"
       transform="matrix(1,0,0,-1,1064.966,132.31006)">
      <path
         id="Sketch002_w0000"
         d="m -135.2,-118.2 h 7.9 v -2.9 c 0,-0.055 0.045,-0.1 0.1,-0.1 h 6 c 0.055,0 0.1,0.045 0.1,0.1 v 2.9 h 5.8 v -2.9 c 0,-0.055 0.045,-0.1 0.1,-0.1 h 6 c 0.055,0 0.1,0.045 0.1,0.1 v 2.9 h 5.8 v -2.9 c 0,-0.055 0.045,-0.1 0.1,-0.1 h 6 c 0.055,0 0.1,0.045 0.1,0.1 v 2.9 h 5.8 v -2.9 c 0,-0.055 0.045,-0.1 0.1,-0.1 h 6 c 0.055,0 0.1,0.045 0.1,0.1 v 2.9 h 5.8 v -2.9 c 0,-0.055 0.045,-0.1 0.1,-0.1 h 6 c 0.055,0 0.1,0.045 0.1,0.1 v 2.9 h 5.8 v -2.9 c 0,-0.055 0.045,-0.1 0.1,-0.1 h 6 c 0.055,0 0.1,0.045 0.1,0.1 v 2.9 h 5.8 v -2.9 c 0,-0.055 0.045,-0.1 0.1,-0.1 h 6 c 0.055,0 0.1,0.045 0.1,0.1 v 2.9 h 5.8 v -2.9 c 0,-0.055 0.045,-0.1 0.1,-0.1 h 6 c 0.055,0 0.1,0.045 0.1,0.1 v 2.9 h 5.8 v -2.9 c 0,-0.055 0.045,-0.1 0.1,-0.1 h 6 c 0.055,0 0.1,0.045 0.1,0.1 v 2.9 h 5.8 v -2.9 c 0,-0.055 0.045,-0.1 0.1,-0.1 h 6 c 0.055,0 0.1,0.045 0.1,0.1 v 2.9 h 5.8 v -2.9 c 0,-0.055 0.045,-0.1 0.1,-0.1 h 6 c 0.055,0 0.1,0.045 0.1,0.1 v 2.9 h 5.8 v -2.9 c 0,-0.055 0.045,-0.1 0.1,-0.1 h 6 c 0.055,0 0.1,0.045 0.1,0.1 v 2.9 h 5.8 v -2.9 c 0,-0.055 0.045,-0.1 0.1,-0.1 h 6 c 0.055,0 0.1,0.045 0.1,0.1 v 2.9 h 5.8 v -2.9 c 0,-0.055 0.045,-0.1 0.1,-0.1 h 6 c 0.055,0 0.1,0.045 0.1,0.1 v 2.9 h 5.8 v -2.9 c 0,-0.055 0.045,-0.1 0.1,-0.1 h 6 c 0.055,0 0.1,0.045 0.1,0.1 v 2.9 h 5.8 v -2.9 c 0,-0.055 0.045,-0.1 0.1,-0.1 h 6 c 0.055,0 0.1,0.045 0.1,0.1 v 2.9 h 5.8 v -2.9 c 0,-0.055 0.045,-0.1 0.1,-0.1 h 6 c 0.055,0 0.1,0.045 0.1,0.1 v 2.9 h 5.8 v -2.9 c 0,-0.055 0.045,-0.1 0.1,-0.1 h 6 c 0.055,0 0.1,0.045 0.1,0.1 v 2.9 h 5.8 v -2.9 c 0,-0.055 0.045,-0.1 0.1,-0.1 h 6 c 0.055,0 0.1,0.045 0.1,0.1 v 2.9 h 5.8 v -2.9 c 0,-0.055 0.045,-0.1 0.1,-0.1 h 6 c 0.055,0 0.1,0.045 0.1,0.1 v 2.9 h 5.8 v -2.9 c 0,-0.055 0.045,-0.1 0.1,-0.1 h 6 c 0.055,0 0.1,0.045 0.1,0.1 v 2.9 h 5.8 v -2.9 c 0,-0.055 0.045,-0.1 0.1,-0.1 h 6 c 0.055,0 0.1,0.045 0.1,0.1 v 2.9 h 5.8 v -2.9 c 0,-0.055 0.045,-0.1 0.1,-0.1 h 6 c 0.055,0 0.1,0.045 0.1,0.1 v 2.9 h 5.8 v -2.9 c 0,-0.055 0.045,-0.1 0.1,-0.1 h 6 c 0.055,0 0.1,0.045 0.1,0.1 v 2.9 h 5.8 v -2.9 c 0,-0.055 0.045,-0.1 0.1,-0.1 h 6 c 0.055,0 0.1,0.045 0.1,0.1 v 2.9 h 7.9 c 0.055,0 0.1,0.045 0.1,0.1 v 8.9 h 2.9 c 0.055,0 0.1,0.045 0.1,0.1 v 6 c 0,0.055 -0.045,0.1 -0.1,0.1 h -2.9 v 5.8 h 2.9 c 0.055,0 0.1,0.045 0.1,0.1 v 6 c 0,0.055 -0.045,0.1 -0.1,0.1 h -2.9 v 5.8 h 2.9 c 0.055,0 0.1,0.045 0.1,0.1 v 6 c 0,0.055 -0.045,0.1 -0.1,0.1 h -2.9 v 5.8 h 2.9 c 0.055,0 0.1,0.045 0.1,0.1 v 6 c 0,0.055 -0.045,0.1 -0.1,0.1 h -2.9 v 5.8 h 2.9 c 0.055,0 0.1,0.045 0.1,0.1 v 6 c 0,0.055 -0.045,0.1 -0.1,0.1 h -2.9 v 5.8 h 2.9 c 0.055,0 0.1,0.045 0.1,0.1 v 6 c 0,0.055 -0.045,0.1 -0.1,0.1 h -2.9 v 5.8 h 2.9 c 0.055,0 0.1,0.045 0.1,0.1 v 6 c 0,0.055 -0.045,0.1 -0.1,0.1 h -2.9 v 5.8 h 2.9 c 0.055,0 0.1,0.045 0.1,0.1 v 6 c 0,0.055 -0.045,0.1 -0.1,0.1 h -2.9 v 5.8 h 2.9 c 0.055,0 0.1,0.045 0.1,0.1 v 6 c 0,0.055 -0.045,0.1 -0.1,0.1 h -2.9 v 5.8 h 2.9 c 0.055,0 0.1,0.045 0.1,0.1 v 6 c 0,0.055 -0.045,0.1 -0.1,0.1 h -2.9 v 5.8 h 2.9 c 0.055,0 0.1,0.045 0.1,0.1 v 6 c 0,0.055 -0.045,0.1 -0.1,0.1 h -2.9 v 5.8 h 2.9 c 0.055,0 0.1,0.045 0.1,0.1 v 6 c 0,0.055 -0.045,0.1 -0.1,0.1 h -2.9 v 5.8 h 2.9 c 0.055,0 0.1,0.045 0.1,0.1 v 6 c 0,0.055 -0.045,0.1 -0.1,0.1 h -2.9 v 5.8 h 2.9 c 0.055,0 0.1,0.045 0.1,0.1 v 6 c 0,0.055 -0.045,0.1 -0.1,0.1 h -2.9 v 5.8 h 2.9 c 0.055,0 0.1,0.045 0.1,0.1 v 6 c 0,0.055 -0.045,0.1 -0.1,0.1 h -2.9 v 5.8 h 2.9 c 0.055,0 0.1,0.045 0.1,0.1 v 6 c 0,0.055 -0.045,0.1 -0.1,0.1 h -2.9 v 5.8 h 2.9 c 0.055,0 0.1,0.045 0.1,0.1 v 6 c 0,0.055 -0.045,0.1 -0.1,0.1 h -2.9 v 5.8 h 2.9 c 0.055,0 0.1,0.045 0.1,0.1 v 6 c 0,0.055 -0.045,0.1 -0.1,0.1 h -2.9 v 5.8 h 2.9 c 0.055,0 0.1,0.045 0.1,0.1 v 6 c 0,0.055 -0.045,0.1 -0.1,0.1 h -2.9 v 8.9 c 0,0.055 -0.045,0.1 -0.1,0.1 h -7.9 v 2.9 c 0,0.055 -0.045,0.1 -0.1,0.1 h -6 c -0.055,0 -0.1,-0.045 -0.1,-0.1 V 122 h -5.8 v 2.9 c 0,0.055 -0.045,0.1 -0.1,0.1 h -6 c -0.055,0 -0.1,-0.045 -0.1,-0.1 V 122 h -5.8 v 2.9 c 0,0.055 -0.045,0.1 -0.1,0.1 h -6 c -0.055,0 -0.1,-0.045 -0.1,-0.1 V 122 h -5.8 v 2.9 c 0,0.055 -0.045,0.1 -0.1,0.1 h -6 c -0.055,0 -0.1,-0.045 -0.1,-0.1 V 122 h -5.8 v 2.9 c 0,0.055 -0.045,0.1 -0.1,0.1 h -6 c -0.055,0 -0.1,-0.045 -0.1,-0.1 V 122 h -5.8 v 2.9 c 0,0.055 -0.045,0.1 -0.1,0.1 h -6 c -0.055,0 -0.1,-0.045 -0.1,-0.1 V 122 h -5.8 v 2.9 c 0,0.055 -0.045,0.1 -0.1,0.1 h -6 c -0.055,0 -0.1,-0.045 -0.1,-0.1 V 122 h -5.8 v 2.9 c 0,0.055 -0.045,0.1 -0.1,0.1 h -6 c -0.055,0 -0.1,-0.045 -0.1,-0.1 V 122 h -5.8 v 2.9 c 0,0.055 -0.045,0.1 -0.1,0.1 h -6 c -0.055,0 -0.1,-0.045 -0.1,-0.1 V 122 h -5.8 v 2.9 c 0,0.055 -0.045,0.1 -0.1,0.1 h -6 c -0.055,0 -0.1,-0.045 -0.1,-0.1 V 122 h -5.8 v 2.9 c 0,0.055 -0.045,0.1 -0.1,0.1 h -6 c -0.055,0 -0.1,-0.045 -0.1,-0.1 V 122 h -5.8 v 2.9 c 0,0.055 -0.045,0.1 -0.1,0.1 h -6 c -0.055,0 -0.1,-0.045 -0.1,-0.1 V 122 h -5.8 v 2.9 c 0,0.055 -0.045,0.1 -0.1,0.1 h -6 c -0.055,0 -0.1,-0.045 -0.1,-0.1 V 122 h -5.8 v 2.9 c 0,0.055 -0.045,0.1 -0.1,0.1 h -6 c -0.055,0 -0.1,-0.045 -0.1,-0.1 V 122 h -5.8 v 2.9 c 0,0.055 -0.045,0.1 -0.1,0.1 h -6 c -0.055,0 -0.1,-0.045 -0.1,-0.1 V 122 h -5.8 v 2.9 c 0,0.055 -0.045,0.1 -0.1,0.1 h -6 c -0.055,0 -0.1,-0.045 -0.1,-0.1 V 122 h -5.8 v 2.9 c 0,0.055 -0.045,0.1 -0.1,0.1 h -6 c -0.055,0 -0.1,-0.045 -0.1,-0.1 V 122 h -5.8 v 2.9 c 0,0.055 -0.045,0.1 -0.1,0.1 h -6 c -0.055,0 -0.1,-0.045 -0.1,-0.1 V 122 h -5.8 v 2.9 c 0,0.055 -0.045,0.1 -0.1,0.1 h -6 c -0.055,0 -0.1,-0.045 -0.1,-0.1 V 122 h -5.8 v 2.9 c 0,0.055 -0.045,0.1 -0.1,0.1 h -6 c -0.055,0 -0.1,-0.045 -0.1,-0.1 V 122 h -5.8 v 2.9 c 0,0.055 -0.045,0.1 -0.1,0.1 h -6 c -0.055,0 -0.1,-0.045 -0.1,-0.1 V 122 h -5.8 v 2.9 c 0,0.055 -0.045,0.1 -0.1,0.1 h -6 c -0.055,0 -0.1,-0.045 -0.1,-0.1 V 122 h -5.8 v 2.9 c 0,0.055 -0.045,0.1 -0.1,0.1 h -6 c -0.055,0 -0.1,-0.045 -0.1,-0.1 V 122 h -5.8 v 2.9 c 0,0.055 -0.045,0.1 -0.1,0.1 h -6 c -0.055,0 -0.1,-0.045 -0.1,-0.1 V 122 h -5.8 v 2.9 c 0,0.055 -0.045,0.1 -0.1,0.1 h -6 c -0.055,0 -0.1,-0.045 -0.1,-0.1 V 122 h -7.9 c -0.055,0 -0.1,-0.045 -0.1,-0.1 V 113 h -2.9 c -0.055,0 -0.1,-0.045 -0.1,-0.1 v -6 c 0,-0.055 0.045,-0.1 0.1,-0.1 h 2.9 V 101 h -2.9 c -0.055,0 -0.1,-0.045 -0.1,-0.1 v -6 c 0,-0.055 0.045,-0.1 0.1,-0.1 h 2.9 V 89 h -2.9 c -0.055,0 -0.1,-0.045 -0.1,-0.1 v -6 c 0,-0.055 0.045,-0.1 0.1,-0.1 h 2.9 V 77 h -2.9 c -0.055,0 -0.1,-0.045 -0.1,-0.1 v -6 c 0,-0.055 0.045,-0.1 0.1,-0.1 h 2.9 V 65 h -2.9 c -0.055,0 -0.1,-0.045 -0.1,-0.1 v -6 c 0,-0.055 0.045,-0.1 0.1,-0.1 h 2.9 V 53 h -2.9 c -0.055,0 -0.1,-0.045 -0.1,-0.1 v -6 c 0,-0.055 0.045,-0.1 0.1,-0.1 h 2.9 V 41 h -2.9 c -0.055,0 -0.1,-0.045 -0.1,-0.1 v -6 c 0,-0.055 0.045,-0.1 0.1,-0.1 h 2.9 V 29 h -2.9 c -0.055,0 -0.1,-0.045 -0.1,-0.1 v -6 c 0,-0.055 0.045,-0.1 0.1,-0.1 h 2.9 V 17 h -2.9 c -0.055,0 -0.1,-0.045 -0.1,-0.1 v -6 c 0,-0.055 0.045,-0.1 0.1,-0.1 h 2.9 V 5 h -2.9 c -0.055,0 -0.1,-0.045 -0.1,-0.1 v -6 c 0,-0.055 0.045,-0.1 0.1,-0.1 h 2.9 V -7 h -2.9 c -0.055,0 -0.1,-0.045 -0.1,-0.1 v -6 c 0,-0.055 0.045,-0.1 0.1,-0.1 h 2.9 V -19 h -2.9 c -0.055,0 -0.1,-0.045 -0.1,-0.1 v -6 c 0,-0.055 0.045,-0.1 0.1,-0.1 h 2.9 V -31 h -2.9 c -0.055,0 -0.1,-0.045 -0.1,-0.1 v -6 c 0,-0.055 0.045,-0.1 0.1,-0.1 h 2.9 V -43 h -2.9 c -0.055,0 -0.1,-0.045 -0.1,-0.1 v -6 c 0,-0.055 0.045,-0.1 0.1,-0.1 h 2.9 V -55 h -2.9 c -0.055,0 -0.1,-0.045 -0.1,-0.1 v -6 c 0,-0.055 0.045,-0.1 0.1,-0.1 h 2.9 V -67 h -2.9 c -0.055,0 -0.1,-0.045 -0.1,-0.1 v -6 c 0,-0.055 0.045,-0.1 0.1,-0.1 h 2.9 V -79 h -2.9 c -0.055,0 -0.1,-0.045 -0.1,-0.1 v -6 c 0,-0.055 0.045,-0.1 0.1,-0.1 h 2.9 V -91 h -2.9 c -0.055,0 -0.1,-0.045 -0.1,-0.1 v -6 c 0,-0.055 0.045,-0.1 0.1,-0.1 h 2.9 v -5.8 h -2.9 c -0.055,0 -0.1,-0.045 -0.1,-0.1 v -6 c 0,-0.055 0.045,-0.1 0.1,-0.1 h 2.9 v -8.9 c 0,-0.055 0.045,-0.1 0.1,-0.1"
         stroke="#000000"
         stroke-width="0.35 px"
         style="fill:none;fill-opacity:1;fill-rule:evenodd;stroke-width:0.35;stroke-miterlimit:4;stroke-dasharray:none" />
      <title
         id="title319">b'Sketch002'</title>
    </g>
    <g
       id="Sketch005"
       transform="matrix(-1,0,0,1,479.21146,121.52374)">
      <path
         id="Sketch005_w0000"
         d="m -106.2,-103.6 h 9 c 0.055,0 0.1,0.045 0.1,0.1 v 2.9 h 5.8 v -2.9 c 0,-0.055 0.045,-0.1 0.1,-0.1 h 6 c 0.055,0 0.1,0.045 0.1,0.1 v 2.9 h 5.8 v -2.9 c 0,-0.055 0.045,-0.1 0.1,-0.1 h 6 c 0.055,0 0.1,0.045 0.1,0.1 v 2.9 h 5.8 v -2.9 c 0,-0.055 0.045,-0.1 0.1,-0.1 h 6 c 0.055,0 0.1,0.045 0.1,0.1 v 2.9 h 5.8 v -2.9 c 0,-0.055 0.045,-0.1 0.1,-0.1 h 6 c 0.055,0 0.1,0.045 0.1,0.1 v 2.9 h 5.8 v -2.9 c 0,-0.055 0.045,-0.1 0.1,-0.1 h 6 c 0.055,0 0.1,0.045 0.1,0.1 v 2.9 h 5.8 v -2.9 c 0,-0.055 0.045,-0.1 0.1,-0.1 h 6 c 0.055,0 0.1,0.045 0.1,0.1 v 2.9 h 5.8 v -2.9 c 0,-0.055 0.045,-0.1 0.1,-0.1 h 6 c 0.055,0 0.1,0.045 0.1,0.1 v 2.9 h 5.8 v -2.9 c 0,-0.055 0.045,-0.1 0.1,-0.1 h 6 c 0.055,0 0.1,0.045 0.1,0.1 v 2.9 h 5.8 v -2.9 c 0,-0.055 0.045,-0.1 0.1,-0.1 h 6 c 0.055,0 0.1,0.045 0.1,0.1 v 2.9 h 5.8 v -2.9 c 0,-0.055 0.045,-0.1 0.1,-0.1 h 6 c 0.055,0 0.1,0.045 0.1,0.1 v 2.9 h 5.8 v -2.9 c 0,-0.055 0.045,-0.1 0.1,-0.1 h 6 c 0.055,0 0.1,0.045 0.1,0.1 v 2.9 h 5.8 v -2.9 c 0,-0.055 0.045,-0.1 0.1,-0.1 h 6 c 0.055,0 0.1,0.045 0.1,0.1 v 2.9 h 5.8 v -2.9 c 0,-0.055 0.045,-0.1 0.1,-0.1 h 6 c 0.055,0 0.1,0.045 0.1,0.1 v 2.9 h 5.8 v -2.9 c 0,-0.055 0.045,-0.1 0.1,-0.1 h 6 c 0.055,0 0.1,0.045 0.1,0.1 v 2.9 h 5.8 v -2.9 c 0,-0.055 0.045,-0.1 0.1,-0.1 h 6 c 0.055,0 0.1,0.045 0.1,0.1 v 2.9 h 5.8 v -2.9 c 0,-0.055 0.045,-0.1 0.1,-0.1 h 6 c 0.055,0 0.1,0.045 0.1,0.1 v 2.9 h 5.8 v -2.9 c 0,-0.055 0.045,-0.1 0.1,-0.1 h 6 c 0.055,0 0.1,0.045 0.1,0.1 v 2.9 h 5.8 v -2.9 c 0,-0.055 0.045,-0.1 0.1,-0.1 h 6 c 0.055,0 0.1,0.045 0.1,0.1 v 2.9 h 5.8 v -2.9 c 0,-0.055 0.045,-0.1 0.1,-0.1 h 9 c 0.055,0 0.1,0.045 0.1,0.1 v 3 6.9 h 2.9 c 0.055,0 0.1,0.045 0.1,0.1 v 6 c 0,0.055 -0.045,0.1 -0.1,0.1 h -2.9 v 5.8 h 2.9 c 0.055,0 0.1,0.045 0.1,0.1 v 6 c 0,0.055 -0.045,0.1 -0.1,0.1 h -2.9 v 5.8 h 2.9 c 0.055,0 0.1,0.045 0.1,0.1 v 6 c 0,0.055 -0.045,0.1 -0.1,0.1 h -2.9 v 5.8 h 2.9 c 0.055,0 0.1,0.045 0.1,0.1 v 6 c 0,0.055 -0.045,0.1 -0.1,0.1 h -2.9 v 5.8 h 2.9 c 0.055,0 0.1,0.045 0.1,0.1 v 6 c 0,0.055 -0.045,0.1 -0.1,0.1 h -2.9 v 5.8 h 2.9 c 0.055,0 0.1,0.045 0.1,0.1 v 6 c 0,0.055 -0.045,0.1 -0.1,0.1 h -2.9 v 5.8 h 2.9 c 0.055,0 0.1,0.045 0.1,0.1 v 6 c 0,0.055 -0.045,0.1 -0.1,0.1 h -2.9 v 5.8 h 2.9 c 0.055,0 0.1,0.045 0.1,0.1 v 6 c 0,0.055 -0.045,0.1 -0.1,0.1 h -2.9 v 5.8 h 2.9 c 0.055,0 0.1,0.045 0.1,0.1 v 6 c 0,0.055 -0.045,0.1 -0.1,0.1 h -2.9 v 5.8 h 2.9 c 0.055,0 0.1,0.045 0.1,0.1 v 6 c 0,0.055 -0.045,0.1 -0.1,0.1 h -2.9 v 5.8 h 2.9 c 0.055,0 0.1,0.045 0.1,0.1 v 6 c 0,0.055 -0.045,0.1 -0.1,0.1 h -2.9 v 5.8 h 2.9 c 0.055,0 0.1,0.045 0.1,0.1 v 6 c 0,0.055 -0.045,0.1 -0.1,0.1 h -2.9 v 5.8 h 2.9 c 0.055,0 0.1,0.045 0.1,0.1 v 6 c 0,0.055 -0.045,0.1 -0.1,0.1 h -2.9 v 5.8 h 2.9 c 0.055,0 0.1,0.045 0.1,0.1 v 6 c 0,0.055 -0.045,0.1 -0.1,0.1 h -2.9 v 5.8 h 2.9 c 0.055,0 0.1,0.045 0.1,0.1 v 6 c 0,0.055 -0.045,0.1 -0.1,0.1 h -2.9 v 5.8 h 2.9 c 0.055,0 0.1,0.045 0.1,0.1 v 6 c 0,0.055 -0.045,0.1 -0.1,0.1 h -2.9 v 6.9 3 c 0,0.055 -0.045,0.1 -0.1,0.1 h -9 c -0.055,0 -0.1,-0.045 -0.1,-0.1 v -2.9 h -5.8 v 2.9 c 0,0.055 -0.045,0.1 -0.1,0.1 h -6 c -0.055,0 -0.1,-0.045 -0.1,-0.1 v -2.9 h -5.8 v 2.9 c 0,0.055 -0.045,0.1 -0.1,0.1 h -6 c -0.055,0 -0.1,-0.045 -0.1,-0.1 v -2.9 h -5.8 v 2.9 c 0,0.055 -0.045,0.1 -0.1,0.1 h -6 c -0.055,0 -0.1,-0.045 -0.1,-0.1 v -2.9 h -5.8 v 2.9 c 0,0.055 -0.045,0.1 -0.1,0.1 h -6 c -0.055,0 -0.1,-0.045 -0.1,-0.1 v -2.9 h -5.8 v 2.9 c 0,0.055 -0.045,0.1 -0.1,0.1 h -6 c -0.055,0 -0.1,-0.045 -0.1,-0.1 v -2.9 h -5.8 v 2.9 c 0,0.055 -0.045,0.1 -0.1,0.1 h -6 c -0.055,0 -0.1,-0.045 -0.1,-0.1 v -2.9 h -5.8 v 2.9 c 0,0.055 -0.045,0.1 -0.1,0.1 h -6 c -0.055,0 -0.1,-0.045 -0.1,-0.1 v -2.9 h -5.8 v 2.9 c 0,0.055 -0.045,0.1 -0.1,0.1 h -6 c -0.055,0 -0.1,-0.045 -0.1,-0.1 v -2.9 h -5.8 v 2.9 c 0,0.055 -0.045,0.1 -0.1,0.1 h -6 c -0.055,0 -0.1,-0.045 -0.1,-0.1 v -2.9 h -5.8 v 2.9 c 0,0.055 -0.045,0.1 -0.1,0.1 h -6 c -0.055,0 -0.1,-0.045 -0.1,-0.1 v -2.9 h -5.8 v 2.9 c 0,0.055 -0.045,0.1 -0.1,0.1 h -6 c -0.055,0 -0.1,-0.045 -0.1,-0.1 v -2.9 h -5.8 v 2.9 c 0,0.055 -0.045,0.1 -0.1,0.1 h -6 c -0.055,0 -0.1,-0.045 -0.1,-0.1 v -2.9 h -5.8 v 2.9 c 0,0.055 -0.045,0.1 -0.1,0.1 h -6 c -0.055,0 -0.1,-0.045 -0.1,-0.1 v -2.9 h -5.8 v 2.9 c 0,0.055 -0.045,0.1 -0.1,0.1 h -6 c -0.055,0 -0.1,-0.045 -0.1,-0.1 v -2.9 h -5.8 v 2.9 c 0,0.055 -0.045,0.1 -0.1,0.1 h -6 c -0.055,0 -0.1,-0.045 -0.1,-0.1 v -2.9 h -5.8 v 2.9 c 0,0.055 -0.045,0.1 -0.1,0.1 h -6 c -0.055,0 -0.1,-0.045 -0.1,-0.1 v -2.9 h -5.8 v 2.9 c 0,0.055 -0.045,0.1 -0.1,0.1 h -6 c -0.055,0 -0.1,-0.045 -0.1,-0.1 v -2.9 h -5.8 v 2.9 c 0,0.055 -0.045,0.1 -0.1,0.1 h -6 c -0.055,0 -0.1,-0.045 -0.1,-0.1 v -2.9 h -5.8 v 2.9 c 0,0.055 -0.045,0.1 -0.1,0.1 h -9 c -0.055,0 -0.1,-0.045 -0.1,-0.1 v -3 -6.9 h -2.9 c -0.055,0 -0.1,-0.045 -0.1,-0.1 v -6 c 0,-0.055 0.045,-0.1 0.1,-0.1 h 2.9 v -5.8 h -2.9 c -0.055,0 -0.1,-0.045 -0.1,-0.1 v -6 c 0,-0.055 0.045,-0.1 0.1,-0.1 h 2.9 v -5.8 h -2.9 c -0.055,0 -0.1,-0.045 -0.1,-0.1 v -6 c 0,-0.055 0.045,-0.1 0.1,-0.1 h 2.9 v -5.8 h -2.9 c -0.055,0 -0.1,-0.045 -0.1,-0.1 v -6 c 0,-0.055 0.045,-0.1 0.1,-0.1 h 2.9 v -5.8 h -2.9 c -0.055,0 -0.1,-0.045 -0.1,-0.1 v -6 c 0,-0.055 0.045,-0.1 0.1,-0.1 h 2.9 v -5.8 h -2.9 c -0.055,0 -0.1,-0.045 -0.1,-0.1 v -6 c 0,-0.055 0.045,-0.1 0.1,-0.1 h 2.9 v -5.8 h -2.9 c -0.055,0 -0.1,-0.045 -0.1,-0.1 v -6 c 0,-0.055 0.045,-0.1 0.1,-0.1 h 2.9 V 8.6 h -2.9 c -0.055,0 -0.1,-0.045 -0.1,-0.1 v -6 c 0,-0.055 0.045,-0.1 0.1,-0.1 h 2.9 v -5.8 h -2.9 c -0.055,0 -0.1,-0.045 -0.1,-0.1 v -6 c 0,-0.055 0.045,-0.1 0.1,-0.1 h 2.9 v -5.8 h -2.9 c -0.055,0 -0.1,-0.045 -0.1,-0.1 v -6 c 0,-0.055 0.045,-0.1 0.1,-0.1 h 2.9 v -5.8 h -2.9 c -0.055,0 -0.1,-0.045 -0.1,-0.1 v -6 c 0,-0.055 0.045,-0.1 0.1,-0.1 h 2.9 v -5.8 h -2.9 c -0.055,0 -0.1,-0.045 -0.1,-0.1 v -6 c 0,-0.055 0.045,-0.1 0.1,-0.1 h 2.9 v -5.8 h -2.9 c -0.055,0 -0.1,-0.045 -0.1,-0.1 v -6 c 0,-0.055 0.045,-0.1 0.1,-0.1 h 2.9 v -5.8 h -2.9 c -0.055,0 -0.1,-0.045 -0.1,-0.1 v -6 c 0,-0.055 0.045,-0.1 0.1,-0.1 h 2.9 v -5.8 h -2.9 c -0.055,0 -0.1,-0.045 -0.1,-0.1 v -6 c 0,-0.055 0.045,-0.1 0.1,-0.1 h 2.9 v -5.8 h -2.9 c -0.055,0 -0.1,-0.045 -0.1,-0.1 v -6 c 0,-0.055 0.045,-0.1 0.1,-0.1 h 2.9 v -6.9 -3 c 0,-0.055 0.045,-0.1 0.1,-0.1"
         stroke="#000000"
         stroke-width="0.35 px"
         style="fill:none;fill-opacity:1;fill-rule:evenodd;stroke-width:0.35;stroke-miterlimit:4;stroke-dasharray:none" />
      <circle
         cx="-10.452515"
         cy="-38.097115"
         r="1.7"
         stroke="#000000"
         stroke-width="0.35 px"
         style="fill:none;stroke-width:0.35;stroke-miterlimit:4;stroke-dasharray:none"
         id="circle355" />
      <circle
         cx="68.449005"
         cy="-38.106552"
         r="1.7"
         stroke="#000000"
         stroke-width="0.35 px"
         style="fill:none;stroke-width:0.35;stroke-miterlimit:4;stroke-dasharray:none"
         id="circle357" />
      <path
         id="Sketch005_w0003"
         d="M -65.955414,74.118103 H 67.26123 V 20.248253 H -65.955414 v 53.86985"
         stroke="#000000"
         stroke-width="0.35 px"
         style="fill:none;fill-opacity:1;fill-rule:evenodd;stroke-width:0.35;stroke-miterlimit:4;stroke-dasharray:none" />
      <circle
         cx="-68.277313"
         cy="76.788864"
         r="1.75"
         stroke="#000000"
         stroke-width="0.35 px"
         style="fill:none;stroke-width:0.35;stroke-miterlimit:4;stroke-dasharray:none"
         id="circle360" />
      <circle
         cx="68.380463"
         cy="76.975647"
         r="1.75"
         stroke="#000000"
         stroke-width="0.35 px"
         style="fill:none;stroke-width:0.35;stroke-miterlimit:4;stroke-dasharray:none"
         id="circle362" />
      <circle
         cx="-68.188293"
         cy="18.055145"
         r="1.75"
         stroke="#000000"
         stroke-width="0.35 px"
         style="fill:none;stroke-width:0.35;stroke-miterlimit:4;stroke-dasharray:none"
         id="circle364" />
      <circle
         cx="68.549652"
         cy="17.887932"
         r="1.75"
         stroke="#000000"
         stroke-width="0.35 px"
         style="fill:none;stroke-width:0.35;stroke-miterlimit:4;stroke-dasharray:none"
         id="circle366" />
      <title
         id="title368">b'Sketch005'</title>
    </g>
    <g
       id="Sketch001"
       transform="matrix(-1,0,0,1,-460.67675,113.44639)">
      <path
         id="Sketch001_w0000"
         d="m -106.2,-103.6 h 9 c 0.055,0 0.1,0.045 0.1,0.1 v 2.9 h 5.8 v -2.9 c 0,-0.055 0.045,-0.1 0.1,-0.1 h 6 c 0.055,0 0.1,0.045 0.1,0.1 v 2.9 h 5.8 v -2.9 c 0,-0.055 0.045,-0.1 0.1,-0.1 h 6 c 0.055,0 0.1,0.045 0.1,0.1 v 2.9 h 5.8 v -2.9 c 0,-0.055 0.045,-0.1 0.1,-0.1 h 6 c 0.055,0 0.1,0.045 0.1,0.1 v 2.9 h 5.8 v -2.9 c 0,-0.055 0.045,-0.1 0.1,-0.1 h 6 c 0.055,0 0.1,0.045 0.1,0.1 v 2.9 h 5.8 v -2.9 c 0,-0.055 0.045,-0.1 0.1,-0.1 h 6 c 0.055,0 0.1,0.045 0.1,0.1 v 2.9 h 5.8 v -2.9 c 0,-0.055 0.045,-0.1 0.1,-0.1 h 6 c 0.055,0 0.1,0.045 0.1,0.1 v 2.9 h 5.8 v -2.9 c 0,-0.055 0.045,-0.1 0.1,-0.1 h 6 c 0.055,0 0.1,0.045 0.1,0.1 v 2.9 h 5.8 v -2.9 c 0,-0.055 0.045,-0.1 0.1,-0.1 h 6 c 0.055,0 0.1,0.045 0.1,0.1 v 2.9 h 5.8 v -2.9 c 0,-0.055 0.045,-0.1 0.1,-0.1 h 6 c 0.055,0 0.1,0.045 0.1,0.1 v 2.9 h 5.8 v -2.9 c 0,-0.055 0.045,-0.1 0.1,-0.1 h 6 c 0.055,0 0.1,0.045 0.1,0.1 v 2.9 h 5.8 v -2.9 c 0,-0.055 0.045,-0.1 0.1,-0.1 h 6 c 0.055,0 0.1,0.045 0.1,0.1 v 2.9 h 5.8 v -2.9 c 0,-0.055 0.045,-0.1 0.1,-0.1 h 6 c 0.055,0 0.1,0.045 0.1,0.1 v 2.9 h 5.8 v -2.9 c 0,-0.055 0.045,-0.1 0.1,-0.1 h 6 c 0.055,0 0.1,0.045 0.1,0.1 v 2.9 h 5.8 v -2.9 c 0,-0.055 0.045,-0.1 0.1,-0.1 h 6 c 0.055,0 0.1,0.045 0.1,0.1 v 2.9 h 5.8 v -2.9 c 0,-0.055 0.045,-0.1 0.1,-0.1 h 6 c 0.055,0 0.1,0.045 0.1,0.1 v 2.9 h 5.8 v -2.9 c 0,-0.055 0.045,-0.1 0.1,-0.1 h 6 c 0.055,0 0.1,0.045 0.1,0.1 v 2.9 h 5.8 v -2.9 c 0,-0.055 0.045,-0.1 0.1,-0.1 h 6 c 0.055,0 0.1,0.045 0.1,0.1 v 2.9 h 5.8 v -2.9 c 0,-0.055 0.045,-0.1 0.1,-0.1 h 6 c 0.055,0 0.1,0.045 0.1,0.1 v 2.9 h 5.8 v -2.9 c 0,-0.055 0.045,-0.1 0.1,-0.1 h 9 c 0.055,0 0.1,0.045 0.1,0.1 v 3 6.9 h 2.9 c 0.055,0 0.1,0.045 0.1,0.1 v 6 c 0,0.055 -0.045,0.1 -0.1,0.1 h -2.9 v 5.8 h 2.9 c 0.055,0 0.1,0.045 0.1,0.1 v 6 c 0,0.055 -0.045,0.1 -0.1,0.1 h -2.9 v 5.8 h 2.9 c 0.055,0 0.1,0.045 0.1,0.1 v 6 c 0,0.055 -0.045,0.1 -0.1,0.1 h -2.9 v 5.8 h 2.9 c 0.055,0 0.1,0.045 0.1,0.1 v 6 c 0,0.055 -0.045,0.1 -0.1,0.1 h -2.9 v 5.8 h 2.9 c 0.055,0 0.1,0.045 0.1,0.1 v 6 c 0,0.055 -0.045,0.1 -0.1,0.1 h -2.9 v 5.8 h 2.9 c 0.055,0 0.1,0.045 0.1,0.1 v 6 c 0,0.055 -0.045,0.1 -0.1,0.1 h -2.9 v 5.8 h 2.9 c 0.055,0 0.1,0.045 0.1,0.1 v 6 c 0,0.055 -0.045,0.1 -0.1,0.1 h -2.9 v 5.8 h 2.9 c 0.055,0 0.1,0.045 0.1,0.1 v 6 c 0,0.055 -0.045,0.1 -0.1,0.1 h -2.9 v 5.8 h 2.9 c 0.055,0 0.1,0.045 0.1,0.1 v 6 c 0,0.055 -0.045,0.1 -0.1,0.1 h -2.9 v 5.8 h 2.9 c 0.055,0 0.1,0.045 0.1,0.1 v 6 c 0,0.055 -0.045,0.1 -0.1,0.1 h -2.9 v 5.8 h 2.9 c 0.055,0 0.1,0.045 0.1,0.1 v 6 c 0,0.055 -0.045,0.1 -0.1,0.1 h -2.9 v 5.8 h 2.9 c 0.055,0 0.1,0.045 0.1,0.1 v 6 c 0,0.055 -0.045,0.1 -0.1,0.1 h -2.9 v 5.8 h 2.9 c 0.055,0 0.1,0.045 0.1,0.1 v 6 c 0,0.055 -0.045,0.1 -0.1,0.1 h -2.9 v 5.8 h 2.9 c 0.055,0 0.1,0.045 0.1,0.1 v 6 c 0,0.055 -0.045,0.1 -0.1,0.1 h -2.9 v 5.8 h 2.9 c 0.055,0 0.1,0.045 0.1,0.1 v 6 c 0,0.055 -0.045,0.1 -0.1,0.1 h -2.9 v 5.8 h 2.9 c 0.055,0 0.1,0.045 0.1,0.1 v 6 c 0,0.055 -0.045,0.1 -0.1,0.1 h -2.9 v 6.9 3 c 0,0.055 -0.045,0.1 -0.1,0.1 h -9 c -0.055,0 -0.1,-0.045 -0.1,-0.1 v -2.9 h -5.8 v 2.9 c 0,0.055 -0.045,0.1 -0.1,0.1 h -6 c -0.055,0 -0.1,-0.045 -0.1,-0.1 v -2.9 h -5.8 v 2.9 c 0,0.055 -0.045,0.1 -0.1,0.1 h -6 c -0.055,0 -0.1,-0.045 -0.1,-0.1 v -2.9 h -5.8 v 2.9 c 0,0.055 -0.045,0.1 -0.1,0.1 h -6 c -0.055,0 -0.1,-0.045 -0.1,-0.1 v -2.9 h -5.8 v 2.9 c 0,0.055 -0.045,0.1 -0.1,0.1 h -6 c -0.055,0 -0.1,-0.045 -0.1,-0.1 v -2.9 h -5.8 v 2.9 c 0,0.055 -0.045,0.1 -0.1,0.1 h -6 c -0.055,0 -0.1,-0.045 -0.1,-0.1 v -2.9 h -5.8 v 2.9 c 0,0.055 -0.045,0.1 -0.1,0.1 h -6 c -0.055,0 -0.1,-0.045 -0.1,-0.1 v -2.9 h -5.8 v 2.9 c 0,0.055 -0.045,0.1 -0.1,0.1 h -6 c -0.055,0 -0.1,-0.045 -0.1,-0.1 v -2.9 h -5.8 v 2.9 c 0,0.055 -0.045,0.1 -0.1,0.1 h -6 c -0.055,0 -0.1,-0.045 -0.1,-0.1 v -2.9 h -5.8 v 2.9 c 0,0.055 -0.045,0.1 -0.1,0.1 h -6 c -0.055,0 -0.1,-0.045 -0.1,-0.1 v -2.9 h -5.8 v 2.9 c 0,0.055 -0.045,0.1 -0.1,0.1 h -6 c -0.055,0 -0.1,-0.045 -0.1,-0.1 v -2.9 h -5.8 v 2.9 c 0,0.055 -0.045,0.1 -0.1,0.1 h -6 c -0.055,0 -0.1,-0.045 -0.1,-0.1 v -2.9 h -5.8 v 2.9 c 0,0.055 -0.045,0.1 -0.1,0.1 h -6 c -0.055,0 -0.1,-0.045 -0.1,-0.1 v -2.9 h -5.8 v 2.9 c 0,0.055 -0.045,0.1 -0.1,0.1 h -6 c -0.055,0 -0.1,-0.045 -0.1,-0.1 v -2.9 h -5.8 v 2.9 c 0,0.055 -0.045,0.1 -0.1,0.1 h -6 c -0.055,0 -0.1,-0.045 -0.1,-0.1 v -2.9 h -5.8 v 2.9 c 0,0.055 -0.045,0.1 -0.1,0.1 h -6 c -0.055,0 -0.1,-0.045 -0.1,-0.1 v -2.9 h -5.8 v 2.9 c 0,0.055 -0.045,0.1 -0.1,0.1 h -6 c -0.055,0 -0.1,-0.045 -0.1,-0.1 v -2.9 h -5.8 v 2.9 c 0,0.055 -0.045,0.1 -0.1,0.1 h -6 c -0.055,0 -0.1,-0.045 -0.1,-0.1 v -2.9 h -5.8 v 2.9 c 0,0.055 -0.045,0.1 -0.1,0.1 h -6 c -0.055,0 -0.1,-0.045 -0.1,-0.1 v -2.9 h -5.8 v 2.9 c 0,0.055 -0.045,0.1 -0.1,0.1 h -9 c -0.055,0 -0.1,-0.045 -0.1,-0.1 v -3 -6.9 h -2.9 c -0.055,0 -0.1,-0.045 -0.1,-0.1 v -6 c 0,-0.055 0.045,-0.1 0.1,-0.1 h 2.9 v -5.8 h -2.9 c -0.055,0 -0.1,-0.045 -0.1,-0.1 v -6 c 0,-0.055 0.045,-0.1 0.1,-0.1 h 2.9 v -5.8 h -2.9 c -0.055,0 -0.1,-0.045 -0.1,-0.1 v -6 c 0,-0.055 0.045,-0.1 0.1,-0.1 h 2.9 v -5.8 h -2.9 c -0.055,0 -0.1,-0.045 -0.1,-0.1 v -6 c 0,-0.055 0.045,-0.1 0.1,-0.1 h 2.9 v -5.8 h -2.9 c -0.055,0 -0.1,-0.045 -0.1,-0.1 v -6 c 0,-0.055 0.045,-0.1 0.1,-0.1 h 2.9 v -5.8 h -2.9 c -0.055,0 -0.1,-0.045 -0.1,-0.1 v -6 c 0,-0.055 0.045,-0.1 0.1,-0.1 h 2.9 v -5.8 h -2.9 c -0.055,0 -0.1,-0.045 -0.1,-0.1 v -6 c 0,-0.055 0.045,-0.1 0.1,-0.1 h 2.9 V 8.6 h -2.9 c -0.055,0 -0.1,-0.045 -0.1,-0.1 v -6 c 0,-0.055 0.045,-0.1 0.1,-0.1 h 2.9 v -5.8 h -2.9 c -0.055,0 -0.1,-0.045 -0.1,-0.1 v -6 c 0,-0.055 0.045,-0.1 0.1,-0.1 h 2.9 v -5.8 h -2.9 c -0.055,0 -0.1,-0.045 -0.1,-0.1 v -6 c 0,-0.055 0.045,-0.1 0.1,-0.1 h 2.9 v -5.8 h -2.9 c -0.055,0 -0.1,-0.045 -0.1,-0.1 v -6 c 0,-0.055 0.045,-0.1 0.1,-0.1 h 2.9 v -5.8 h -2.9 c -0.055,0 -0.1,-0.045 -0.1,-0.1 v -6 c 0,-0.055 0.045,-0.1 0.1,-0.1 h 2.9 v -5.8 h -2.9 c -0.055,0 -0.1,-0.045 -0.1,-0.1 v -6 c 0,-0.055 0.045,-0.1 0.1,-0.1 h 2.9 v -5.8 h -2.9 c -0.055,0 -0.1,-0.045 -0.1,-0.1 v -6 c 0,-0.055 0.045,-0.1 0.1,-0.1 h 2.9 v -5.8 h -2.9 c -0.055,0 -0.1,-0.045 -0.1,-0.1 v -6 c 0,-0.055 0.045,-0.1 0.1,-0.1 h 2.9 v -5.8 h -2.9 c -0.055,0 -0.1,-0.045 -0.1,-0.1 v -6 c 0,-0.055 0.045,-0.1 0.1,-0.1 h 2.9 v -6.9 -3 c 0,-0.055 0.045,-0.1 0.1,-0.1"
         stroke="#000000"
         stroke-width="0.35 px"
         style="fill:none;fill-opacity:1;fill-rule:evenodd;stroke-width:0.35;stroke-miterlimit:4;stroke-dasharray:none" />
      <path
         id="Sketch001_w0001"
         d="M 40.957233,87.328388 H 88.054461 V 76.675775 H 40.957233 v 10.652613"
         stroke="#000000"
         stroke-width="0.35 px"
         style="fill:none;fill-opacity:1;fill-rule:evenodd;stroke-width:0.35;stroke-miterlimit:4;stroke-dasharray:none" />
      <path
         id="Sketch001_w0002"
         d="M 87.663177,73.521835 39.590332,73.270477 40.092957,15.092224 83.820892,14.966568 87.663177,73.521835"
         stroke="#000000"
         stroke-width="0.35 px"
         style="fill:none;fill-opacity:1;fill-rule:evenodd;stroke-width:0.35;stroke-miterlimit:4;stroke-dasharray:none" />
      <circle
         cx="90.906158"
         cy="88.91629"
         r="1.75"
         stroke="#000000"
         stroke-width="0.35 px"
         style="fill:none;stroke-width:0.35;stroke-miterlimit:4;stroke-dasharray:none"
         id="circle410" />
      <circle
         cx="36.855408"
         cy="88.928375"
         r="1.75"
         stroke="#000000"
         stroke-width="0.35 px"
         style="fill:none;stroke-width:0.35;stroke-miterlimit:4;stroke-dasharray:none"
         id="circle412" />
      <circle
         cx="36.850586"
         cy="14.156448"
         r="1.75"
         stroke="#000000"
         stroke-width="0.35 px"
         style="fill:none;stroke-width:0.35;stroke-miterlimit:4;stroke-dasharray:none"
         id="circle414" />
      <circle
         cx="90.899658"
         cy="14.126122"
         r="1.75"
         stroke="#000000"
         stroke-width="0.35 px"
         style="fill:none;stroke-width:0.35;stroke-miterlimit:4;stroke-dasharray:none"
         id="circle416" />
      <title
         id="title418">b'Sketch001'</title>
    </g>
  </g>
</svg>
