<?xml version="1.0"?>
<!DOCTYPE svg PUBLIC "-//W3C//DTD SVG 1.1//EN" "http://www.w3.org/Graphics/SVG/1.1/DTD/svg11.dtd">
<svg width="322.524mm" height="212.52400000000006mm" viewBox="0 0 322.524 212.52400000000006" xmlns="http://www.w3.org/2000/svg" version="1.1">
<g id="Sketch" transform="translate(156.162000,109.762000) scale(1,-1)">
<path id="Sketch_w0000"  d="M -149.9 -99.60000000000002 L -141.9 -99.60000000000002 C -141.845 -99.60000000000002 -141.8 -99.55499999999995 -141.8 -99.5 L -141.8 -96.60000000000002 L -136.0 -96.60000000000002 L -136.0 -99.5 C -136.0 -99.55499999999995 -135.95499999999998 -99.60000000000002 -135.9 -99.60000000000002 L -129.9 -99.60000000000002 C -129.845 -99.60000000000002 -129.8 -99.55499999999995 -129.8 -99.5 L -129.8 -96.60000000000002 L -124.0 -96.60000000000002 L -124.0 -99.5 C -124.0 -99.55499999999995 -123.955 -99.60000000000002 -123.9 -99.60000000000002 L -117.9 -99.60000000000002 C -117.845 -99.60000000000002 -117.8 -99.55499999999995 -117.8 -99.5 L -117.8 -96.60000000000002 L -112.0 -96.60000000000002 L -112.0 -99.5 C -112.0 -99.55499999999995 -111.955 -99.60000000000002 -111.9 -99.60000000000002 L -105.9 -99.60000000000002 C -105.845 -99.60000000000002 -105.8 -99.55499999999995 -105.8 -99.5 L -105.8 -96.60000000000002 L -100.0 -96.60000000000002 L -100.0 -99.5 C -100.0 -99.55499999999995 -99.955 -99.60000000000002 -99.9 -99.60000000000002 L -93.9 -99.60000000000002 C -93.845 -99.60000000000002 -93.8 -99.55499999999995 -93.8 -99.5 L -93.8 -96.60000000000002 L -88.0 -96.60000000000002 L -88.0 -99.5 C -88.0 -99.55499999999995 -87.955 -99.60000000000002 -87.9 -99.60000000000002 L -81.9 -99.60000000000002 C -81.845 -99.60000000000002 -81.8 -99.55499999999995 -81.8 -99.5 L -81.8 -96.60000000000002 L -76.0 -96.60000000000002 L -76.0 -99.5 C -76.0 -99.55499999999995 -75.955 -99.60000000000002 -75.9 -99.60000000000002 L -69.9 -99.60000000000002 C -69.845 -99.60000000000002 -69.8 -99.55499999999995 -69.8 -99.5 L -69.8 -96.60000000000002 L -64.0 -96.60000000000002 L -64.0 -99.5 C -64.0 -99.55499999999995 -63.955 -99.60000000000002 -63.900000000000006 -99.60000000000002 L -57.900000000000006 -99.60000000000002 C -57.845 -99.60000000000002 -57.8 -99.55499999999995 -57.8 -99.5 L -57.8 -96.60000000000002 L -52.0 -96.60000000000002 L -52.0 -99.5 C -52.0 -99.55499999999995 -51.955 -99.60000000000002 -51.900000000000006 -99.60000000000002 L -45.900000000000006 -99.60000000000002 C -45.845 -99.60000000000002 -45.8 -99.55499999999995 -45.8 -99.5 L -45.8 -96.60000000000002 L -40.0 -96.60000000000002 L -40.0 -99.5 C -40.0 -99.55499999999995 -39.955 -99.60000000000002 -39.900000000000006 -99.60000000000002 L -33.900000000000006 -99.60000000000002 C -33.845 -99.60000000000002 -33.80000000000001 -99.55499999999995 -33.80000000000001 -99.5 L -33.80000000000001 -96.60000000000002 L -28.0 -96.60000000000002 L -28.0 -99.5 C -28.0 -99.55499999999995 -27.955000000000013 -99.60000000000002 -27.900000000000006 -99.60000000000002 L -21.900000000000006 -99.60000000000002 C -21.845 -99.60000000000002 -21.80000000000001 -99.55499999999995 -21.80000000000001 -99.5 L -21.80000000000001 -96.60000000000002 L -16.0 -96.60000000000002 L -16.0 -99.5 C -16.0 -99.55499999999995 -15.955000000000013 -99.60000000000002 -15.900000000000006 -99.60000000000002 L -9.900000000000006 -99.60000000000002 C -9.844999999999999 -99.60000000000002 -9.800000000000011 -99.55499999999995 -9.800000000000011 -99.5 L -9.800000000000011 -96.60000000000002 L -4.0 -96.60000000000002 L -4.0 -99.5 C -4.0 -99.55499999999995 -3.9550000000000125 -99.60000000000002 -3.9000000000000057 -99.60000000000002 L 2.0999999999999943 -99.60000000000002 C 2.155000000000001 -99.60000000000002 2.1999999999999886 -99.55499999999995 2.1999999999999886 -99.5 L 2.1999999999999886 -96.60000000000002 L 8.0 -96.60000000000002 L 8.0 -99.5 C 8.0 -99.55499999999995 8.044999999999987 -99.60000000000002 8.099999999999994 -99.60000000000002 L 14.099999999999994 -99.60000000000002 C 14.155000000000001 -99.60000000000002 14.199999999999989 -99.55499999999995 14.199999999999989 -99.5 L 14.199999999999989 -96.60000000000002 L 20.0 -96.60000000000002 L 20.0 -99.5 C 20.0 -99.55499999999995 20.044999999999987 -99.60000000000002 20.099999999999994 -99.60000000000002 L 26.099999999999994 -99.60000000000002 C 26.155 -99.60000000000002 26.19999999999999 -99.55499999999995 26.19999999999999 -99.5 L 26.19999999999999 -96.60000000000002 L 32.0 -96.60000000000002 L 32.0 -99.5 C 32.0 -99.55499999999995 32.04499999999999 -99.60000000000002 32.099999999999994 -99.60000000000002 L 38.099999999999994 -99.60000000000002 C 38.155 -99.60000000000002 38.19999999999999 -99.55499999999995 38.19999999999999 -99.5 L 38.19999999999999 -96.60000000000002 L 44.0 -96.60000000000002 L 44.0 -99.5 C 44.0 -99.55499999999995 44.04499999999999 -99.60000000000002 44.099999999999994 -99.60000000000002 L 50.099999999999994 -99.60000000000002 C 50.155 -99.60000000000002 50.19999999999999 -99.55499999999995 50.19999999999999 -99.5 L 50.19999999999999 -96.60000000000002 L 56.0 -96.60000000000002 L 56.0 -99.5 C 56.0 -99.55499999999995 56.04499999999999 -99.60000000000002 56.099999999999994 -99.60000000000002 L 62.099999999999994 -99.60000000000002 C 62.155 -99.60000000000002 62.19999999999999 -99.55499999999995 62.19999999999999 -99.5 L 62.19999999999999 -96.60000000000002 L 68.0 -96.60000000000002 L 68.0 -99.5 C 68.0 -99.55499999999995 68.04499999999999 -99.60000000000002 68.1 -99.60000000000002 L 74.1 -99.60000000000002 C 74.155 -99.60000000000002 74.19999999999999 -99.55499999999995 74.19999999999999 -99.5 L 74.19999999999999 -96.60000000000002 L 80.0 -96.60000000000002 L 80.0 -99.5 C 80.0 -99.55499999999995 80.04499999999999 -99.60000000000002 80.1 -99.60000000000002 L 86.1 -99.60000000000002 C 86.155 -99.60000000000002 86.19999999999999 -99.55499999999995 86.19999999999999 -99.5 L 86.19999999999999 -96.60000000000002 L 92.0 -96.60000000000002 L 92.0 -99.5 C 92.0 -99.55499999999995 92.04499999999999 -99.60000000000002 92.1 -99.60000000000002 L 98.10000000000002 -99.60000000000002 C 98.15499999999997 -99.60000000000002 98.19999999999999 -99.55499999999995 98.19999999999999 -99.5 L 98.19999999999999 -96.60000000000002 L 104.0 -96.60000000000002 L 104.0 -99.5 C 104.0 -99.55499999999995 104.04500000000002 -99.60000000000002 104.10000000000002 -99.60000000000002 L 110.10000000000002 -99.60000000000002 C 110.15499999999997 -99.60000000000002 110.19999999999999 -99.55499999999995 110.19999999999999 -99.5 L 110.19999999999999 -96.60000000000002 L 116.0 -96.60000000000002 L 116.0 -99.5 C 116.0 -99.55499999999995 116.04500000000002 -99.60000000000002 116.10000000000002 -99.60000000000002 L 122.10000000000002 -99.60000000000002 C 122.15499999999997 -99.60000000000002 122.19999999999999 -99.55499999999995 122.19999999999999 -99.5 L 122.19999999999999 -96.60000000000002 L 128.0 -96.60000000000002 L 128.0 -99.5 C 128.0 -99.55499999999995 128.04500000000002 -99.60000000000002 128.10000000000002 -99.60000000000002 L 134.10000000000002 -99.60000000000002 C 134.15499999999997 -99.60000000000002 134.2 -99.55499999999995 134.2 -99.5 L 134.2 -96.60000000000002 L 140.0 -96.60000000000002 L 140.0 -99.5 C 140.0 -99.55499999999995 140.04500000000002 -99.60000000000002 140.10000000000002 -99.60000000000002 L 146.10000000000002 -99.60000000000002 C 146.15499999999997 -99.60000000000002 146.2 -99.55499999999995 146.2 -99.5 L 146.2 -96.60000000000002 L 152.0 -96.60000000000002 L 152.0 -99.5 C 152.0 -99.55499999999995 152.04500000000002 -99.60000000000002 152.10000000000002 -99.60000000000002 L 160.10000000000002 -99.60000000000002 L 163.10000000000002 -99.60000000000002 C 163.15499999999997 -99.60000000000002 163.2 -99.55499999999995 163.2 -99.5 L 163.2 -96.5 L 163.2 -89.5 C 163.2 -89.44500000000005 163.15499999999997 -89.39999999999998 163.10000000000002 -89.39999999999998 L 160.2 -89.39999999999998 L 160.2 -83.60000000000002 L 163.10000000000002 -83.60000000000002 C 163.15499999999997 -83.60000000000002 163.2 -83.55499999999995 163.2 -83.5 L 163.2 -77.5 C 163.2 -77.44500000000005 163.15499999999997 -77.39999999999998 163.10000000000002 -77.39999999999998 L 160.2 -77.39999999999998 L 160.2 -71.60000000000002 L 163.10000000000002 -71.60000000000002 C 163.15499999999997 -71.60000000000002 163.2 -71.55499999999995 163.2 -71.5 L 163.2 -65.5 C 163.2 -65.44500000000005 163.15499999999997 -65.39999999999998 163.10000000000002 -65.39999999999998 L 160.2 -65.39999999999998 L 160.2 -59.60000000000002 L 163.10000000000002 -59.60000000000002 C 163.15499999999997 -59.60000000000002 163.2 -59.55499999999995 163.2 -59.5 L 163.2 -53.5 C 163.2 -53.44500000000005 163.15499999999997 -53.39999999999998 163.10000000000002 -53.39999999999998 L 160.2 -53.39999999999998 L 160.2 -47.60000000000002 L 163.10000000000002 -47.60000000000002 C 163.15499999999997 -47.60000000000002 163.2 -47.55499999999995 163.2 -47.5 L 163.2 -41.5 C 163.2 -41.44500000000005 163.15499999999997 -41.39999999999998 163.10000000000002 -41.39999999999998 L 160.2 -41.39999999999998 L 160.2 -35.60000000000002 L 163.10000000000002 -35.60000000000002 C 163.15499999999997 -35.60000000000002 163.2 -35.55499999999995 163.2 -35.5 L 163.2 -29.5 C 163.2 -29.44500000000005 163.15499999999997 -29.399999999999977 163.10000000000002 -29.399999999999977 L 160.2 -29.399999999999977 L 160.2 -23.600000000000023 L 163.10000000000002 -23.600000000000023 C 163.15499999999997 -23.600000000000023 163.2 -23.55499999999995 163.2 -23.5 L 163.2 -17.5 C 163.2 -17.44500000000005 163.15499999999997 -17.399999999999977 163.10000000000002 -17.399999999999977 L 160.2 -17.399999999999977 L 160.2 -11.600000000000023 L 163.10000000000002 -11.600000000000023 C 163.15499999999997 -11.600000000000023 163.2 -11.55499999999995 163.2 -11.5 L 163.2 -5.5 C 163.2 -5.44500000000005 163.15499999999997 -5.399999999999977 163.10000000000002 -5.399999999999977 L 160.2 -5.399999999999977 L 160.2 0.3999999999999773 L 163.10000000000002 0.3999999999999773 C 163.15499999999997 0.3999999999999773 163.2 0.44500000000005 163.2 0.5 L 163.2 6.5 C 163.2 6.55499999999995 163.15499999999997 6.600000000000023 163.10000000000002 6.600000000000023 L 160.2 6.600000000000023 L 160.2 12.399999999999977 L 163.10000000000002 12.399999999999977 C 163.15499999999997 12.399999999999977 163.2 12.44500000000005 163.2 12.5 L 163.2 18.5 C 163.2 18.55499999999995 163.15499999999997 18.600000000000023 163.10000000000002 18.600000000000023 L 160.2 18.600000000000023 L 160.2 24.399999999999977 L 163.10000000000002 24.399999999999977 C 163.15499999999997 24.399999999999977 163.2 24.44500000000005 163.2 24.5 L 163.2 30.5 C 163.2 30.55499999999995 163.15499999999997 30.600000000000023 163.10000000000002 30.600000000000023 L 160.2 30.600000000000023 L 160.2 36.39999999999998 L 163.10000000000002 36.39999999999998 C 163.15499999999997 36.39999999999998 163.2 36.44500000000005 163.2 36.5 L 163.2 42.5 C 163.2 42.55499999999995 163.15499999999997 42.60000000000002 163.10000000000002 42.60000000000002 L 160.2 42.60000000000002 L 160.2 48.39999999999998 L 163.10000000000002 48.39999999999998 C 163.15499999999997 48.39999999999998 163.2 48.44500000000005 163.2 48.5 L 163.2 54.5 C 163.2 54.55499999999995 163.15499999999997 54.60000000000002 163.10000000000002 54.60000000000002 L 160.2 54.60000000000002 L 160.2 60.39999999999998 L 163.10000000000002 60.39999999999998 C 163.15499999999997 60.39999999999998 163.2 60.44499999999999 163.2 60.5 L 163.2 66.5 C 163.2 66.555 163.15499999999997 66.60000000000002 163.10000000000002 66.60000000000002 L 160.2 66.60000000000002 L 160.2 72.39999999999998 L 163.10000000000002 72.39999999999998 C 163.15499999999997 72.39999999999998 163.2 72.445 163.2 72.5 L 163.2 78.5 C 163.2 78.555 163.15499999999997 78.60000000000002 163.10000000000002 78.60000000000002 L 160.2 78.60000000000002 L 160.2 84.39999999999998 L 163.10000000000002 84.39999999999998 C 163.15499999999997 84.39999999999998 163.2 84.445 163.2 84.5 L 163.2 90.5 C 163.2 90.555 163.15499999999997 90.60000000000002 163.10000000000002 90.60000000000002 L 160.2 90.60000000000002 L 160.2 96.39999999999998 L 163.10000000000002 96.39999999999998 C 163.15499999999997 96.39999999999998 163.2 96.445 163.2 96.5 L 163.2 103.5 L 163.2 106.5 C 163.2 106.555 163.15499999999997 106.60000000000002 163.10000000000002 106.60000000000002 L 160.10000000000002 106.60000000000002 L 152.10000000000002 106.60000000000002 C 152.04500000000002 106.60000000000002 152.0 106.555 152.0 106.5 L 152.0 103.60000000000002 L 146.2 103.60000000000002 L 146.2 106.5 C 146.2 106.555 146.15499999999997 106.60000000000002 146.10000000000002 106.60000000000002 L 140.10000000000002 106.60000000000002 C 140.04500000000002 106.60000000000002 140.0 106.555 140.0 106.5 L 140.0 103.60000000000002 L 134.2 103.60000000000002 L 134.2 106.5 C 134.2 106.555 134.15499999999997 106.60000000000002 134.10000000000002 106.60000000000002 L 128.10000000000002 106.60000000000002 C 128.04500000000002 106.60000000000002 128.0 106.555 128.0 106.5 L 128.0 103.60000000000002 L 122.19999999999999 103.60000000000002 L 122.19999999999999 106.5 C 122.19999999999999 106.555 122.15499999999997 106.60000000000002 122.10000000000002 106.60000000000002 L 116.10000000000002 106.60000000000002 C 116.04500000000002 106.60000000000002 116.0 106.555 116.0 106.5 L 116.0 103.60000000000002 L 110.19999999999999 103.60000000000002 L 110.19999999999999 106.5 C 110.19999999999999 106.555 110.15499999999997 106.60000000000002 110.10000000000002 106.60000000000002 L 104.10000000000002 106.60000000000002 C 104.04500000000002 106.60000000000002 104.0 106.555 104.0 106.5 L 104.0 103.60000000000002 L 98.19999999999999 103.60000000000002 L 98.19999999999999 106.5 C 98.19999999999999 106.555 98.15499999999997 106.60000000000002 98.10000000000002 106.60000000000002 L 92.1 106.60000000000002 C 92.04499999999999 106.60000000000002 92.0 106.555 92.0 106.5 L 92.0 103.60000000000002 L 86.19999999999999 103.60000000000002 L 86.19999999999999 106.5 C 86.19999999999999 106.555 86.155 106.60000000000002 86.1 106.60000000000002 L 80.1 106.60000000000002 C 80.04499999999999 106.60000000000002 80.0 106.555 80.0 106.5 L 80.0 103.60000000000002 L 74.19999999999999 103.60000000000002 L 74.19999999999999 106.5 C 74.19999999999999 106.555 74.155 106.60000000000002 74.1 106.60000000000002 L 68.1 106.60000000000002 C 68.04499999999999 106.60000000000002 68.0 106.555 68.0 106.5 L 68.0 103.60000000000002 L 62.19999999999999 103.60000000000002 L 62.19999999999999 106.5 C 62.19999999999999 106.555 62.155 106.60000000000002 62.099999999999994 106.60000000000002 L 56.099999999999994 106.60000000000002 C 56.04499999999999 106.60000000000002 56.0 106.555 56.0 106.5 L 56.0 103.60000000000002 L 50.19999999999999 103.60000000000002 L 50.19999999999999 106.5 C 50.19999999999999 106.555 50.155 106.60000000000002 50.099999999999994 106.60000000000002 L 44.099999999999994 106.60000000000002 C 44.04499999999999 106.60000000000002 44.0 106.555 44.0 106.5 L 44.0 103.60000000000002 L 38.19999999999999 103.60000000000002 L 38.19999999999999 106.5 C 38.19999999999999 106.555 38.155 106.60000000000002 38.099999999999994 106.60000000000002 L 32.099999999999994 106.60000000000002 C 32.04499999999999 106.60000000000002 32.0 106.555 32.0 106.5 L 32.0 103.60000000000002 L 26.19999999999999 103.60000000000002 L 26.19999999999999 106.5 C 26.19999999999999 106.555 26.155 106.60000000000002 26.099999999999994 106.60000000000002 L 20.099999999999994 106.60000000000002 C 20.044999999999987 106.60000000000002 20.0 106.555 20.0 106.5 L 20.0 103.60000000000002 L 14.199999999999989 103.60000000000002 L 14.199999999999989 106.5 C 14.199999999999989 106.555 14.155000000000001 106.60000000000002 14.099999999999994 106.60000000000002 L 8.099999999999994 106.60000000000002 C 8.044999999999987 106.60000000000002 8.0 106.555 8.0 106.5 L 8.0 103.60000000000002 L 2.1999999999999886 103.60000000000002 L 2.1999999999999886 106.5 C 2.1999999999999886 106.555 2.155000000000001 106.60000000000002 2.0999999999999943 106.60000000000002 L -3.9000000000000057 106.60000000000002 C -3.9550000000000125 106.60000000000002 -4.0 106.555 -4.0 106.5 L -4.0 103.60000000000002 L -9.800000000000011 103.60000000000002 L -9.800000000000011 106.5 C -9.800000000000011 106.555 -9.844999999999999 106.60000000000002 -9.900000000000006 106.60000000000002 L -15.900000000000006 106.60000000000002 C -15.955000000000013 106.60000000000002 -16.0 106.555 -16.0 106.5 L -16.0 103.60000000000002 L -21.80000000000001 103.60000000000002 L -21.80000000000001 106.5 C -21.80000000000001 106.555 -21.845 106.60000000000002 -21.900000000000006 106.60000000000002 L -27.900000000000006 106.60000000000002 C -27.955000000000013 106.60000000000002 -28.0 106.555 -28.0 106.5 L -28.0 103.60000000000002 L -33.80000000000001 103.60000000000002 L -33.80000000000001 106.5 C -33.80000000000001 106.555 -33.845 106.60000000000002 -33.900000000000006 106.60000000000002 L -39.900000000000006 106.60000000000002 C -39.955 106.60000000000002 -40.0 106.555 -40.0 106.5 L -40.0 103.60000000000002 L -45.8 103.60000000000002 L -45.8 106.5 C -45.8 106.555 -45.845 106.60000000000002 -45.900000000000006 106.60000000000002 L -51.900000000000006 106.60000000000002 C -51.955 106.60000000000002 -52.0 106.555 -52.0 106.5 L -52.0 103.60000000000002 L -57.8 103.60000000000002 L -57.8 106.5 C -57.8 106.555 -57.845 106.60000000000002 -57.900000000000006 106.60000000000002 L -63.900000000000006 106.60000000000002 C -63.955 106.60000000000002 -64.0 106.555 -64.0 106.5 L -64.0 103.60000000000002 L -69.8 103.60000000000002 L -69.8 106.5 C -69.8 106.555 -69.845 106.60000000000002 -69.9 106.60000000000002 L -75.9 106.60000000000002 C -75.955 106.60000000000002 -76.0 106.555 -76.0 106.5 L -76.0 103.60000000000002 L -81.8 103.60000000000002 L -81.8 106.5 C -81.8 106.555 -81.845 106.60000000000002 -81.9 106.60000000000002 L -87.9 106.60000000000002 C -87.955 106.60000000000002 -88.0 106.555 -88.0 106.5 L -88.0 103.60000000000002 L -93.8 103.60000000000002 L -93.8 106.5 C -93.8 106.555 -93.845 106.60000000000002 -93.9 106.60000000000002 L -99.9 106.60000000000002 C -99.955 106.60000000000002 -100.0 106.555 -100.0 106.5 L -100.0 103.60000000000002 L -105.8 103.60000000000002 L -105.8 106.5 C -105.8 106.555 -105.845 106.60000000000002 -105.9 106.60000000000002 L -111.9 106.60000000000002 C -111.955 106.60000000000002 -112.0 106.555 -112.0 106.5 L -112.0 103.60000000000002 L -117.8 103.60000000000002 L -117.8 106.5 C -117.8 106.555 -117.845 106.60000000000002 -117.9 106.60000000000002 L -123.9 106.60000000000002 C -123.955 106.60000000000002 -124.0 106.555 -124.0 106.5 L -124.0 103.60000000000002 L -129.8 103.60000000000002 L -129.8 106.5 C -129.8 106.555 -129.845 106.60000000000002 -129.9 106.60000000000002 L -135.9 106.60000000000002 C -135.95499999999998 106.60000000000002 -136.0 106.555 -136.0 106.5 L -136.0 103.60000000000002 L -141.8 103.60000000000002 L -141.8 106.5 C -141.8 106.555 -141.845 106.60000000000002 -141.9 106.60000000000002 L -149.9 106.60000000000002 L -152.9 106.60000000000002 C -152.955 106.60000000000002 -153.0 106.555 -153.0 106.5 L -153.0 103.5 L -153.0 96.5 C -153.0 96.445 -152.955 96.39999999999998 -152.9 96.39999999999998 L -150.0 96.39999999999998 L -150.0 90.60000000000002 L -152.9 90.60000000000002 C -152.955 90.60000000000002 -153.0 90.555 -153.0 90.5 L -153.0 84.5 C -153.0 84.445 -152.955 84.39999999999998 -152.9 84.39999999999998 L -150.0 84.39999999999998 L -150.0 78.60000000000002 L -152.9 78.60000000000002 C -152.955 78.60000000000002 -153.0 78.555 -153.0 78.5 L -153.0 72.5 C -153.0 72.445 -152.955 72.39999999999998 -152.9 72.39999999999998 L -150.0 72.39999999999998 L -150.0 66.60000000000002 L -152.9 66.60000000000002 C -152.955 66.60000000000002 -153.0 66.555 -153.0 66.5 L -153.0 60.5 C -153.0 60.44499999999999 -152.955 60.39999999999998 -152.9 60.39999999999998 L -150.0 60.39999999999998 L -150.0 54.60000000000002 L -152.9 54.60000000000002 C -152.955 54.60000000000002 -153.0 54.55499999999995 -153.0 54.5 L -153.0 48.5 C -153.0 48.44500000000005 -152.955 48.39999999999998 -152.9 48.39999999999998 L -150.0 48.39999999999998 L -150.0 42.60000000000002 L -152.9 42.60000000000002 C -152.955 42.60000000000002 -153.0 42.55499999999995 -153.0 42.5 L -153.0 36.5 C -153.0 36.44500000000005 -152.955 36.39999999999998 -152.9 36.39999999999998 L -150.0 36.39999999999998 L -150.0 30.600000000000023 L -152.9 30.600000000000023 C -152.955 30.600000000000023 -153.0 30.55499999999995 -153.0 30.5 L -153.0 24.5 C -153.0 24.44500000000005 -152.955 24.399999999999977 -152.9 24.399999999999977 L -150.0 24.399999999999977 L -150.0 18.600000000000023 L -152.9 18.600000000000023 C -152.955 18.600000000000023 -153.0 18.55499999999995 -153.0 18.5 L -153.0 12.5 C -153.0 12.44500000000005 -152.955 12.399999999999977 -152.9 12.399999999999977 L -150.0 12.399999999999977 L -150.0 6.600000000000023 L -152.9 6.600000000000023 C -152.955 6.600000000000023 -153.0 6.55499999999995 -153.0 6.5 L -153.0 0.5 C -153.0 0.44500000000005 -152.955 0.3999999999999773 -152.9 0.3999999999999773 L -150.0 0.3999999999999773 L -150.0 -5.399999999999977 L -152.9 -5.399999999999977 C -152.955 -5.399999999999977 -153.0 -5.44500000000005 -153.0 -5.5 L -153.0 -11.5 C -153.0 -11.55499999999995 -152.955 -11.600000000000023 -152.9 -11.600000000000023 L -150.0 -11.600000000000023 L -150.0 -17.399999999999977 L -152.9 -17.399999999999977 C -152.955 -17.399999999999977 -153.0 -17.44500000000005 -153.0 -17.5 L -153.0 -23.5 C -153.0 -23.55499999999995 -152.955 -23.600000000000023 -152.9 -23.600000000000023 L -150.0 -23.600000000000023 L -150.0 -29.399999999999977 L -152.9 -29.399999999999977 C -152.955 -29.399999999999977 -153.0 -29.44500000000005 -153.0 -29.5 L -153.0 -35.5 C -153.0 -35.55499999999995 -152.955 -35.60000000000002 -152.9 -35.60000000000002 L -150.0 -35.60000000000002 L -150.0 -41.39999999999998 L -152.9 -41.39999999999998 C -152.955 -41.39999999999998 -153.0 -41.44500000000005 -153.0 -41.5 L -153.0 -47.5 C -153.0 -47.55499999999995 -152.955 -47.60000000000002 -152.9 -47.60000000000002 L -150.0 -47.60000000000002 L -150.0 -53.39999999999998 L -152.9 -53.39999999999998 C -152.955 -53.39999999999998 -153.0 -53.44500000000005 -153.0 -53.5 L -153.0 -59.5 C -153.0 -59.55499999999995 -152.955 -59.60000000000002 -152.9 -59.60000000000002 L -150.0 -59.60000000000002 L -150.0 -65.39999999999998 L -152.9 -65.39999999999998 C -152.955 -65.39999999999998 -153.0 -65.44500000000005 -153.0 -65.5 L -153.0 -71.5 C -153.0 -71.55499999999995 -152.955 -71.60000000000002 -152.9 -71.60000000000002 L -150.0 -71.60000000000002 L -150.0 -77.39999999999998 L -152.9 -77.39999999999998 C -152.955 -77.39999999999998 -153.0 -77.44500000000005 -153.0 -77.5 L -153.0 -83.5 C -153.0 -83.55499999999995 -152.955 -83.60000000000002 -152.9 -83.60000000000002 L -150.0 -83.60000000000002 L -150.0 -89.39999999999998 L -152.9 -89.39999999999998 C -152.955 -89.39999999999998 -153.0 -89.44500000000005 -153.0 -89.5 L -153.0 -96.5 L -153.0 -99.5 C -153.0 -99.55499999999995 -152.955 -99.60000000000002 -152.9 -99.60000000000002 L -149.9 -99.60000000000002 " stroke="#000000" stroke-width="0.35 px" style="stroke-width:0.35;stroke-miterlimit:4;stroke-dasharray:none;fill:none;fill-opacity:1;fill-rule: evenodd"/>
<path id="Sketch_w0001"  d="M -89.95722400000001 17.708092 L -63.967798 17.708092 L -63.967798 34.070331 L -89.95722400000001 34.070331 L -89.95722400000001 17.708092 " stroke="#000000" stroke-width="0.35 px" style="stroke-width:0.35;stroke-miterlimit:4;stroke-dasharray:none;fill:none;fill-opacity:1;fill-rule: evenodd"/>
<path id="Sketch_w0002"  d="M -88.633074 63.711619999999996 L -51.808204999999994 63.711619999999996 L -51.808204999999994 93.88656 L -88.633074 93.88656 L -88.633074 63.711619999999996 " stroke="#000000" stroke-width="0.35 px" style="stroke-width:0.35;stroke-miterlimit:4;stroke-dasharray:none;fill:none;fill-opacity:1;fill-rule: evenodd"/>
<path id="Sketch_w0003"  d="M -76.25936300000001 -17.02457771247462 L -131.66572699999998 -17.02457771247462 L -131.66572699999998 -29.02457771247462 L -76.25936300000001 -29.02457771247462 L -76.25936300000001 -17.02457771247462 " stroke="#000000" stroke-width="0.35 px" style="stroke-width:0.35;stroke-miterlimit:4;stroke-dasharray:none;fill:none;fill-opacity:1;fill-rule: evenodd"/>
<path id="Sketch_w0004"  d="M 2.345618999999999 -17.567686 L -55.759707 -17.567686 L -55.759707 -39.916942000000006 L 2.345618999999999 -39.916942000000006 L 2.345618999999999 -17.567686 " stroke="#000000" stroke-width="0.35 px" style="stroke-width:0.35;stroke-miterlimit:4;stroke-dasharray:none;fill:none;fill-opacity:1;fill-rule: evenodd"/>
<circle cx="6.131727" cy="-11.517731" r="1.75" stroke="#000000" stroke-width="0.35 px" style="stroke-width:0.35;stroke-miterlimit:4;stroke-dasharray:none;fill:none"/>
<circle cx="-60.17271" cy="-11.494431" r="1.75" stroke="#000000" stroke-width="0.35 px" style="stroke-width:0.35;stroke-miterlimit:4;stroke-dasharray:none;fill:none"/>
<title>b'Sketch'</title>
</g>
</svg>