<?xml version="1.0"?>
<!DOCTYPE svg PUBLIC "-//W3C//DTD SVG 1.1//EN" "http://www.w3.org/Graphics/SVG/1.1/DTD/svg11.dtd">
<svg width="322.524mm" height="212.524mm" viewBox="0 0 322.524 212.524" xmlns="http://www.w3.org/2000/svg" version="1.1">
<g id="Sketch004" transform="translate(156.162000,101.462000) scale(1,-1)">
<path id="Sketch004_w0000"  d="M -149.9 -107.89999999999998 L -141.9 -107.89999999999998 C -141.845 -107.89999999999998 -141.8 -107.85500000000002 -141.8 -107.80000000000001 L -141.8 -104.89999999999998 L -136.0 -104.89999999999998 L -136.0 -107.80000000000001 C -136.0 -107.85500000000002 -135.95499999999998 -107.89999999999998 -135.9 -107.89999999999998 L -129.9 -107.89999999999998 C -129.845 -107.89999999999998 -129.8 -107.85500000000002 -129.8 -107.80000000000001 L -129.8 -104.89999999999998 L -124.0 -104.89999999999998 L -124.0 -107.80000000000001 C -124.0 -107.85500000000002 -123.955 -107.89999999999998 -123.9 -107.89999999999998 L -117.9 -107.89999999999998 C -117.845 -107.89999999999998 -117.8 -107.85500000000002 -117.8 -107.80000000000001 L -117.8 -104.89999999999998 L -112.0 -104.89999999999998 L -112.0 -107.80000000000001 C -112.0 -107.85500000000002 -111.955 -107.89999999999998 -111.9 -107.89999999999998 L -105.9 -107.89999999999998 C -105.845 -107.89999999999998 -105.8 -107.85500000000002 -105.8 -107.80000000000001 L -105.8 -104.89999999999998 L -100.0 -104.89999999999998 L -100.0 -107.80000000000001 C -100.0 -107.85500000000002 -99.955 -107.89999999999998 -99.9 -107.89999999999998 L -93.9 -107.89999999999998 C -93.845 -107.89999999999998 -93.8 -107.85500000000002 -93.8 -107.80000000000001 L -93.8 -104.89999999999998 L -88.0 -104.89999999999998 L -88.0 -107.80000000000001 C -88.0 -107.85500000000002 -87.955 -107.89999999999998 -87.9 -107.89999999999998 L -81.9 -107.89999999999998 C -81.845 -107.89999999999998 -81.8 -107.85500000000002 -81.8 -107.80000000000001 L -81.8 -104.89999999999998 L -76.0 -104.89999999999998 L -76.0 -107.80000000000001 C -76.0 -107.85500000000002 -75.955 -107.89999999999998 -75.9 -107.89999999999998 L -69.9 -107.89999999999998 C -69.845 -107.89999999999998 -69.8 -107.85500000000002 -69.8 -107.80000000000001 L -69.8 -104.89999999999998 L -64.0 -104.89999999999998 L -64.0 -107.80000000000001 C -64.0 -107.85500000000002 -63.955 -107.89999999999998 -63.900000000000006 -107.89999999999998 L -57.900000000000006 -107.89999999999998 C -57.845 -107.89999999999998 -57.8 -107.85500000000002 -57.8 -107.80000000000001 L -57.8 -104.89999999999998 L -52.0 -104.89999999999998 L -52.0 -107.80000000000001 C -52.0 -107.85500000000002 -51.955 -107.89999999999998 -51.900000000000006 -107.89999999999998 L -45.900000000000006 -107.89999999999998 C -45.845 -107.89999999999998 -45.8 -107.85500000000002 -45.8 -107.80000000000001 L -45.8 -104.89999999999998 L -40.0 -104.89999999999998 L -40.0 -107.80000000000001 C -40.0 -107.85500000000002 -39.955 -107.89999999999998 -39.900000000000006 -107.89999999999998 L -33.900000000000006 -107.89999999999998 C -33.845 -107.89999999999998 -33.80000000000001 -107.85500000000002 -33.80000000000001 -107.80000000000001 L -33.80000000000001 -104.89999999999998 L -28.0 -104.89999999999998 L -28.0 -107.80000000000001 C -28.0 -107.85500000000002 -27.955000000000013 -107.89999999999998 -27.900000000000006 -107.89999999999998 L -21.900000000000006 -107.89999999999998 C -21.845 -107.89999999999998 -21.80000000000001 -107.85500000000002 -21.80000000000001 -107.80000000000001 L -21.80000000000001 -104.89999999999998 L -16.0 -104.89999999999998 L -16.0 -107.80000000000001 C -16.0 -107.85500000000002 -15.955000000000013 -107.89999999999998 -15.900000000000006 -107.89999999999998 L -9.900000000000006 -107.89999999999998 C -9.844999999999999 -107.89999999999998 -9.800000000000011 -107.85500000000002 -9.800000000000011 -107.80000000000001 L -9.800000000000011 -104.89999999999998 L -4.0 -104.89999999999998 L -4.0 -107.80000000000001 C -4.0 -107.85500000000002 -3.9550000000000125 -107.89999999999998 -3.9000000000000057 -107.89999999999998 L 2.0999999999999943 -107.89999999999998 C 2.155000000000001 -107.89999999999998 2.1999999999999886 -107.85500000000002 2.1999999999999886 -107.80000000000001 L 2.1999999999999886 -104.89999999999998 L 8.0 -104.89999999999998 L 8.0 -107.80000000000001 C 8.0 -107.85500000000002 8.044999999999987 -107.89999999999998 8.099999999999994 -107.89999999999998 L 14.099999999999994 -107.89999999999998 C 14.155000000000001 -107.89999999999998 14.199999999999989 -107.85500000000002 14.199999999999989 -107.80000000000001 L 14.199999999999989 -104.89999999999998 L 20.0 -104.89999999999998 L 20.0 -107.80000000000001 C 20.0 -107.85500000000002 20.044999999999987 -107.89999999999998 20.099999999999994 -107.89999999999998 L 26.099999999999994 -107.89999999999998 C 26.155 -107.89999999999998 26.19999999999999 -107.85500000000002 26.19999999999999 -107.80000000000001 L 26.19999999999999 -104.89999999999998 L 32.0 -104.89999999999998 L 32.0 -107.80000000000001 C 32.0 -107.85500000000002 32.04499999999999 -107.89999999999998 32.099999999999994 -107.89999999999998 L 38.099999999999994 -107.89999999999998 C 38.155 -107.89999999999998 38.19999999999999 -107.85500000000002 38.19999999999999 -107.80000000000001 L 38.19999999999999 -104.89999999999998 L 44.0 -104.89999999999998 L 44.0 -107.80000000000001 C 44.0 -107.85500000000002 44.04499999999999 -107.89999999999998 44.099999999999994 -107.89999999999998 L 50.099999999999994 -107.89999999999998 C 50.155 -107.89999999999998 50.19999999999999 -107.85500000000002 50.19999999999999 -107.80000000000001 L 50.19999999999999 -104.89999999999998 L 56.0 -104.89999999999998 L 56.0 -107.80000000000001 C 56.0 -107.85500000000002 56.04499999999999 -107.89999999999998 56.099999999999994 -107.89999999999998 L 62.099999999999994 -107.89999999999998 C 62.155 -107.89999999999998 62.19999999999999 -107.85500000000002 62.19999999999999 -107.80000000000001 L 62.19999999999999 -104.89999999999998 L 68.0 -104.89999999999998 L 68.0 -107.80000000000001 C 68.0 -107.85500000000002 68.04499999999999 -107.89999999999998 68.1 -107.89999999999998 L 74.1 -107.89999999999998 C 74.155 -107.89999999999998 74.19999999999999 -107.85500000000002 74.19999999999999 -107.80000000000001 L 74.19999999999999 -104.89999999999998 L 80.0 -104.89999999999998 L 80.0 -107.80000000000001 C 80.0 -107.85500000000002 80.04499999999999 -107.89999999999998 80.1 -107.89999999999998 L 86.1 -107.89999999999998 C 86.155 -107.89999999999998 86.19999999999999 -107.85500000000002 86.19999999999999 -107.80000000000001 L 86.19999999999999 -104.89999999999998 L 92.0 -104.89999999999998 L 92.0 -107.80000000000001 C 92.0 -107.85500000000002 92.04499999999999 -107.89999999999998 92.1 -107.89999999999998 L 98.10000000000002 -107.89999999999998 C 98.15499999999997 -107.89999999999998 98.19999999999999 -107.85500000000002 98.19999999999999 -107.80000000000001 L 98.19999999999999 -104.89999999999998 L 104.0 -104.89999999999998 L 104.0 -107.80000000000001 C 104.0 -107.85500000000002 104.04500000000002 -107.89999999999998 104.10000000000002 -107.89999999999998 L 110.10000000000002 -107.89999999999998 C 110.15499999999997 -107.89999999999998 110.19999999999999 -107.85500000000002 110.19999999999999 -107.80000000000001 L 110.19999999999999 -104.89999999999998 L 116.0 -104.89999999999998 L 116.0 -107.80000000000001 C 116.0 -107.85500000000002 116.04500000000002 -107.89999999999998 116.10000000000002 -107.89999999999998 L 122.10000000000002 -107.89999999999998 C 122.15499999999997 -107.89999999999998 122.19999999999999 -107.85500000000002 122.19999999999999 -107.80000000000001 L 122.19999999999999 -104.89999999999998 L 128.0 -104.89999999999998 L 128.0 -107.80000000000001 C 128.0 -107.85500000000002 128.04500000000002 -107.89999999999998 128.10000000000002 -107.89999999999998 L 134.10000000000002 -107.89999999999998 C 134.15499999999997 -107.89999999999998 134.2 -107.85500000000002 134.2 -107.80000000000001 L 134.2 -104.89999999999998 L 140.0 -104.89999999999998 L 140.0 -107.80000000000001 C 140.0 -107.85500000000002 140.04500000000002 -107.89999999999998 140.10000000000002 -107.89999999999998 L 146.10000000000002 -107.89999999999998 C 146.15499999999997 -107.89999999999998 146.2 -107.85500000000002 146.2 -107.80000000000001 L 146.2 -104.89999999999998 L 152.0 -104.89999999999998 L 152.0 -107.80000000000001 C 152.0 -107.85500000000002 152.04500000000002 -107.89999999999998 152.10000000000002 -107.89999999999998 L 160.10000000000002 -107.89999999999998 L 163.10000000000002 -107.89999999999998 C 163.15499999999997 -107.89999999999998 163.2 -107.85500000000002 163.2 -107.80000000000001 L 163.2 -104.80000000000001 L 163.2 -97.80000000000001 C 163.2 -97.745 163.15499999999997 -97.69999999999999 163.10000000000002 -97.69999999999999 L 160.2 -97.69999999999999 L 160.2 -91.89999999999998 L 163.10000000000002 -91.89999999999998 C 163.15499999999997 -91.89999999999998 163.2 -91.85500000000002 163.2 -91.80000000000001 L 163.2 -85.80000000000001 C 163.2 -85.745 163.15499999999997 -85.69999999999999 163.10000000000002 -85.69999999999999 L 160.2 -85.69999999999999 L 160.2 -79.89999999999998 L 163.10000000000002 -79.89999999999998 C 163.15499999999997 -79.89999999999998 163.2 -79.85500000000002 163.2 -79.80000000000001 L 163.2 -73.80000000000001 C 163.2 -73.745 163.15499999999997 -73.69999999999999 163.10000000000002 -73.69999999999999 L 160.2 -73.69999999999999 L 160.2 -67.89999999999998 L 163.10000000000002 -67.89999999999998 C 163.15499999999997 -67.89999999999998 163.2 -67.85500000000002 163.2 -67.80000000000001 L 163.2 -61.80000000000001 C 163.2 -61.745000000000005 163.15499999999997 -61.69999999999999 163.10000000000002 -61.69999999999999 L 160.2 -61.69999999999999 L 160.2 -55.89999999999998 L 163.10000000000002 -55.89999999999998 C 163.15499999999997 -55.89999999999998 163.2 -55.85500000000002 163.2 -55.80000000000001 L 163.2 -49.80000000000001 C 163.2 -49.745000000000005 163.15499999999997 -49.69999999999999 163.10000000000002 -49.69999999999999 L 160.2 -49.69999999999999 L 160.2 -43.89999999999998 L 163.10000000000002 -43.89999999999998 C 163.15499999999997 -43.89999999999998 163.2 -43.85500000000002 163.2 -43.80000000000001 L 163.2 -37.80000000000001 C 163.2 -37.745000000000005 163.15499999999997 -37.69999999999999 163.10000000000002 -37.69999999999999 L 160.2 -37.69999999999999 L 160.2 -31.899999999999977 L 163.10000000000002 -31.899999999999977 C 163.15499999999997 -31.899999999999977 163.2 -31.855000000000018 163.2 -31.80000000000001 L 163.2 -25.80000000000001 C 163.2 -25.745000000000005 163.15499999999997 -25.69999999999999 163.10000000000002 -25.69999999999999 L 160.2 -25.69999999999999 L 160.2 -19.899999999999977 L 163.10000000000002 -19.899999999999977 C 163.15499999999997 -19.899999999999977 163.2 -19.855000000000018 163.2 -19.80000000000001 L 163.2 -13.800000000000011 C 163.2 -13.745000000000005 163.15499999999997 -13.699999999999989 163.10000000000002 -13.699999999999989 L 160.2 -13.699999999999989 L 160.2 -7.899999999999977 L 163.10000000000002 -7.899999999999977 C 163.15499999999997 -7.899999999999977 163.2 -7.855000000000018 163.2 -7.800000000000011 L 163.2 -1.8000000000000114 C 163.2 -1.7450000000000045 163.15499999999997 -1.6999999999999886 163.10000000000002 -1.6999999999999886 L 160.2 -1.6999999999999886 L 160.2 4.100000000000023 L 163.10000000000002 4.100000000000023 C 163.15499999999997 4.100000000000023 163.2 4.144999999999982 163.2 4.199999999999989 L 163.2 10.199999999999989 C 163.2 10.254999999999995 163.15499999999997 10.300000000000011 163.10000000000002 10.300000000000011 L 160.2 10.300000000000011 L 160.2 16.100000000000023 L 163.10000000000002 16.100000000000023 C 163.15499999999997 16.100000000000023 163.2 16.144999999999982 163.2 16.19999999999999 L 163.2 22.19999999999999 C 163.2 22.254999999999995 163.15499999999997 22.30000000000001 163.10000000000002 22.30000000000001 L 160.2 22.30000000000001 L 160.2 28.100000000000023 L 163.10000000000002 28.100000000000023 C 163.15499999999997 28.100000000000023 163.2 28.144999999999982 163.2 28.19999999999999 L 163.2 34.19999999999999 C 163.2 34.254999999999995 163.15499999999997 34.30000000000001 163.10000000000002 34.30000000000001 L 160.2 34.30000000000001 L 160.2 40.10000000000002 L 163.10000000000002 40.10000000000002 C 163.15499999999997 40.10000000000002 163.2 40.14499999999998 163.2 40.19999999999999 L 163.2 46.19999999999999 C 163.2 46.254999999999995 163.15499999999997 46.30000000000001 163.10000000000002 46.30000000000001 L 160.2 46.30000000000001 L 160.2 52.10000000000002 L 163.10000000000002 52.10000000000002 C 163.15499999999997 52.10000000000002 163.2 52.14499999999998 163.2 52.19999999999999 L 163.2 58.19999999999999 C 163.2 58.254999999999995 163.15499999999997 58.30000000000001 163.10000000000002 58.30000000000001 L 160.2 58.30000000000001 L 160.2 64.10000000000002 L 163.10000000000002 64.10000000000002 C 163.15499999999997 64.10000000000002 163.2 64.14499999999998 163.2 64.19999999999999 L 163.2 70.19999999999999 C 163.2 70.255 163.15499999999997 70.30000000000001 163.10000000000002 70.30000000000001 L 160.2 70.30000000000001 L 160.2 76.10000000000002 L 163.10000000000002 76.10000000000002 C 163.15499999999997 76.10000000000002 163.2 76.14499999999998 163.2 76.19999999999999 L 163.2 82.19999999999999 C 163.2 82.255 163.15499999999997 82.30000000000001 163.10000000000002 82.30000000000001 L 160.2 82.30000000000001 L 160.2 88.10000000000002 L 163.10000000000002 88.10000000000002 C 163.15499999999997 88.10000000000002 163.2 88.14499999999998 163.2 88.19999999999999 L 163.2 95.19999999999999 L 163.2 98.19999999999999 C 163.2 98.255 163.15499999999997 98.30000000000001 163.10000000000002 98.30000000000001 L 160.10000000000002 98.30000000000001 L 152.10000000000002 98.30000000000001 C 152.04500000000002 98.30000000000001 152.0 98.255 152.0 98.19999999999999 L 152.0 95.30000000000001 L 146.2 95.30000000000001 L 146.2 98.19999999999999 C 146.2 98.255 146.15499999999997 98.30000000000001 146.10000000000002 98.30000000000001 L 140.10000000000002 98.30000000000001 C 140.04500000000002 98.30000000000001 140.0 98.255 140.0 98.19999999999999 L 140.0 95.30000000000001 L 134.2 95.30000000000001 L 134.2 98.19999999999999 C 134.2 98.255 134.15499999999997 98.30000000000001 134.10000000000002 98.30000000000001 L 128.10000000000002 98.30000000000001 C 128.04500000000002 98.30000000000001 128.0 98.255 128.0 98.19999999999999 L 128.0 95.30000000000001 L 122.19999999999999 95.30000000000001 L 122.19999999999999 98.19999999999999 C 122.19999999999999 98.255 122.15499999999997 98.30000000000001 122.10000000000002 98.30000000000001 L 116.10000000000002 98.30000000000001 C 116.04500000000002 98.30000000000001 116.0 98.255 116.0 98.19999999999999 L 116.0 95.30000000000001 L 110.19999999999999 95.30000000000001 L 110.19999999999999 98.19999999999999 C 110.19999999999999 98.255 110.15499999999997 98.30000000000001 110.10000000000002 98.30000000000001 L 104.10000000000002 98.30000000000001 C 104.04500000000002 98.30000000000001 104.0 98.255 104.0 98.19999999999999 L 104.0 95.30000000000001 L 98.19999999999999 95.30000000000001 L 98.19999999999999 98.19999999999999 C 98.19999999999999 98.255 98.15499999999997 98.30000000000001 98.10000000000002 98.30000000000001 L 92.1 98.30000000000001 C 92.04499999999999 98.30000000000001 92.0 98.255 92.0 98.19999999999999 L 92.0 95.30000000000001 L 86.19999999999999 95.30000000000001 L 86.19999999999999 98.19999999999999 C 86.19999999999999 98.255 86.155 98.30000000000001 86.1 98.30000000000001 L 80.1 98.30000000000001 C 80.04499999999999 98.30000000000001 80.0 98.255 80.0 98.19999999999999 L 80.0 95.30000000000001 L 74.19999999999999 95.30000000000001 L 74.19999999999999 98.19999999999999 C 74.19999999999999 98.255 74.155 98.30000000000001 74.1 98.30000000000001 L 68.1 98.30000000000001 C 68.04499999999999 98.30000000000001 68.0 98.255 68.0 98.19999999999999 L 68.0 95.30000000000001 L 62.19999999999999 95.30000000000001 L 62.19999999999999 98.19999999999999 C 62.19999999999999 98.255 62.155 98.30000000000001 62.099999999999994 98.30000000000001 L 56.099999999999994 98.30000000000001 C 56.04499999999999 98.30000000000001 56.0 98.255 56.0 98.19999999999999 L 56.0 95.30000000000001 L 50.19999999999999 95.30000000000001 L 50.19999999999999 98.19999999999999 C 50.19999999999999 98.255 50.155 98.30000000000001 50.099999999999994 98.30000000000001 L 44.099999999999994 98.30000000000001 C 44.04499999999999 98.30000000000001 44.0 98.255 44.0 98.19999999999999 L 44.0 95.30000000000001 L 38.19999999999999 95.30000000000001 L 38.19999999999999 98.19999999999999 C 38.19999999999999 98.255 38.155 98.30000000000001 38.099999999999994 98.30000000000001 L 32.099999999999994 98.30000000000001 C 32.04499999999999 98.30000000000001 32.0 98.255 32.0 98.19999999999999 L 32.0 95.30000000000001 L 26.19999999999999 95.30000000000001 L 26.19999999999999 98.19999999999999 C 26.19999999999999 98.255 26.155 98.30000000000001 26.099999999999994 98.30000000000001 L 20.099999999999994 98.30000000000001 C 20.044999999999987 98.30000000000001 20.0 98.255 20.0 98.19999999999999 L 20.0 95.30000000000001 L 14.199999999999989 95.30000000000001 L 14.199999999999989 98.19999999999999 C 14.199999999999989 98.255 14.155000000000001 98.30000000000001 14.099999999999994 98.30000000000001 L 8.099999999999994 98.30000000000001 C 8.044999999999987 98.30000000000001 8.0 98.255 8.0 98.19999999999999 L 8.0 95.30000000000001 L 2.1999999999999886 95.30000000000001 L 2.1999999999999886 98.19999999999999 C 2.1999999999999886 98.255 2.155000000000001 98.30000000000001 2.0999999999999943 98.30000000000001 L -3.9000000000000057 98.30000000000001 C -3.9550000000000125 98.30000000000001 -4.0 98.255 -4.0 98.19999999999999 L -4.0 95.30000000000001 L -9.800000000000011 95.30000000000001 L -9.800000000000011 98.19999999999999 C -9.800000000000011 98.255 -9.844999999999999 98.30000000000001 -9.900000000000006 98.30000000000001 L -15.900000000000006 98.30000000000001 C -15.955000000000013 98.30000000000001 -16.0 98.255 -16.0 98.19999999999999 L -16.0 95.30000000000001 L -21.80000000000001 95.30000000000001 L -21.80000000000001 98.19999999999999 C -21.80000000000001 98.255 -21.845 98.30000000000001 -21.900000000000006 98.30000000000001 L -27.900000000000006 98.30000000000001 C -27.955000000000013 98.30000000000001 -28.0 98.255 -28.0 98.19999999999999 L -28.0 95.30000000000001 L -33.80000000000001 95.30000000000001 L -33.80000000000001 98.19999999999999 C -33.80000000000001 98.255 -33.845 98.30000000000001 -33.900000000000006 98.30000000000001 L -39.900000000000006 98.30000000000001 C -39.955 98.30000000000001 -40.0 98.255 -40.0 98.19999999999999 L -40.0 95.30000000000001 L -45.8 95.30000000000001 L -45.8 98.19999999999999 C -45.8 98.255 -45.845 98.30000000000001 -45.900000000000006 98.30000000000001 L -51.900000000000006 98.30000000000001 C -51.955 98.30000000000001 -52.0 98.255 -52.0 98.19999999999999 L -52.0 95.30000000000001 L -57.8 95.30000000000001 L -57.8 98.19999999999999 C -57.8 98.255 -57.845 98.30000000000001 -57.900000000000006 98.30000000000001 L -63.900000000000006 98.30000000000001 C -63.955 98.30000000000001 -64.0 98.255 -64.0 98.19999999999999 L -64.0 95.30000000000001 L -69.8 95.30000000000001 L -69.8 98.19999999999999 C -69.8 98.255 -69.845 98.30000000000001 -69.9 98.30000000000001 L -75.9 98.30000000000001 C -75.955 98.30000000000001 -76.0 98.255 -76.0 98.19999999999999 L -76.0 95.30000000000001 L -81.8 95.30000000000001 L -81.8 98.19999999999999 C -81.8 98.255 -81.845 98.30000000000001 -81.9 98.30000000000001 L -87.9 98.30000000000001 C -87.955 98.30000000000001 -88.0 98.255 -88.0 98.19999999999999 L -88.0 95.30000000000001 L -93.8 95.30000000000001 L -93.8 98.19999999999999 C -93.8 98.255 -93.845 98.30000000000001 -93.9 98.30000000000001 L -99.9 98.30000000000001 C -99.955 98.30000000000001 -100.0 98.255 -100.0 98.19999999999999 L -100.0 95.30000000000001 L -105.8 95.30000000000001 L -105.8 98.19999999999999 C -105.8 98.255 -105.845 98.30000000000001 -105.9 98.30000000000001 L -111.9 98.30000000000001 C -111.955 98.30000000000001 -112.0 98.255 -112.0 98.19999999999999 L -112.0 95.30000000000001 L -117.8 95.30000000000001 L -117.8 98.19999999999999 C -117.8 98.255 -117.845 98.30000000000001 -117.9 98.30000000000001 L -123.9 98.30000000000001 C -123.955 98.30000000000001 -124.0 98.255 -124.0 98.19999999999999 L -124.0 95.30000000000001 L -129.8 95.30000000000001 L -129.8 98.19999999999999 C -129.8 98.255 -129.845 98.30000000000001 -129.9 98.30000000000001 L -135.9 98.30000000000001 C -135.95499999999998 98.30000000000001 -136.0 98.255 -136.0 98.19999999999999 L -136.0 95.30000000000001 L -141.8 95.30000000000001 L -141.8 98.19999999999999 C -141.8 98.255 -141.845 98.30000000000001 -141.9 98.30000000000001 L -149.9 98.30000000000001 L -152.9 98.30000000000001 C -152.955 98.30000000000001 -153.0 98.255 -153.0 98.19999999999999 L -153.0 95.19999999999999 L -153.0 88.19999999999999 C -153.0 88.14499999999998 -152.955 88.10000000000002 -152.9 88.10000000000002 L -150.0 88.10000000000002 L -150.0 82.30000000000001 L -152.9 82.30000000000001 C -152.955 82.30000000000001 -153.0 82.255 -153.0 82.19999999999999 L -153.0 76.19999999999999 C -153.0 76.14499999999998 -152.955 76.10000000000002 -152.9 76.10000000000002 L -150.0 76.10000000000002 L -150.0 70.30000000000001 L -152.9 70.30000000000001 C -152.955 70.30000000000001 -153.0 70.255 -153.0 70.19999999999999 L -153.0 64.19999999999999 C -153.0 64.14499999999998 -152.955 64.10000000000002 -152.9 64.10000000000002 L -150.0 64.10000000000002 L -150.0 58.30000000000001 L -152.9 58.30000000000001 C -152.955 58.30000000000001 -153.0 58.254999999999995 -153.0 58.19999999999999 L -153.0 52.19999999999999 C -153.0 52.14499999999998 -152.955 52.10000000000002 -152.9 52.10000000000002 L -150.0 52.10000000000002 L -150.0 46.30000000000001 L -152.9 46.30000000000001 C -152.955 46.30000000000001 -153.0 46.254999999999995 -153.0 46.19999999999999 L -153.0 40.19999999999999 C -153.0 40.14499999999998 -152.955 40.10000000000002 -152.9 40.10000000000002 L -150.0 40.10000000000002 L -150.0 34.30000000000001 L -152.9 34.30000000000001 C -152.955 34.30000000000001 -153.0 34.254999999999995 -153.0 34.19999999999999 L -153.0 28.19999999999999 C -153.0 28.144999999999982 -152.955 28.100000000000023 -152.9 28.100000000000023 L -150.0 28.100000000000023 L -150.0 22.30000000000001 L -152.9 22.30000000000001 C -152.955 22.30000000000001 -153.0 22.254999999999995 -153.0 22.19999999999999 L -153.0 16.19999999999999 C -153.0 16.144999999999982 -152.955 16.100000000000023 -152.9 16.100000000000023 L -150.0 16.100000000000023 L -150.0 10.300000000000011 L -152.9 10.300000000000011 C -152.955 10.300000000000011 -153.0 10.254999999999995 -153.0 10.199999999999989 L -153.0 4.199999999999989 C -153.0 4.144999999999982 -152.955 4.100000000000023 -152.9 4.100000000000023 L -150.0 4.100000000000023 L -150.0 -1.6999999999999886 L -152.9 -1.6999999999999886 C -152.955 -1.6999999999999886 -153.0 -1.7450000000000045 -153.0 -1.8000000000000114 L -153.0 -7.800000000000011 C -153.0 -7.855000000000018 -152.955 -7.899999999999977 -152.9 -7.899999999999977 L -150.0 -7.899999999999977 L -150.0 -13.699999999999989 L -152.9 -13.699999999999989 C -152.955 -13.699999999999989 -153.0 -13.745000000000005 -153.0 -13.800000000000011 L -153.0 -19.80000000000001 C -153.0 -19.855000000000018 -152.955 -19.899999999999977 -152.9 -19.899999999999977 L -150.0 -19.899999999999977 L -150.0 -25.69999999999999 L -152.9 -25.69999999999999 C -152.955 -25.69999999999999 -153.0 -25.745000000000005 -153.0 -25.80000000000001 L -153.0 -31.80000000000001 C -153.0 -31.855000000000018 -152.955 -31.899999999999977 -152.9 -31.899999999999977 L -150.0 -31.899999999999977 L -150.0 -37.69999999999999 L -152.9 -37.69999999999999 C -152.955 -37.69999999999999 -153.0 -37.745000000000005 -153.0 -37.80000000000001 L -153.0 -43.80000000000001 C -153.0 -43.85500000000002 -152.955 -43.89999999999998 -152.9 -43.89999999999998 L -150.0 -43.89999999999998 L -150.0 -49.69999999999999 L -152.9 -49.69999999999999 C -152.955 -49.69999999999999 -153.0 -49.745000000000005 -153.0 -49.80000000000001 L -153.0 -55.80000000000001 C -153.0 -55.85500000000002 -152.955 -55.89999999999998 -152.9 -55.89999999999998 L -150.0 -55.89999999999998 L -150.0 -61.69999999999999 L -152.9 -61.69999999999999 C -152.955 -61.69999999999999 -153.0 -61.745000000000005 -153.0 -61.80000000000001 L -153.0 -67.80000000000001 C -153.0 -67.85500000000002 -152.955 -67.89999999999998 -152.9 -67.89999999999998 L -150.0 -67.89999999999998 L -150.0 -73.69999999999999 L -152.9 -73.69999999999999 C -152.955 -73.69999999999999 -153.0 -73.745 -153.0 -73.80000000000001 L -153.0 -79.80000000000001 C -153.0 -79.85500000000002 -152.955 -79.89999999999998 -152.9 -79.89999999999998 L -150.0 -79.89999999999998 L -150.0 -85.69999999999999 L -152.9 -85.69999999999999 C -152.955 -85.69999999999999 -153.0 -85.745 -153.0 -85.80000000000001 L -153.0 -91.80000000000001 C -153.0 -91.85500000000002 -152.955 -91.89999999999998 -152.9 -91.89999999999998 L -150.0 -91.89999999999998 L -150.0 -97.69999999999999 L -152.9 -97.69999999999999 C -152.955 -97.69999999999999 -153.0 -97.745 -153.0 -97.80000000000001 L -153.0 -104.80000000000001 L -153.0 -107.80000000000001 C -153.0 -107.85500000000002 -152.955 -107.89999999999998 -152.9 -107.89999999999998 L -149.9 -107.89999999999998 " stroke="#000000" stroke-width="0.35 px" style="stroke-width:0.35;stroke-miterlimit:4;stroke-dasharray:none;fill:none;fill-opacity:1;fill-rule: evenodd"/>
<circle cx="-43.038702" cy="44.415283" r="45.0" stroke="#000000" stroke-width="0.35 px" style="stroke-width:0.35;stroke-miterlimit:4;stroke-dasharray:none;fill:none"/>
<circle cx="-44.951002" cy="-37.975555" r="16.25" stroke="#000000" stroke-width="0.35 px" style="stroke-width:0.35;stroke-miterlimit:4;stroke-dasharray:none;fill:none"/>
<circle cx="-110.837059" cy="-8.978371" r="1.65" stroke="#000000" stroke-width="0.35 px" style="stroke-width:0.35;stroke-miterlimit:4;stroke-dasharray:none;fill:none"/>
<circle cx="-110.761856" cy="-39.01577" r="1.65" stroke="#000000" stroke-width="0.35 px" style="stroke-width:0.35;stroke-miterlimit:4;stroke-dasharray:none;fill:none"/>
<circle cx="-80.74807" cy="-39.01577" r="1.65" stroke="#000000" stroke-width="0.35 px" style="stroke-width:0.35;stroke-miterlimit:4;stroke-dasharray:none;fill:none"/>
<circle cx="-80.74807" cy="-9.001984" r="1.65" stroke="#000000" stroke-width="0.35 px" style="stroke-width:0.35;stroke-miterlimit:4;stroke-dasharray:none;fill:none"/>
<circle cx="-30.013302" cy="-22.992989" r="3.15" stroke="#000000" stroke-width="0.35 px" style="stroke-width:0.35;stroke-miterlimit:4;stroke-dasharray:none;fill:none"/>
<circle cx="-59.983337" cy="-23.031776" r="3.15" stroke="#000000" stroke-width="0.35 px" style="stroke-width:0.35;stroke-miterlimit:4;stroke-dasharray:none;fill:none"/>
<circle cx="-60.00079" cy="-53.046604" r="3.15" stroke="#000000" stroke-width="0.35 px" style="stroke-width:0.35;stroke-miterlimit:4;stroke-dasharray:none;fill:none"/>
<circle cx="-29.986862" cy="-52.98719" r="3.15" stroke="#000000" stroke-width="0.35 px" style="stroke-width:0.35;stroke-miterlimit:4;stroke-dasharray:none;fill:none"/>
<circle cx="-107.682335" cy="61.988861" r="8.81152" stroke="#000000" stroke-width="0.35 px" style="stroke-width:0.35;stroke-miterlimit:4;stroke-dasharray:none;fill:none"/>
<path id="Sketch004_w0012"  d="M -101.26916976375469 -5.726230397159668 A 19.0354 19.0354 0 1 1 -90.0927 -5.77742L -90.09268838971018 -2.3231908385785682 L -101.26916976375469 -2.3231908385785682 L -101.26916976375469 -5.726230397159668 " stroke="#000000" stroke-width="0.35 px" style="stroke-width:0.35;stroke-miterlimit:4;stroke-dasharray:none;fill:none;fill-opacity:1;fill-rule: evenodd"/>
<path id="Sketch004_w0013"  d="M 108.41169 83.87233 L 149.23613 83.87233 L 149.23613 72.515167 L 108.41169 72.515167 L 108.41169 83.87233 " stroke="#000000" stroke-width="0.35 px" style="stroke-width:0.35;stroke-miterlimit:4;stroke-dasharray:none;fill:none;fill-opacity:1;fill-rule: evenodd"/>
<path id="Sketch004_w0014"  d="M 109.792953 68.678284 L 155.068176 68.678284 L 155.068176 9.283340000000003 L 109.792953 9.283340000000003 L 109.792953 68.678284 " stroke="#000000" stroke-width="0.35 px" style="stroke-width:0.35;stroke-miterlimit:4;stroke-dasharray:none;fill:none;fill-opacity:1;fill-rule: evenodd"/>
<circle cx="103.791512" cy="87.210175" r="1.75" stroke="#000000" stroke-width="0.35 px" style="stroke-width:0.35;stroke-miterlimit:4;stroke-dasharray:none;fill:none"/>
<circle cx="154.197433" cy="87.185486" r="1.75" stroke="#000000" stroke-width="0.35 px" style="stroke-width:0.35;stroke-miterlimit:4;stroke-dasharray:none;fill:none"/>
<circle cx="132.659195" cy="5.858788" r="1.75" stroke="#000000" stroke-width="0.35 px" style="stroke-width:0.35;stroke-miterlimit:4;stroke-dasharray:none;fill:none"/>
<title>b'Sketch004'</title>
</g>
</svg>