<?xml version="1.0"?>
<!DOCTYPE svg PUBLIC "-//W3C//DTD SVG 1.1//EN" "http://www.w3.org/Graphics/SVG/1.1/DTD/svg11.dtd">
<svg width="251.12399999999997mm" height="211.12400000000005mm" viewBox="0 0 251.12399999999997 211.12400000000005" xmlns="http://www.w3.org/2000/svg" version="1.1">
<g id="Sketch005" transform="translate(111.762000,105.062000) scale(1,-1)">
<path id="Sketch005_w0000"  d="M -106.19999999999999 -103.60000000000002 L -97.19999999999999 -103.60000000000002 C -97.14499999999998 -103.60000000000002 -97.10000000000002 -103.55499999999995 -97.10000000000002 -103.5 L -97.10000000000002 -100.60000000000002 L -91.30000000000001 -100.60000000000002 L -91.30000000000001 -103.5 C -91.30000000000001 -103.55499999999995 -91.255 -103.60000000000002 -91.19999999999999 -103.60000000000002 L -85.19999999999999 -103.60000000000002 C -85.14499999999998 -103.60000000000002 -85.10000000000002 -103.55499999999995 -85.10000000000002 -103.5 L -85.10000000000002 -100.60000000000002 L -79.30000000000001 -100.60000000000002 L -79.30000000000001 -103.5 C -79.30000000000001 -103.55499999999995 -79.255 -103.60000000000002 -79.19999999999999 -103.60000000000002 L -73.19999999999999 -103.60000000000002 C -73.14499999999998 -103.60000000000002 -73.10000000000002 -103.55499999999995 -73.10000000000002 -103.5 L -73.10000000000002 -100.60000000000002 L -67.30000000000001 -100.60000000000002 L -67.30000000000001 -103.5 C -67.30000000000001 -103.55499999999995 -67.255 -103.60000000000002 -67.19999999999999 -103.60000000000002 L -61.19999999999999 -103.60000000000002 C -61.14499999999998 -103.60000000000002 -61.10000000000002 -103.55499999999995 -61.10000000000002 -103.5 L -61.10000000000002 -100.60000000000002 L -55.30000000000001 -100.60000000000002 L -55.30000000000001 -103.5 C -55.30000000000001 -103.55499999999995 -55.254999999999995 -103.60000000000002 -55.19999999999999 -103.60000000000002 L -49.19999999999999 -103.60000000000002 C -49.14499999999998 -103.60000000000002 -49.10000000000002 -103.55499999999995 -49.10000000000002 -103.5 L -49.10000000000002 -100.60000000000002 L -43.30000000000001 -100.60000000000002 L -43.30000000000001 -103.5 C -43.30000000000001 -103.55499999999995 -43.254999999999995 -103.60000000000002 -43.19999999999999 -103.60000000000002 L -37.19999999999999 -103.60000000000002 C -37.14499999999998 -103.60000000000002 -37.10000000000002 -103.55499999999995 -37.10000000000002 -103.5 L -37.10000000000002 -100.60000000000002 L -31.30000000000001 -100.60000000000002 L -31.30000000000001 -103.5 C -31.30000000000001 -103.55499999999995 -31.254999999999995 -103.60000000000002 -31.19999999999999 -103.60000000000002 L -25.19999999999999 -103.60000000000002 C -25.144999999999982 -103.60000000000002 -25.100000000000023 -103.55499999999995 -25.100000000000023 -103.5 L -25.100000000000023 -100.60000000000002 L -19.30000000000001 -100.60000000000002 L -19.30000000000001 -103.5 C -19.30000000000001 -103.55499999999995 -19.254999999999995 -103.60000000000002 -19.19999999999999 -103.60000000000002 L -13.199999999999989 -103.60000000000002 C -13.144999999999982 -103.60000000000002 -13.100000000000023 -103.55499999999995 -13.100000000000023 -103.5 L -13.100000000000023 -100.60000000000002 L -7.300000000000011 -100.60000000000002 L -7.300000000000011 -103.5 C -7.300000000000011 -103.55499999999995 -7.2549999999999955 -103.60000000000002 -7.199999999999989 -103.60000000000002 L -1.1999999999999886 -103.60000000000002 C -1.1449999999999818 -103.60000000000002 -1.1000000000000227 -103.55499999999995 -1.1000000000000227 -103.5 L -1.1000000000000227 -100.60000000000002 L 4.699999999999989 -100.60000000000002 L 4.699999999999989 -103.5 C 4.699999999999989 -103.55499999999995 4.7450000000000045 -103.60000000000002 4.800000000000011 -103.60000000000002 L 10.800000000000011 -103.60000000000002 C 10.855000000000018 -103.60000000000002 10.899999999999977 -103.55499999999995 10.899999999999977 -103.5 L 10.899999999999977 -100.60000000000002 L 16.69999999999999 -100.60000000000002 L 16.69999999999999 -103.5 C 16.69999999999999 -103.55499999999995 16.745000000000005 -103.60000000000002 16.80000000000001 -103.60000000000002 L 22.80000000000001 -103.60000000000002 C 22.855000000000018 -103.60000000000002 22.899999999999977 -103.55499999999995 22.899999999999977 -103.5 L 22.899999999999977 -100.60000000000002 L 28.69999999999999 -100.60000000000002 L 28.69999999999999 -103.5 C 28.69999999999999 -103.55499999999995 28.745000000000005 -103.60000000000002 28.80000000000001 -103.60000000000002 L 34.80000000000001 -103.60000000000002 C 34.85500000000002 -103.60000000000002 34.89999999999998 -103.55499999999995 34.89999999999998 -103.5 L 34.89999999999998 -100.60000000000002 L 40.69999999999999 -100.60000000000002 L 40.69999999999999 -103.5 C 40.69999999999999 -103.55499999999995 40.745000000000005 -103.60000000000002 40.80000000000001 -103.60000000000002 L 46.80000000000001 -103.60000000000002 C 46.85500000000002 -103.60000000000002 46.89999999999998 -103.55499999999995 46.89999999999998 -103.5 L 46.89999999999998 -100.60000000000002 L 52.69999999999999 -100.60000000000002 L 52.69999999999999 -103.5 C 52.69999999999999 -103.55499999999995 52.745000000000005 -103.60000000000002 52.80000000000001 -103.60000000000002 L 58.80000000000001 -103.60000000000002 C 58.85500000000002 -103.60000000000002 58.89999999999998 -103.55499999999995 58.89999999999998 -103.5 L 58.89999999999998 -100.60000000000002 L 64.69999999999999 -100.60000000000002 L 64.69999999999999 -103.5 C 64.69999999999999 -103.55499999999995 64.745 -103.60000000000002 64.80000000000001 -103.60000000000002 L 70.80000000000001 -103.60000000000002 C 70.85500000000002 -103.60000000000002 70.89999999999998 -103.55499999999995 70.89999999999998 -103.5 L 70.89999999999998 -100.60000000000002 L 76.70000000000005 -100.60000000000002 L 76.70000000000005 -103.5 C 76.70000000000005 -103.55499999999995 76.745 -103.60000000000002 76.79999999999995 -103.60000000000002 L 82.79999999999995 -103.60000000000002 C 82.85500000000002 -103.60000000000002 82.89999999999998 -103.55499999999995 82.89999999999998 -103.5 L 82.89999999999998 -100.60000000000002 L 88.70000000000005 -100.60000000000002 L 88.70000000000005 -103.5 C 88.70000000000005 -103.55499999999995 88.745 -103.60000000000002 88.79999999999995 -103.60000000000002 L 94.79999999999995 -103.60000000000002 C 94.85500000000002 -103.60000000000002 94.89999999999998 -103.55499999999995 94.89999999999998 -103.5 L 94.89999999999998 -100.60000000000002 L 100.70000000000005 -100.60000000000002 L 100.70000000000005 -103.5 C 100.70000000000005 -103.55499999999995 100.745 -103.60000000000002 100.79999999999995 -103.60000000000002 L 106.79999999999995 -103.60000000000002 C 106.85500000000002 -103.60000000000002 106.89999999999998 -103.55499999999995 106.89999999999998 -103.5 L 106.89999999999998 -100.60000000000002 L 112.70000000000005 -100.60000000000002 L 112.70000000000005 -103.5 C 112.70000000000005 -103.55499999999995 112.745 -103.60000000000002 112.79999999999995 -103.60000000000002 L 118.79999999999995 -103.60000000000002 C 118.85500000000002 -103.60000000000002 118.89999999999998 -103.55499999999995 118.89999999999998 -103.5 L 118.89999999999998 -100.60000000000002 L 124.70000000000005 -100.60000000000002 L 124.70000000000005 -103.5 C 124.70000000000005 -103.55499999999995 124.745 -103.60000000000002 124.79999999999995 -103.60000000000002 L 133.79999999999995 -103.60000000000002 C 133.85500000000002 -103.60000000000002 133.89999999999998 -103.55499999999995 133.89999999999998 -103.5 L 133.89999999999998 -100.5 L 133.89999999999998 -93.60000000000002 L 136.79999999999995 -93.60000000000002 C 136.85500000000002 -93.60000000000002 136.89999999999998 -93.55499999999995 136.89999999999998 -93.5 L 136.89999999999998 -87.5 C 136.89999999999998 -87.44500000000005 136.85500000000002 -87.39999999999998 136.79999999999995 -87.39999999999998 L 133.89999999999998 -87.39999999999998 L 133.89999999999998 -81.60000000000002 L 136.79999999999995 -81.60000000000002 C 136.85500000000002 -81.60000000000002 136.89999999999998 -81.55499999999995 136.89999999999998 -81.5 L 136.89999999999998 -75.5 C 136.89999999999998 -75.44500000000005 136.85500000000002 -75.39999999999998 136.79999999999995 -75.39999999999998 L 133.89999999999998 -75.39999999999998 L 133.89999999999998 -69.60000000000002 L 136.79999999999995 -69.60000000000002 C 136.85500000000002 -69.60000000000002 136.89999999999998 -69.55499999999995 136.89999999999998 -69.5 L 136.89999999999998 -63.5 C 136.89999999999998 -63.44500000000005 136.85500000000002 -63.39999999999998 136.79999999999995 -63.39999999999998 L 133.89999999999998 -63.39999999999998 L 133.89999999999998 -57.60000000000002 L 136.79999999999995 -57.60000000000002 C 136.85500000000002 -57.60000000000002 136.89999999999998 -57.55499999999995 136.89999999999998 -57.5 L 136.89999999999998 -51.5 C 136.89999999999998 -51.44500000000005 136.85500000000002 -51.39999999999998 136.79999999999995 -51.39999999999998 L 133.89999999999998 -51.39999999999998 L 133.89999999999998 -45.60000000000002 L 136.79999999999995 -45.60000000000002 C 136.85500000000002 -45.60000000000002 136.89999999999998 -45.55499999999995 136.89999999999998 -45.5 L 136.89999999999998 -39.5 C 136.89999999999998 -39.44500000000005 136.85500000000002 -39.39999999999998 136.79999999999995 -39.39999999999998 L 133.89999999999998 -39.39999999999998 L 133.89999999999998 -33.60000000000002 L 136.79999999999995 -33.60000000000002 C 136.85500000000002 -33.60000000000002 136.89999999999998 -33.55499999999995 136.89999999999998 -33.5 L 136.89999999999998 -27.5 C 136.89999999999998 -27.44500000000005 136.85500000000002 -27.399999999999977 136.79999999999995 -27.399999999999977 L 133.89999999999998 -27.399999999999977 L 133.89999999999998 -21.600000000000023 L 136.79999999999995 -21.600000000000023 C 136.85500000000002 -21.600000000000023 136.89999999999998 -21.55499999999995 136.89999999999998 -21.5 L 136.89999999999998 -15.5 C 136.89999999999998 -15.44500000000005 136.85500000000002 -15.399999999999977 136.79999999999995 -15.399999999999977 L 133.89999999999998 -15.399999999999977 L 133.89999999999998 -9.600000000000023 L 136.79999999999995 -9.600000000000023 C 136.85500000000002 -9.600000000000023 136.89999999999998 -9.55499999999995 136.89999999999998 -9.5 L 136.89999999999998 -3.5 C 136.89999999999998 -3.44500000000005 136.85500000000002 -3.3999999999999773 136.79999999999995 -3.3999999999999773 L 133.89999999999998 -3.3999999999999773 L 133.89999999999998 2.3999999999999773 L 136.79999999999995 2.3999999999999773 C 136.85500000000002 2.3999999999999773 136.89999999999998 2.44500000000005 136.89999999999998 2.5 L 136.89999999999998 8.5 C 136.89999999999998 8.55499999999995 136.85500000000002 8.600000000000023 136.79999999999995 8.600000000000023 L 133.89999999999998 8.600000000000023 L 133.89999999999998 14.399999999999977 L 136.79999999999995 14.399999999999977 C 136.85500000000002 14.399999999999977 136.89999999999998 14.44500000000005 136.89999999999998 14.5 L 136.89999999999998 20.5 C 136.89999999999998 20.55499999999995 136.85500000000002 20.600000000000023 136.79999999999995 20.600000000000023 L 133.89999999999998 20.600000000000023 L 133.89999999999998 26.399999999999977 L 136.79999999999995 26.399999999999977 C 136.85500000000002 26.399999999999977 136.89999999999998 26.44500000000005 136.89999999999998 26.5 L 136.89999999999998 32.5 C 136.89999999999998 32.55499999999995 136.85500000000002 32.60000000000002 136.79999999999995 32.60000000000002 L 133.89999999999998 32.60000000000002 L 133.89999999999998 38.39999999999998 L 136.79999999999995 38.39999999999998 C 136.85500000000002 38.39999999999998 136.89999999999998 38.44500000000005 136.89999999999998 38.5 L 136.89999999999998 44.5 C 136.89999999999998 44.55499999999995 136.85500000000002 44.60000000000002 136.79999999999995 44.60000000000002 L 133.89999999999998 44.60000000000002 L 133.89999999999998 50.39999999999998 L 136.79999999999995 50.39999999999998 C 136.85500000000002 50.39999999999998 136.89999999999998 50.44500000000005 136.89999999999998 50.5 L 136.89999999999998 56.5 C 136.89999999999998 56.55500000000001 136.85500000000002 56.60000000000002 136.79999999999995 56.60000000000002 L 133.89999999999998 56.60000000000002 L 133.89999999999998 62.39999999999998 L 136.79999999999995 62.39999999999998 C 136.85500000000002 62.39999999999998 136.89999999999998 62.44499999999999 136.89999999999998 62.5 L 136.89999999999998 68.5 C 136.89999999999998 68.555 136.85500000000002 68.60000000000002 136.79999999999995 68.60000000000002 L 133.89999999999998 68.60000000000002 L 133.89999999999998 74.39999999999998 L 136.79999999999995 74.39999999999998 C 136.85500000000002 74.39999999999998 136.89999999999998 74.445 136.89999999999998 74.5 L 136.89999999999998 80.5 C 136.89999999999998 80.555 136.85500000000002 80.60000000000002 136.79999999999995 80.60000000000002 L 133.89999999999998 80.60000000000002 L 133.89999999999998 86.39999999999998 L 136.79999999999995 86.39999999999998 C 136.85500000000002 86.39999999999998 136.89999999999998 86.445 136.89999999999998 86.5 L 136.89999999999998 92.5 C 136.89999999999998 92.555 136.85500000000002 92.60000000000002 136.79999999999995 92.60000000000002 L 133.89999999999998 92.60000000000002 L 133.89999999999998 99.5 L 133.89999999999998 102.5 C 133.89999999999998 102.555 133.85500000000002 102.60000000000002 133.79999999999995 102.60000000000002 L 124.79999999999995 102.60000000000002 C 124.745 102.60000000000002 124.70000000000005 102.555 124.70000000000005 102.5 L 124.70000000000005 99.60000000000002 L 118.89999999999998 99.60000000000002 L 118.89999999999998 102.5 C 118.89999999999998 102.555 118.85500000000002 102.60000000000002 118.79999999999995 102.60000000000002 L 112.79999999999995 102.60000000000002 C 112.745 102.60000000000002 112.70000000000005 102.555 112.70000000000005 102.5 L 112.70000000000005 99.60000000000002 L 106.89999999999998 99.60000000000002 L 106.89999999999998 102.5 C 106.89999999999998 102.555 106.85500000000002 102.60000000000002 106.79999999999995 102.60000000000002 L 100.79999999999995 102.60000000000002 C 100.745 102.60000000000002 100.70000000000005 102.555 100.70000000000005 102.5 L 100.70000000000005 99.60000000000002 L 94.89999999999998 99.60000000000002 L 94.89999999999998 102.5 C 94.89999999999998 102.555 94.85500000000002 102.60000000000002 94.79999999999995 102.60000000000002 L 88.79999999999995 102.60000000000002 C 88.745 102.60000000000002 88.70000000000005 102.555 88.70000000000005 102.5 L 88.70000000000005 99.60000000000002 L 82.89999999999998 99.60000000000002 L 82.89999999999998 102.5 C 82.89999999999998 102.555 82.85500000000002 102.60000000000002 82.79999999999995 102.60000000000002 L 76.79999999999995 102.60000000000002 C 76.745 102.60000000000002 76.70000000000005 102.555 76.70000000000005 102.5 L 76.70000000000005 99.60000000000002 L 70.89999999999998 99.60000000000002 L 70.89999999999998 102.5 C 70.89999999999998 102.555 70.85500000000002 102.60000000000002 70.80000000000001 102.60000000000002 L 64.80000000000001 102.60000000000002 C 64.745 102.60000000000002 64.69999999999999 102.555 64.69999999999999 102.5 L 64.69999999999999 99.60000000000002 L 58.89999999999998 99.60000000000002 L 58.89999999999998 102.5 C 58.89999999999998 102.555 58.85500000000002 102.60000000000002 58.80000000000001 102.60000000000002 L 52.80000000000001 102.60000000000002 C 52.745000000000005 102.60000000000002 52.69999999999999 102.555 52.69999999999999 102.5 L 52.69999999999999 99.60000000000002 L 46.89999999999998 99.60000000000002 L 46.89999999999998 102.5 C 46.89999999999998 102.555 46.85500000000002 102.60000000000002 46.80000000000001 102.60000000000002 L 40.80000000000001 102.60000000000002 C 40.745000000000005 102.60000000000002 40.69999999999999 102.555 40.69999999999999 102.5 L 40.69999999999999 99.60000000000002 L 34.89999999999998 99.60000000000002 L 34.89999999999998 102.5 C 34.89999999999998 102.555 34.85500000000002 102.60000000000002 34.80000000000001 102.60000000000002 L 28.80000000000001 102.60000000000002 C 28.745000000000005 102.60000000000002 28.69999999999999 102.555 28.69999999999999 102.5 L 28.69999999999999 99.60000000000002 L 22.899999999999977 99.60000000000002 L 22.899999999999977 102.5 C 22.899999999999977 102.555 22.855000000000018 102.60000000000002 22.80000000000001 102.60000000000002 L 16.80000000000001 102.60000000000002 C 16.745000000000005 102.60000000000002 16.69999999999999 102.555 16.69999999999999 102.5 L 16.69999999999999 99.60000000000002 L 10.899999999999977 99.60000000000002 L 10.899999999999977 102.5 C 10.899999999999977 102.555 10.855000000000018 102.60000000000002 10.800000000000011 102.60000000000002 L 4.800000000000011 102.60000000000002 C 4.7450000000000045 102.60000000000002 4.699999999999989 102.555 4.699999999999989 102.5 L 4.699999999999989 99.60000000000002 L -1.1000000000000227 99.60000000000002 L -1.1000000000000227 102.5 C -1.1000000000000227 102.555 -1.1449999999999818 102.60000000000002 -1.1999999999999886 102.60000000000002 L -7.199999999999989 102.60000000000002 C -7.2549999999999955 102.60000000000002 -7.300000000000011 102.555 -7.300000000000011 102.5 L -7.300000000000011 99.60000000000002 L -13.100000000000023 99.60000000000002 L -13.100000000000023 102.5 C -13.100000000000023 102.555 -13.144999999999982 102.60000000000002 -13.199999999999989 102.60000000000002 L -19.19999999999999 102.60000000000002 C -19.254999999999995 102.60000000000002 -19.30000000000001 102.555 -19.30000000000001 102.5 L -19.30000000000001 99.60000000000002 L -25.100000000000023 99.60000000000002 L -25.100000000000023 102.5 C -25.100000000000023 102.555 -25.144999999999982 102.60000000000002 -25.19999999999999 102.60000000000002 L -31.19999999999999 102.60000000000002 C -31.254999999999995 102.60000000000002 -31.30000000000001 102.555 -31.30000000000001 102.5 L -31.30000000000001 99.60000000000002 L -37.10000000000002 99.60000000000002 L -37.10000000000002 102.5 C -37.10000000000002 102.555 -37.14499999999998 102.60000000000002 -37.19999999999999 102.60000000000002 L -43.19999999999999 102.60000000000002 C -43.254999999999995 102.60000000000002 -43.30000000000001 102.555 -43.30000000000001 102.5 L -43.30000000000001 99.60000000000002 L -49.10000000000002 99.60000000000002 L -49.10000000000002 102.5 C -49.10000000000002 102.555 -49.14499999999998 102.60000000000002 -49.19999999999999 102.60000000000002 L -55.19999999999999 102.60000000000002 C -55.254999999999995 102.60000000000002 -55.30000000000001 102.555 -55.30000000000001 102.5 L -55.30000000000001 99.60000000000002 L -61.10000000000002 99.60000000000002 L -61.10000000000002 102.5 C -61.10000000000002 102.555 -61.14499999999998 102.60000000000002 -61.19999999999999 102.60000000000002 L -67.19999999999999 102.60000000000002 C -67.255 102.60000000000002 -67.30000000000001 102.555 -67.30000000000001 102.5 L -67.30000000000001 99.60000000000002 L -73.10000000000002 99.60000000000002 L -73.10000000000002 102.5 C -73.10000000000002 102.555 -73.14499999999998 102.60000000000002 -73.19999999999999 102.60000000000002 L -79.19999999999999 102.60000000000002 C -79.255 102.60000000000002 -79.30000000000001 102.555 -79.30000000000001 102.5 L -79.30000000000001 99.60000000000002 L -85.10000000000002 99.60000000000002 L -85.10000000000002 102.5 C -85.10000000000002 102.555 -85.14499999999998 102.60000000000002 -85.19999999999999 102.60000000000002 L -91.19999999999999 102.60000000000002 C -91.255 102.60000000000002 -91.30000000000001 102.555 -91.30000000000001 102.5 L -91.30000000000001 99.60000000000002 L -97.10000000000002 99.60000000000002 L -97.10000000000002 102.5 C -97.10000000000002 102.555 -97.14499999999998 102.60000000000002 -97.19999999999999 102.60000000000002 L -106.19999999999999 102.60000000000002 C -106.255 102.60000000000002 -106.30000000000001 102.555 -106.30000000000001 102.5 L -106.30000000000001 99.5 L -106.30000000000001 92.60000000000002 L -109.19999999999999 92.60000000000002 C -109.255 92.60000000000002 -109.30000000000001 92.555 -109.30000000000001 92.5 L -109.30000000000001 86.5 C -109.30000000000001 86.445 -109.255 86.39999999999998 -109.19999999999999 86.39999999999998 L -106.30000000000001 86.39999999999998 L -106.30000000000001 80.60000000000002 L -109.19999999999999 80.60000000000002 C -109.255 80.60000000000002 -109.30000000000001 80.555 -109.30000000000001 80.5 L -109.30000000000001 74.5 C -109.30000000000001 74.445 -109.255 74.39999999999998 -109.19999999999999 74.39999999999998 L -106.30000000000001 74.39999999999998 L -106.30000000000001 68.60000000000002 L -109.19999999999999 68.60000000000002 C -109.255 68.60000000000002 -109.30000000000001 68.555 -109.30000000000001 68.5 L -109.30000000000001 62.5 C -109.30000000000001 62.44499999999999 -109.255 62.39999999999998 -109.19999999999999 62.39999999999998 L -106.30000000000001 62.39999999999998 L -106.30000000000001 56.60000000000002 L -109.19999999999999 56.60000000000002 C -109.255 56.60000000000002 -109.30000000000001 56.55500000000001 -109.30000000000001 56.5 L -109.30000000000001 50.5 C -109.30000000000001 50.44500000000005 -109.255 50.39999999999998 -109.19999999999999 50.39999999999998 L -106.30000000000001 50.39999999999998 L -106.30000000000001 44.60000000000002 L -109.19999999999999 44.60000000000002 C -109.255 44.60000000000002 -109.30000000000001 44.55499999999995 -109.30000000000001 44.5 L -109.30000000000001 38.5 C -109.30000000000001 38.44500000000005 -109.255 38.39999999999998 -109.19999999999999 38.39999999999998 L -106.30000000000001 38.39999999999998 L -106.30000000000001 32.60000000000002 L -109.19999999999999 32.60000000000002 C -109.255 32.60000000000002 -109.30000000000001 32.55499999999995 -109.30000000000001 32.5 L -109.30000000000001 26.5 C -109.30000000000001 26.44500000000005 -109.255 26.399999999999977 -109.19999999999999 26.399999999999977 L -106.30000000000001 26.399999999999977 L -106.30000000000001 20.600000000000023 L -109.19999999999999 20.600000000000023 C -109.255 20.600000000000023 -109.30000000000001 20.55499999999995 -109.30000000000001 20.5 L -109.30000000000001 14.5 C -109.30000000000001 14.44500000000005 -109.255 14.399999999999977 -109.19999999999999 14.399999999999977 L -106.30000000000001 14.399999999999977 L -106.30000000000001 8.600000000000023 L -109.19999999999999 8.600000000000023 C -109.255 8.600000000000023 -109.30000000000001 8.55499999999995 -109.30000000000001 8.5 L -109.30000000000001 2.5 C -109.30000000000001 2.44500000000005 -109.255 2.3999999999999773 -109.19999999999999 2.3999999999999773 L -106.30000000000001 2.3999999999999773 L -106.30000000000001 -3.3999999999999773 L -109.19999999999999 -3.3999999999999773 C -109.255 -3.3999999999999773 -109.30000000000001 -3.44500000000005 -109.30000000000001 -3.5 L -109.30000000000001 -9.5 C -109.30000000000001 -9.55499999999995 -109.255 -9.600000000000023 -109.19999999999999 -9.600000000000023 L -106.30000000000001 -9.600000000000023 L -106.30000000000001 -15.399999999999977 L -109.19999999999999 -15.399999999999977 C -109.255 -15.399999999999977 -109.30000000000001 -15.44500000000005 -109.30000000000001 -15.5 L -109.30000000000001 -21.5 C -109.30000000000001 -21.55499999999995 -109.255 -21.600000000000023 -109.19999999999999 -21.600000000000023 L -106.30000000000001 -21.600000000000023 L -106.30000000000001 -27.399999999999977 L -109.19999999999999 -27.399999999999977 C -109.255 -27.399999999999977 -109.30000000000001 -27.44500000000005 -109.30000000000001 -27.5 L -109.30000000000001 -33.5 C -109.30000000000001 -33.55499999999995 -109.255 -33.60000000000002 -109.19999999999999 -33.60000000000002 L -106.30000000000001 -33.60000000000002 L -106.30000000000001 -39.39999999999998 L -109.19999999999999 -39.39999999999998 C -109.255 -39.39999999999998 -109.30000000000001 -39.44500000000005 -109.30000000000001 -39.5 L -109.30000000000001 -45.5 C -109.30000000000001 -45.55499999999995 -109.255 -45.60000000000002 -109.19999999999999 -45.60000000000002 L -106.30000000000001 -45.60000000000002 L -106.30000000000001 -51.39999999999998 L -109.19999999999999 -51.39999999999998 C -109.255 -51.39999999999998 -109.30000000000001 -51.44500000000005 -109.30000000000001 -51.5 L -109.30000000000001 -57.5 C -109.30000000000001 -57.55499999999995 -109.255 -57.60000000000002 -109.19999999999999 -57.60000000000002 L -106.30000000000001 -57.60000000000002 L -106.30000000000001 -63.39999999999998 L -109.19999999999999 -63.39999999999998 C -109.255 -63.39999999999998 -109.30000000000001 -63.44500000000005 -109.30000000000001 -63.5 L -109.30000000000001 -69.5 C -109.30000000000001 -69.55499999999995 -109.255 -69.60000000000002 -109.19999999999999 -69.60000000000002 L -106.30000000000001 -69.60000000000002 L -106.30000000000001 -75.39999999999998 L -109.19999999999999 -75.39999999999998 C -109.255 -75.39999999999998 -109.30000000000001 -75.44500000000005 -109.30000000000001 -75.5 L -109.30000000000001 -81.5 C -109.30000000000001 -81.55499999999995 -109.255 -81.60000000000002 -109.19999999999999 -81.60000000000002 L -106.30000000000001 -81.60000000000002 L -106.30000000000001 -87.39999999999998 L -109.19999999999999 -87.39999999999998 C -109.255 -87.39999999999998 -109.30000000000001 -87.44500000000005 -109.30000000000001 -87.5 L -109.30000000000001 -93.5 C -109.30000000000001 -93.55499999999995 -109.255 -93.60000000000002 -109.19999999999999 -93.60000000000002 L -106.30000000000001 -93.60000000000002 L -106.30000000000001 -100.5 L -106.30000000000001 -103.5 C -106.30000000000001 -103.55499999999995 -106.255 -103.60000000000002 -106.19999999999999 -103.60000000000002 " stroke="#000000" stroke-width="0.35 px" style="stroke-width:0.35;stroke-miterlimit:4;stroke-dasharray:none;fill:none;fill-opacity:1;fill-rule: evenodd"/>
<circle cx="-10.452515" cy="-38.097115" r="1.7" stroke="#000000" stroke-width="0.35 px" style="stroke-width:0.35;stroke-miterlimit:4;stroke-dasharray:none;fill:none"/>
<circle cx="68.449005" cy="-38.106552" r="1.7" stroke="#000000" stroke-width="0.35 px" style="stroke-width:0.35;stroke-miterlimit:4;stroke-dasharray:none;fill:none"/>
<path id="Sketch005_w0003"  d="M -65.955414 74.118103 L 67.26123 74.118103 L 67.26123 20.248253 L -65.955414 20.248253 L -65.955414 74.118103 " stroke="#000000" stroke-width="0.35 px" style="stroke-width:0.35;stroke-miterlimit:4;stroke-dasharray:none;fill:none;fill-opacity:1;fill-rule: evenodd"/>
<circle cx="-68.277313" cy="76.788864" r="1.75" stroke="#000000" stroke-width="0.35 px" style="stroke-width:0.35;stroke-miterlimit:4;stroke-dasharray:none;fill:none"/>
<circle cx="68.380463" cy="76.975647" r="1.75" stroke="#000000" stroke-width="0.35 px" style="stroke-width:0.35;stroke-miterlimit:4;stroke-dasharray:none;fill:none"/>
<circle cx="-68.188293" cy="18.055145" r="1.75" stroke="#000000" stroke-width="0.35 px" style="stroke-width:0.35;stroke-miterlimit:4;stroke-dasharray:none;fill:none"/>
<circle cx="68.549652" cy="17.887932" r="1.75" stroke="#000000" stroke-width="0.35 px" style="stroke-width:0.35;stroke-miterlimit:4;stroke-dasharray:none;fill:none"/>
<title>b'Sketch005'</title>
</g>
</svg>