<?xml version="1.0"?>
<!DOCTYPE svg PUBLIC "-//W3C//DTD SVG 1.1//EN" "http://www.w3.org/Graphics/SVG/1.1/DTD/svg11.dtd">
<svg width="322.524mm" height="252.524mm" viewBox="0 0 322.524 252.524" xmlns="http://www.w3.org/2000/svg" version="1.1">
<g id="Sketch003" transform="translate(142.162000,123.162000) scale(1,-1)">
<path id="Sketch003_w0000"  d="M -135.9 -123.19999999999999 L -128.0 -123.19999999999999 L -128.0 -126.10000000000002 C -128.0 -126.15499999999997 -127.955 -126.19999999999999 -127.9 -126.19999999999999 L -121.9 -126.19999999999999 C -121.845 -126.19999999999999 -121.8 -126.15499999999997 -121.8 -126.10000000000002 L -121.8 -123.19999999999999 L -116.0 -123.19999999999999 L -116.0 -126.10000000000002 C -116.0 -126.15499999999997 -115.955 -126.19999999999999 -115.9 -126.19999999999999 L -109.9 -126.19999999999999 C -109.845 -126.19999999999999 -109.8 -126.15499999999997 -109.8 -126.10000000000002 L -109.8 -123.19999999999999 L -104.0 -123.19999999999999 L -104.0 -126.10000000000002 C -104.0 -126.15499999999997 -103.955 -126.19999999999999 -103.9 -126.19999999999999 L -97.9 -126.19999999999999 C -97.845 -126.19999999999999 -97.8 -126.15499999999997 -97.8 -126.10000000000002 L -97.8 -123.19999999999999 L -92.0 -123.19999999999999 L -92.0 -126.10000000000002 C -92.0 -126.15499999999997 -91.955 -126.19999999999999 -91.9 -126.19999999999999 L -85.9 -126.19999999999999 C -85.845 -126.19999999999999 -85.8 -126.15499999999997 -85.8 -126.10000000000002 L -85.8 -123.19999999999999 L -80.0 -123.19999999999999 L -80.0 -126.10000000000002 C -80.0 -126.15499999999997 -79.955 -126.19999999999999 -79.9 -126.19999999999999 L -73.9 -126.19999999999999 C -73.845 -126.19999999999999 -73.8 -126.15499999999997 -73.8 -126.10000000000002 L -73.8 -123.19999999999999 L -68.0 -123.19999999999999 L -68.0 -126.10000000000002 C -68.0 -126.15499999999997 -67.955 -126.19999999999999 -67.9 -126.19999999999999 L -61.900000000000006 -126.19999999999999 C -61.845 -126.19999999999999 -61.8 -126.15499999999997 -61.8 -126.10000000000002 L -61.8 -123.19999999999999 L -56.0 -123.19999999999999 L -56.0 -126.10000000000002 C -56.0 -126.15499999999997 -55.955 -126.19999999999999 -55.900000000000006 -126.19999999999999 L -49.900000000000006 -126.19999999999999 C -49.845 -126.19999999999999 -49.8 -126.15499999999997 -49.8 -126.10000000000002 L -49.8 -123.19999999999999 L -44.0 -123.19999999999999 L -44.0 -126.10000000000002 C -44.0 -126.15499999999997 -43.955 -126.19999999999999 -43.900000000000006 -126.19999999999999 L -37.900000000000006 -126.19999999999999 C -37.845 -126.19999999999999 -37.8 -126.15499999999997 -37.8 -126.10000000000002 L -37.8 -123.19999999999999 L -32.0 -123.19999999999999 L -32.0 -126.10000000000002 C -32.0 -126.15499999999997 -31.955 -126.19999999999999 -31.900000000000006 -126.19999999999999 L -25.900000000000006 -126.19999999999999 C -25.845 -126.19999999999999 -25.799999999999997 -126.15499999999997 -25.799999999999997 -126.10000000000002 L -25.799999999999997 -123.19999999999999 L -20.0 -123.19999999999999 L -20.0 -126.10000000000002 C -20.0 -126.15499999999997 -19.955000000000013 -126.19999999999999 -19.900000000000006 -126.19999999999999 L -13.900000000000006 -126.19999999999999 C -13.844999999999999 -126.19999999999999 -13.800000000000011 -126.15499999999997 -13.800000000000011 -126.10000000000002 L -13.800000000000011 -123.19999999999999 L -8.0 -123.19999999999999 L -8.0 -126.10000000000002 C -8.0 -126.15499999999997 -7.9550000000000125 -126.19999999999999 -7.900000000000006 -126.19999999999999 L -1.9000000000000057 -126.19999999999999 C -1.8449999999999989 -126.19999999999999 -1.8000000000000114 -126.15499999999997 -1.8000000000000114 -126.10000000000002 L -1.8000000000000114 -123.19999999999999 L 4.0 -123.19999999999999 L 4.0 -126.10000000000002 C 4.0 -126.15499999999997 4.0449999999999875 -126.19999999999999 4.099999999999994 -126.19999999999999 L 10.099999999999994 -126.19999999999999 C 10.155000000000001 -126.19999999999999 10.199999999999989 -126.15499999999997 10.199999999999989 -126.10000000000002 L 10.199999999999989 -123.19999999999999 L 16.0 -123.19999999999999 L 16.0 -126.10000000000002 C 16.0 -126.15499999999997 16.044999999999987 -126.19999999999999 16.099999999999994 -126.19999999999999 L 22.099999999999994 -126.19999999999999 C 22.155 -126.19999999999999 22.19999999999999 -126.15499999999997 22.19999999999999 -126.10000000000002 L 22.19999999999999 -123.19999999999999 L 28.0 -123.19999999999999 L 28.0 -126.10000000000002 C 28.0 -126.15499999999997 28.044999999999987 -126.19999999999999 28.099999999999994 -126.19999999999999 L 34.099999999999994 -126.19999999999999 C 34.155 -126.19999999999999 34.19999999999999 -126.15499999999997 34.19999999999999 -126.10000000000002 L 34.19999999999999 -123.19999999999999 L 40.0 -123.19999999999999 L 40.0 -126.10000000000002 C 40.0 -126.15499999999997 40.04499999999999 -126.19999999999999 40.099999999999994 -126.19999999999999 L 46.099999999999994 -126.19999999999999 C 46.155 -126.19999999999999 46.19999999999999 -126.15499999999997 46.19999999999999 -126.10000000000002 L 46.19999999999999 -123.19999999999999 L 52.0 -123.19999999999999 L 52.0 -126.10000000000002 C 52.0 -126.15499999999997 52.04499999999999 -126.19999999999999 52.099999999999994 -126.19999999999999 L 58.099999999999994 -126.19999999999999 C 58.155 -126.19999999999999 58.19999999999999 -126.15499999999997 58.19999999999999 -126.10000000000002 L 58.19999999999999 -123.19999999999999 L 64.0 -123.19999999999999 L 64.0 -126.10000000000002 C 64.0 -126.15499999999997 64.04499999999999 -126.19999999999999 64.1 -126.19999999999999 L 70.1 -126.19999999999999 C 70.155 -126.19999999999999 70.19999999999999 -126.15499999999997 70.19999999999999 -126.10000000000002 L 70.19999999999999 -123.19999999999999 L 76.0 -123.19999999999999 L 76.0 -126.10000000000002 C 76.0 -126.15499999999997 76.04499999999999 -126.19999999999999 76.1 -126.19999999999999 L 82.1 -126.19999999999999 C 82.155 -126.19999999999999 82.19999999999999 -126.15499999999997 82.19999999999999 -126.10000000000002 L 82.19999999999999 -123.19999999999999 L 88.0 -123.19999999999999 L 88.0 -126.10000000000002 C 88.0 -126.15499999999997 88.04499999999999 -126.19999999999999 88.1 -126.19999999999999 L 94.1 -126.19999999999999 C 94.155 -126.19999999999999 94.19999999999999 -126.15499999999997 94.19999999999999 -126.10000000000002 L 94.19999999999999 -123.19999999999999 L 100.0 -123.19999999999999 L 100.0 -126.10000000000002 C 100.0 -126.15499999999997 100.04499999999999 -126.19999999999999 100.1 -126.19999999999999 L 106.1 -126.19999999999999 C 106.155 -126.19999999999999 106.19999999999999 -126.15499999999997 106.19999999999999 -126.10000000000002 L 106.19999999999999 -123.19999999999999 L 112.0 -123.19999999999999 L 112.0 -126.10000000000002 C 112.0 -126.15499999999997 112.04500000000002 -126.19999999999999 112.10000000000002 -126.19999999999999 L 118.10000000000002 -126.19999999999999 C 118.15499999999997 -126.19999999999999 118.19999999999999 -126.15499999999997 118.19999999999999 -126.10000000000002 L 118.19999999999999 -123.19999999999999 L 124.0 -123.19999999999999 L 124.0 -126.10000000000002 C 124.0 -126.15499999999997 124.04500000000002 -126.19999999999999 124.10000000000002 -126.19999999999999 L 130.10000000000002 -126.19999999999999 C 130.15499999999997 -126.19999999999999 130.2 -126.15499999999997 130.2 -126.10000000000002 L 130.2 -123.19999999999999 L 136.0 -123.19999999999999 L 136.0 -126.10000000000002 C 136.0 -126.15499999999997 136.04500000000002 -126.19999999999999 136.10000000000002 -126.19999999999999 L 142.10000000000002 -126.19999999999999 C 142.15499999999997 -126.19999999999999 142.2 -126.15499999999997 142.2 -126.10000000000002 L 142.2 -123.19999999999999 L 148.0 -123.19999999999999 L 148.0 -126.10000000000002 C 148.0 -126.15499999999997 148.04500000000002 -126.19999999999999 148.10000000000002 -126.19999999999999 L 154.10000000000002 -126.19999999999999 C 154.15499999999997 -126.19999999999999 154.2 -126.15499999999997 154.2 -126.10000000000002 L 154.2 -123.19999999999999 L 160.0 -123.19999999999999 L 160.0 -126.10000000000002 C 160.0 -126.15499999999997 160.04500000000002 -126.19999999999999 160.10000000000002 -126.19999999999999 L 166.10000000000002 -126.19999999999999 C 166.15499999999997 -126.19999999999999 166.2 -126.15499999999997 166.2 -126.10000000000002 L 166.2 -123.19999999999999 L 174.10000000000002 -123.19999999999999 C 174.15499999999997 -123.19999999999999 174.2 -123.155 174.2 -123.1 L 174.2 -114.19999999999999 L 177.10000000000002 -114.19999999999999 C 177.15499999999997 -114.19999999999999 177.2 -114.155 177.2 -114.1 L 177.2 -108.1 C 177.2 -108.04499999999999 177.15499999999997 -108.0 177.10000000000002 -108.0 L 174.2 -108.0 L 174.2 -102.19999999999999 L 177.10000000000002 -102.19999999999999 C 177.15499999999997 -102.19999999999999 177.2 -102.155 177.2 -102.1 L 177.2 -96.1 C 177.2 -96.04499999999999 177.15499999999997 -96.0 177.10000000000002 -96.0 L 174.2 -96.0 L 174.2 -90.19999999999999 L 177.10000000000002 -90.19999999999999 C 177.15499999999997 -90.19999999999999 177.2 -90.155 177.2 -90.1 L 177.2 -84.1 C 177.2 -84.04499999999999 177.15499999999997 -84.0 177.10000000000002 -84.0 L 174.2 -84.0 L 174.2 -78.19999999999999 L 177.10000000000002 -78.19999999999999 C 177.15499999999997 -78.19999999999999 177.2 -78.155 177.2 -78.1 L 177.2 -72.1 C 177.2 -72.04499999999999 177.15499999999997 -72.0 177.10000000000002 -72.0 L 174.2 -72.0 L 174.2 -66.19999999999999 L 177.10000000000002 -66.19999999999999 C 177.15499999999997 -66.19999999999999 177.2 -66.155 177.2 -66.1 L 177.2 -60.099999999999994 C 177.2 -60.04499999999999 177.15499999999997 -60.0 177.10000000000002 -60.0 L 174.2 -60.0 L 174.2 -54.19999999999999 L 177.10000000000002 -54.19999999999999 C 177.15499999999997 -54.19999999999999 177.2 -54.155 177.2 -54.099999999999994 L 177.2 -48.099999999999994 C 177.2 -48.04499999999999 177.15499999999997 -48.0 177.10000000000002 -48.0 L 174.2 -48.0 L 174.2 -42.19999999999999 L 177.10000000000002 -42.19999999999999 C 177.15499999999997 -42.19999999999999 177.2 -42.155 177.2 -42.099999999999994 L 177.2 -36.099999999999994 C 177.2 -36.04499999999999 177.15499999999997 -36.0 177.10000000000002 -36.0 L 174.2 -36.0 L 174.2 -30.19999999999999 L 177.10000000000002 -30.19999999999999 C 177.15499999999997 -30.19999999999999 177.2 -30.155 177.2 -30.099999999999994 L 177.2 -24.099999999999994 C 177.2 -24.044999999999987 177.15499999999997 -24.0 177.10000000000002 -24.0 L 174.2 -24.0 L 174.2 -18.19999999999999 L 177.10000000000002 -18.19999999999999 C 177.15499999999997 -18.19999999999999 177.2 -18.155 177.2 -18.099999999999994 L 177.2 -12.099999999999994 C 177.2 -12.044999999999987 177.15499999999997 -12.0 177.10000000000002 -12.0 L 174.2 -12.0 L 174.2 -6.199999999999989 L 177.10000000000002 -6.199999999999989 C 177.15499999999997 -6.199999999999989 177.2 -6.155000000000001 177.2 -6.099999999999994 L 177.2 -0.0999999999999943 C 177.2 -0.0449999999999875 177.15499999999997 0.0 177.10000000000002 0.0 L 174.2 0.0 L 174.2 5.799999999999997 L 177.10000000000002 5.799999999999997 C 177.15499999999997 5.799999999999997 177.2 5.844999999999999 177.2 5.900000000000006 L 177.2 11.900000000000006 C 177.2 11.954999999999998 177.15499999999997 12.0 177.10000000000002 12.0 L 174.2 12.0 L 174.2 17.799999999999997 L 177.10000000000002 17.799999999999997 C 177.15499999999997 17.799999999999997 177.2 17.845 177.2 17.900000000000006 L 177.2 23.900000000000006 C 177.2 23.955 177.15499999999997 24.0 177.10000000000002 24.0 L 174.2 24.0 L 174.2 29.799999999999997 L 177.10000000000002 29.799999999999997 C 177.15499999999997 29.799999999999997 177.2 29.845 177.2 29.900000000000006 L 177.2 35.900000000000006 C 177.2 35.955 177.15499999999997 36.0 177.10000000000002 36.0 L 174.2 36.0 L 174.2 41.8 L 177.10000000000002 41.8 C 177.15499999999997 41.8 177.2 41.845 177.2 41.900000000000006 L 177.2 47.900000000000006 C 177.2 47.955 177.15499999999997 48.0 177.10000000000002 48.0 L 174.2 48.0 L 174.2 53.8 L 177.10000000000002 53.8 C 177.15499999999997 53.8 177.2 53.845 177.2 53.900000000000006 L 177.2 59.900000000000006 C 177.2 59.955 177.15499999999997 60.0 177.10000000000002 60.0 L 174.2 60.0 L 174.2 65.8 L 177.10000000000002 65.8 C 177.15499999999997 65.8 177.2 65.845 177.2 65.9 L 177.2 71.9 C 177.2 71.955 177.15499999999997 72.0 177.10000000000002 72.0 L 174.2 72.0 L 174.2 77.8 L 177.10000000000002 77.8 C 177.15499999999997 77.8 177.2 77.845 177.2 77.9 L 177.2 83.9 C 177.2 83.955 177.15499999999997 84.0 177.10000000000002 84.0 L 174.2 84.0 L 174.2 89.8 L 177.10000000000002 89.8 C 177.15499999999997 89.8 177.2 89.845 177.2 89.9 L 177.2 95.9 C 177.2 95.955 177.15499999999997 96.0 177.10000000000002 96.0 L 174.2 96.0 L 174.2 101.8 L 177.10000000000002 101.8 C 177.15499999999997 101.8 177.2 101.845 177.2 101.9 L 177.2 107.9 C 177.2 107.955 177.15499999999997 108.0 177.10000000000002 108.0 L 174.2 108.0 L 174.2 116.9 C 174.2 116.955 174.15499999999997 117.0 174.10000000000002 117.0 L 166.2 117.0 L 166.2 119.9 C 166.2 119.955 166.15499999999997 120.0 166.10000000000002 120.0 L 160.10000000000002 120.0 C 160.04500000000002 120.0 160.0 119.955 160.0 119.9 L 160.0 117.0 L 154.2 117.0 L 154.2 119.9 C 154.2 119.955 154.15499999999997 120.0 154.10000000000002 120.0 L 148.10000000000002 120.0 C 148.04500000000002 120.0 148.0 119.955 148.0 119.9 L 148.0 117.0 L 142.2 117.0 L 142.2 119.9 C 142.2 119.955 142.15499999999997 120.0 142.10000000000002 120.0 L 136.10000000000002 120.0 C 136.04500000000002 120.0 136.0 119.955 136.0 119.9 L 136.0 117.0 L 130.2 117.0 L 130.2 119.9 C 130.2 119.955 130.15499999999997 120.0 130.10000000000002 120.0 L 124.10000000000002 120.0 C 124.04500000000002 120.0 124.0 119.955 124.0 119.9 L 124.0 117.0 L 118.19999999999999 117.0 L 118.19999999999999 119.9 C 118.19999999999999 119.955 118.15499999999997 120.0 118.10000000000002 120.0 L 112.10000000000002 120.0 C 112.04500000000002 120.0 112.0 119.955 112.0 119.9 L 112.0 117.0 L 106.19999999999999 117.0 L 106.19999999999999 119.9 C 106.19999999999999 119.955 106.155 120.0 106.1 120.0 L 100.1 120.0 C 100.04499999999999 120.0 100.0 119.955 100.0 119.9 L 100.0 117.0 L 94.19999999999999 117.0 L 94.19999999999999 119.9 C 94.19999999999999 119.955 94.155 120.0 94.1 120.0 L 88.1 120.0 C 88.04499999999999 120.0 88.0 119.955 88.0 119.9 L 88.0 117.0 L 82.19999999999999 117.0 L 82.19999999999999 119.9 C 82.19999999999999 119.955 82.155 120.0 82.1 120.0 L 76.1 120.0 C 76.04499999999999 120.0 76.0 119.955 76.0 119.9 L 76.0 117.0 L 70.19999999999999 117.0 L 70.19999999999999 119.9 C 70.19999999999999 119.955 70.155 120.0 70.1 120.0 L 64.1 120.0 C 64.04499999999999 120.0 64.0 119.955 64.0 119.9 L 64.0 117.0 L 58.19999999999999 117.0 L 58.19999999999999 119.9 C 58.19999999999999 119.955 58.155 120.0 58.099999999999994 120.0 L 52.099999999999994 120.0 C 52.04499999999999 120.0 52.0 119.955 52.0 119.9 L 52.0 117.0 L 46.19999999999999 117.0 L 46.19999999999999 119.9 C 46.19999999999999 119.955 46.155 120.0 46.099999999999994 120.0 L 40.099999999999994 120.0 C 40.04499999999999 120.0 40.0 119.955 40.0 119.9 L 40.0 117.0 L 34.19999999999999 117.0 L 34.19999999999999 119.9 C 34.19999999999999 119.955 34.155 120.0 34.099999999999994 120.0 L 28.099999999999994 120.0 C 28.044999999999987 120.0 28.0 119.955 28.0 119.9 L 28.0 117.0 L 22.19999999999999 117.0 L 22.19999999999999 119.9 C 22.19999999999999 119.955 22.155 120.0 22.099999999999994 120.0 L 16.099999999999994 120.0 C 16.044999999999987 120.0 16.0 119.955 16.0 119.9 L 16.0 117.0 L 10.199999999999989 117.0 L 10.199999999999989 119.9 C 10.199999999999989 119.955 10.155000000000001 120.0 10.099999999999994 120.0 L 4.099999999999994 120.0 C 4.0449999999999875 120.0 4.0 119.955 4.0 119.9 L 4.0 117.0 L -1.8000000000000114 117.0 L -1.8000000000000114 119.9 C -1.8000000000000114 119.955 -1.8449999999999989 120.0 -1.9000000000000057 120.0 L -7.900000000000006 120.0 C -7.9550000000000125 120.0 -8.0 119.955 -8.0 119.9 L -8.0 117.0 L -13.800000000000011 117.0 L -13.800000000000011 119.9 C -13.800000000000011 119.955 -13.844999999999999 120.0 -13.900000000000006 120.0 L -19.900000000000006 120.0 C -19.955000000000013 120.0 -20.0 119.955 -20.0 119.9 L -20.0 117.0 L -25.799999999999997 117.0 L -25.799999999999997 119.9 C -25.799999999999997 119.955 -25.845 120.0 -25.900000000000006 120.0 L -31.900000000000006 120.0 C -31.955 120.0 -32.0 119.955 -32.0 119.9 L -32.0 117.0 L -37.8 117.0 L -37.8 119.9 C -37.8 119.955 -37.845 120.0 -37.900000000000006 120.0 L -43.900000000000006 120.0 C -43.955 120.0 -44.0 119.955 -44.0 119.9 L -44.0 117.0 L -49.8 117.0 L -49.8 119.9 C -49.8 119.955 -49.845 120.0 -49.900000000000006 120.0 L -55.900000000000006 120.0 C -55.955 120.0 -56.0 119.955 -56.0 119.9 L -56.0 117.0 L -61.8 117.0 L -61.8 119.9 C -61.8 119.955 -61.845 120.0 -61.900000000000006 120.0 L -67.9 120.0 C -67.955 120.0 -68.0 119.955 -68.0 119.9 L -68.0 117.0 L -73.8 117.0 L -73.8 119.9 C -73.8 119.955 -73.845 120.0 -73.9 120.0 L -79.9 120.0 C -79.955 120.0 -80.0 119.955 -80.0 119.9 L -80.0 117.0 L -85.8 117.0 L -85.8 119.9 C -85.8 119.955 -85.845 120.0 -85.9 120.0 L -91.9 120.0 C -91.955 120.0 -92.0 119.955 -92.0 119.9 L -92.0 117.0 L -97.8 117.0 L -97.8 119.9 C -97.8 119.955 -97.845 120.0 -97.9 120.0 L -103.9 120.0 C -103.955 120.0 -104.0 119.955 -104.0 119.9 L -104.0 117.0 L -109.8 117.0 L -109.8 119.9 C -109.8 119.955 -109.845 120.0 -109.9 120.0 L -115.9 120.0 C -115.955 120.0 -116.0 119.955 -116.0 119.9 L -116.0 117.0 L -121.8 117.0 L -121.8 119.9 C -121.8 119.955 -121.845 120.0 -121.9 120.0 L -127.9 120.0 C -127.955 120.0 -128.0 119.955 -128.0 119.9 L -128.0 117.0 L -135.9 117.0 C -135.955 117.0 -136.0 116.955 -136.0 116.9 L -136.0 108.0 L -138.9 108.0 C -138.955 108.0 -139.0 107.955 -139.0 107.9 L -139.0 101.9 C -139.0 101.845 -138.955 101.8 -138.9 101.8 L -136.0 101.8 L -136.0 96.0 L -138.9 96.0 C -138.955 96.0 -139.0 95.955 -139.0 95.9 L -139.0 89.9 C -139.0 89.845 -138.955 89.8 -138.9 89.8 L -136.0 89.8 L -136.0 84.0 L -138.9 84.0 C -138.955 84.0 -139.0 83.955 -139.0 83.9 L -139.0 77.9 C -139.0 77.845 -138.955 77.8 -138.9 77.8 L -136.0 77.8 L -136.0 72.0 L -138.9 72.0 C -138.955 72.0 -139.0 71.955 -139.0 71.9 L -139.0 65.9 C -139.0 65.845 -138.955 65.8 -138.9 65.8 L -136.0 65.8 L -136.0 60.0 L -138.9 60.0 C -138.955 60.0 -139.0 59.955 -139.0 59.900000000000006 L -139.0 53.900000000000006 C -139.0 53.845 -138.955 53.8 -138.9 53.8 L -136.0 53.8 L -136.0 48.0 L -138.9 48.0 C -138.955 48.0 -139.0 47.955 -139.0 47.900000000000006 L -139.0 41.900000000000006 C -139.0 41.845 -138.955 41.8 -138.9 41.8 L -136.0 41.8 L -136.0 36.0 L -138.9 36.0 C -138.955 36.0 -139.0 35.955 -139.0 35.900000000000006 L -139.0 29.900000000000006 C -139.0 29.845 -138.955 29.799999999999997 -138.9 29.799999999999997 L -136.0 29.799999999999997 L -136.0 24.0 L -138.9 24.0 C -138.955 24.0 -139.0 23.955 -139.0 23.900000000000006 L -139.0 17.900000000000006 C -139.0 17.845 -138.955 17.799999999999997 -138.9 17.799999999999997 L -136.0 17.799999999999997 L -136.0 12.0 L -138.9 12.0 C -138.955 12.0 -139.0 11.954999999999998 -139.0 11.900000000000006 L -139.0 5.900000000000006 C -139.0 5.844999999999999 -138.955 5.799999999999997 -138.9 5.799999999999997 L -136.0 5.799999999999997 L -136.0 0.0 L -138.9 0.0 C -138.955 0.0 -139.0 -0.0449999999999875 -139.0 -0.0999999999999943 L -139.0 -6.099999999999994 C -139.0 -6.155000000000001 -138.955 -6.199999999999989 -138.9 -6.199999999999989 L -136.0 -6.199999999999989 L -136.0 -12.0 L -138.9 -12.0 C -138.955 -12.0 -139.0 -12.044999999999987 -139.0 -12.099999999999994 L -139.0 -18.099999999999994 C -139.0 -18.155 -138.955 -18.19999999999999 -138.9 -18.19999999999999 L -136.0 -18.19999999999999 L -136.0 -24.0 L -138.9 -24.0 C -138.955 -24.0 -139.0 -24.044999999999987 -139.0 -24.099999999999994 L -139.0 -30.099999999999994 C -139.0 -30.155 -138.955 -30.19999999999999 -138.9 -30.19999999999999 L -136.0 -30.19999999999999 L -136.0 -36.0 L -138.9 -36.0 C -138.955 -36.0 -139.0 -36.04499999999999 -139.0 -36.099999999999994 L -139.0 -42.099999999999994 C -139.0 -42.155 -138.955 -42.19999999999999 -138.9 -42.19999999999999 L -136.0 -42.19999999999999 L -136.0 -48.0 L -138.9 -48.0 C -138.955 -48.0 -139.0 -48.04499999999999 -139.0 -48.099999999999994 L -139.0 -54.099999999999994 C -139.0 -54.155 -138.955 -54.19999999999999 -138.9 -54.19999999999999 L -136.0 -54.19999999999999 L -136.0 -60.0 L -138.9 -60.0 C -138.955 -60.0 -139.0 -60.04499999999999 -139.0 -60.099999999999994 L -139.0 -66.1 C -139.0 -66.155 -138.955 -66.19999999999999 -138.9 -66.19999999999999 L -136.0 -66.19999999999999 L -136.0 -72.0 L -138.9 -72.0 C -138.955 -72.0 -139.0 -72.04499999999999 -139.0 -72.1 L -139.0 -78.1 C -139.0 -78.155 -138.955 -78.19999999999999 -138.9 -78.19999999999999 L -136.0 -78.19999999999999 L -136.0 -84.0 L -138.9 -84.0 C -138.955 -84.0 -139.0 -84.04499999999999 -139.0 -84.1 L -139.0 -90.1 C -139.0 -90.155 -138.955 -90.19999999999999 -138.9 -90.19999999999999 L -136.0 -90.19999999999999 L -136.0 -96.0 L -138.9 -96.0 C -138.955 -96.0 -139.0 -96.04499999999999 -139.0 -96.1 L -139.0 -102.1 C -139.0 -102.155 -138.955 -102.19999999999999 -138.9 -102.19999999999999 L -136.0 -102.19999999999999 L -136.0 -108.0 L -138.9 -108.0 C -138.955 -108.0 -139.0 -108.04499999999999 -139.0 -108.1 L -139.0 -114.1 C -139.0 -114.155 -138.955 -114.19999999999999 -138.9 -114.19999999999999 L -136.0 -114.19999999999999 L -136.0 -123.1 C -136.0 -123.155 -135.955 -123.19999999999999 -135.9 -123.19999999999999 " stroke="#000000" stroke-width="0.35 px" style="stroke-width:0.35;stroke-miterlimit:4;stroke-dasharray:none;fill:none;fill-opacity:1;fill-rule: evenodd"/>
<circle cx="150.151337" cy="-90.193151" r="12.0" stroke="#000000" stroke-width="0.35 px" style="stroke-width:0.35;stroke-miterlimit:4;stroke-dasharray:none;fill:none"/>
<circle cx="-100.120155" cy="-90.033574" r="12.0" stroke="#000000" stroke-width="0.35 px" style="stroke-width:0.35;stroke-miterlimit:4;stroke-dasharray:none;fill:none"/>
<circle cx="26.173069" cy="83.028071" r="12.0" stroke="#000000" stroke-width="0.35 px" style="stroke-width:0.35;stroke-miterlimit:4;stroke-dasharray:none;fill:none"/>
<circle cx="-65.645851" cy="-4.70844" r="3.0" stroke="#000000" stroke-width="0.35 px" style="stroke-width:0.35;stroke-miterlimit:4;stroke-dasharray:none;fill:none"/>
<circle cx="133.093759" cy="-5.081257" r="3.0" stroke="#000000" stroke-width="0.35 px" style="stroke-width:0.35;stroke-miterlimit:4;stroke-dasharray:none;fill:none"/>
<circle cx="-65.62952600000001" cy="55.709898" r="3.0" stroke="#000000" stroke-width="0.35 px" style="stroke-width:0.35;stroke-miterlimit:4;stroke-dasharray:none;fill:none"/>
<title>b'Sketch003'</title>
</g>
</svg>