<?xml version="1.0"?>
<!DOCTYPE svg PUBLIC "-//W3C//DTD SVG 1.1//EN" "http://www.w3.org/Graphics/SVG/1.1/DTD/svg11.dtd">
<svg width="322.524mm" height="252.524mm" viewBox="0 0 322.524 252.524" xmlns="http://www.w3.org/2000/svg" version="1.1">
<g id="Sketch002" transform="translate(141.462000,128.162000) scale(1,-1)">
<path id="Sketch002_w0000"  d="M -135.2 -118.19999999999999 L -127.30000000000001 -118.19999999999999 L -127.30000000000001 -121.10000000000002 C -127.30000000000001 -121.15499999999997 -127.255 -121.19999999999999 -127.19999999999999 -121.19999999999999 L -121.19999999999999 -121.19999999999999 C -121.14499999999998 -121.19999999999999 -121.10000000000002 -121.15499999999997 -121.10000000000002 -121.10000000000002 L -121.10000000000002 -118.19999999999999 L -115.30000000000001 -118.19999999999999 L -115.30000000000001 -121.10000000000002 C -115.30000000000001 -121.15499999999997 -115.255 -121.19999999999999 -115.19999999999999 -121.19999999999999 L -109.19999999999999 -121.19999999999999 C -109.14499999999998 -121.19999999999999 -109.10000000000002 -121.15499999999997 -109.10000000000002 -121.10000000000002 L -109.10000000000002 -118.19999999999999 L -103.30000000000001 -118.19999999999999 L -103.30000000000001 -121.10000000000002 C -103.30000000000001 -121.15499999999997 -103.255 -121.19999999999999 -103.19999999999999 -121.19999999999999 L -97.19999999999999 -121.19999999999999 C -97.14499999999998 -121.19999999999999 -97.10000000000002 -121.15499999999997 -97.10000000000002 -121.10000000000002 L -97.10000000000002 -118.19999999999999 L -91.30000000000001 -118.19999999999999 L -91.30000000000001 -121.10000000000002 C -91.30000000000001 -121.15499999999997 -91.255 -121.19999999999999 -91.19999999999999 -121.19999999999999 L -85.19999999999999 -121.19999999999999 C -85.14499999999998 -121.19999999999999 -85.10000000000002 -121.15499999999997 -85.10000000000002 -121.10000000000002 L -85.10000000000002 -118.19999999999999 L -79.30000000000001 -118.19999999999999 L -79.30000000000001 -121.10000000000002 C -79.30000000000001 -121.15499999999997 -79.255 -121.19999999999999 -79.19999999999999 -121.19999999999999 L -73.19999999999999 -121.19999999999999 C -73.14499999999998 -121.19999999999999 -73.10000000000002 -121.15499999999997 -73.10000000000002 -121.10000000000002 L -73.10000000000002 -118.19999999999999 L -67.30000000000001 -118.19999999999999 L -67.30000000000001 -121.10000000000002 C -67.30000000000001 -121.15499999999997 -67.255 -121.19999999999999 -67.19999999999999 -121.19999999999999 L -61.19999999999999 -121.19999999999999 C -61.14499999999998 -121.19999999999999 -61.10000000000002 -121.15499999999997 -61.10000000000002 -121.10000000000002 L -61.10000000000002 -118.19999999999999 L -55.30000000000001 -118.19999999999999 L -55.30000000000001 -121.10000000000002 C -55.30000000000001 -121.15499999999997 -55.254999999999995 -121.19999999999999 -55.19999999999999 -121.19999999999999 L -49.19999999999999 -121.19999999999999 C -49.14499999999998 -121.19999999999999 -49.10000000000002 -121.15499999999997 -49.10000000000002 -121.10000000000002 L -49.10000000000002 -118.19999999999999 L -43.30000000000001 -118.19999999999999 L -43.30000000000001 -121.10000000000002 C -43.30000000000001 -121.15499999999997 -43.254999999999995 -121.19999999999999 -43.19999999999999 -121.19999999999999 L -37.19999999999999 -121.19999999999999 C -37.14499999999998 -121.19999999999999 -37.10000000000002 -121.15499999999997 -37.10000000000002 -121.10000000000002 L -37.10000000000002 -118.19999999999999 L -31.30000000000001 -118.19999999999999 L -31.30000000000001 -121.10000000000002 C -31.30000000000001 -121.15499999999997 -31.254999999999995 -121.19999999999999 -31.19999999999999 -121.19999999999999 L -25.19999999999999 -121.19999999999999 C -25.144999999999982 -121.19999999999999 -25.100000000000023 -121.15499999999997 -25.100000000000023 -121.10000000000002 L -25.100000000000023 -118.19999999999999 L -19.30000000000001 -118.19999999999999 L -19.30000000000001 -121.10000000000002 C -19.30000000000001 -121.15499999999997 -19.254999999999995 -121.19999999999999 -19.19999999999999 -121.19999999999999 L -13.199999999999989 -121.19999999999999 C -13.144999999999982 -121.19999999999999 -13.100000000000023 -121.15499999999997 -13.100000000000023 -121.10000000000002 L -13.100000000000023 -118.19999999999999 L -7.300000000000011 -118.19999999999999 L -7.300000000000011 -121.10000000000002 C -7.300000000000011 -121.15499999999997 -7.2549999999999955 -121.19999999999999 -7.199999999999989 -121.19999999999999 L -1.1999999999999886 -121.19999999999999 C -1.1449999999999818 -121.19999999999999 -1.1000000000000227 -121.15499999999997 -1.1000000000000227 -121.10000000000002 L -1.1000000000000227 -118.19999999999999 L 4.699999999999989 -118.19999999999999 L 4.699999999999989 -121.10000000000002 C 4.699999999999989 -121.15499999999997 4.7450000000000045 -121.19999999999999 4.800000000000011 -121.19999999999999 L 10.800000000000011 -121.19999999999999 C 10.855000000000018 -121.19999999999999 10.899999999999977 -121.15499999999997 10.899999999999977 -121.10000000000002 L 10.899999999999977 -118.19999999999999 L 16.69999999999999 -118.19999999999999 L 16.69999999999999 -121.10000000000002 C 16.69999999999999 -121.15499999999997 16.745000000000005 -121.19999999999999 16.80000000000001 -121.19999999999999 L 22.80000000000001 -121.19999999999999 C 22.855000000000018 -121.19999999999999 22.899999999999977 -121.15499999999997 22.899999999999977 -121.10000000000002 L 22.899999999999977 -118.19999999999999 L 28.69999999999999 -118.19999999999999 L 28.69999999999999 -121.10000000000002 C 28.69999999999999 -121.15499999999997 28.745000000000005 -121.19999999999999 28.80000000000001 -121.19999999999999 L 34.80000000000001 -121.19999999999999 C 34.85500000000002 -121.19999999999999 34.89999999999998 -121.15499999999997 34.89999999999998 -121.10000000000002 L 34.89999999999998 -118.19999999999999 L 40.69999999999999 -118.19999999999999 L 40.69999999999999 -121.10000000000002 C 40.69999999999999 -121.15499999999997 40.745000000000005 -121.19999999999999 40.80000000000001 -121.19999999999999 L 46.799999999999955 -121.19999999999999 C 46.85500000000002 -121.19999999999999 46.89999999999998 -121.15499999999997 46.89999999999998 -121.10000000000002 L 46.89999999999998 -118.19999999999999 L 52.700000000000045 -118.19999999999999 L 52.700000000000045 -121.10000000000002 C 52.700000000000045 -121.15499999999997 52.745000000000005 -121.19999999999999 52.799999999999955 -121.19999999999999 L 58.799999999999955 -121.19999999999999 C 58.85500000000002 -121.19999999999999 58.89999999999998 -121.15499999999997 58.89999999999998 -121.10000000000002 L 58.89999999999998 -118.19999999999999 L 64.70000000000005 -118.19999999999999 L 64.70000000000005 -121.10000000000002 C 64.70000000000005 -121.15499999999997 64.745 -121.19999999999999 64.79999999999995 -121.19999999999999 L 70.79999999999995 -121.19999999999999 C 70.85500000000002 -121.19999999999999 70.89999999999998 -121.15499999999997 70.89999999999998 -121.10000000000002 L 70.89999999999998 -118.19999999999999 L 76.70000000000005 -118.19999999999999 L 76.70000000000005 -121.10000000000002 C 76.70000000000005 -121.15499999999997 76.745 -121.19999999999999 76.79999999999995 -121.19999999999999 L 82.79999999999995 -121.19999999999999 C 82.85500000000002 -121.19999999999999 82.89999999999998 -121.15499999999997 82.89999999999998 -121.10000000000002 L 82.89999999999998 -118.19999999999999 L 88.70000000000005 -118.19999999999999 L 88.70000000000005 -121.10000000000002 C 88.70000000000005 -121.15499999999997 88.745 -121.19999999999999 88.79999999999995 -121.19999999999999 L 94.79999999999995 -121.19999999999999 C 94.85500000000002 -121.19999999999999 94.89999999999998 -121.15499999999997 94.89999999999998 -121.10000000000002 L 94.89999999999998 -118.19999999999999 L 100.70000000000005 -118.19999999999999 L 100.70000000000005 -121.10000000000002 C 100.70000000000005 -121.15499999999997 100.745 -121.19999999999999 100.79999999999995 -121.19999999999999 L 106.79999999999995 -121.19999999999999 C 106.85500000000002 -121.19999999999999 106.89999999999998 -121.15499999999997 106.89999999999998 -121.10000000000002 L 106.89999999999998 -118.19999999999999 L 112.70000000000005 -118.19999999999999 L 112.70000000000005 -121.10000000000002 C 112.70000000000005 -121.15499999999997 112.745 -121.19999999999999 112.79999999999995 -121.19999999999999 L 118.79999999999995 -121.19999999999999 C 118.85500000000002 -121.19999999999999 118.89999999999998 -121.15499999999997 118.89999999999998 -121.10000000000002 L 118.89999999999998 -118.19999999999999 L 124.70000000000005 -118.19999999999999 L 124.70000000000005 -121.10000000000002 C 124.70000000000005 -121.15499999999997 124.745 -121.19999999999999 124.79999999999995 -121.19999999999999 L 130.79999999999995 -121.19999999999999 C 130.85500000000002 -121.19999999999999 130.89999999999998 -121.15499999999997 130.89999999999998 -121.10000000000002 L 130.89999999999998 -118.19999999999999 L 136.70000000000005 -118.19999999999999 L 136.70000000000005 -121.10000000000002 C 136.70000000000005 -121.15499999999997 136.745 -121.19999999999999 136.79999999999995 -121.19999999999999 L 142.79999999999995 -121.19999999999999 C 142.85500000000002 -121.19999999999999 142.89999999999998 -121.15499999999997 142.89999999999998 -121.10000000000002 L 142.89999999999998 -118.19999999999999 L 148.70000000000005 -118.19999999999999 L 148.70000000000005 -121.10000000000002 C 148.70000000000005 -121.15499999999997 148.745 -121.19999999999999 148.79999999999995 -121.19999999999999 L 154.79999999999995 -121.19999999999999 C 154.85500000000002 -121.19999999999999 154.89999999999998 -121.15499999999997 154.89999999999998 -121.10000000000002 L 154.89999999999998 -118.19999999999999 L 160.70000000000005 -118.19999999999999 L 160.70000000000005 -121.10000000000002 C 160.70000000000005 -121.15499999999997 160.745 -121.19999999999999 160.79999999999995 -121.19999999999999 L 166.79999999999995 -121.19999999999999 C 166.85500000000002 -121.19999999999999 166.89999999999998 -121.15499999999997 166.89999999999998 -121.10000000000002 L 166.89999999999998 -118.19999999999999 L 174.79999999999995 -118.19999999999999 C 174.85500000000002 -118.19999999999999 174.89999999999998 -118.155 174.89999999999998 -118.1 L 174.89999999999998 -109.19999999999999 L 177.79999999999995 -109.19999999999999 C 177.85500000000002 -109.19999999999999 177.89999999999998 -109.155 177.89999999999998 -109.1 L 177.89999999999998 -103.1 C 177.89999999999998 -103.04499999999999 177.85500000000002 -103.0 177.79999999999995 -103.0 L 174.89999999999998 -103.0 L 174.89999999999998 -97.19999999999999 L 177.79999999999995 -97.19999999999999 C 177.85500000000002 -97.19999999999999 177.89999999999998 -97.155 177.89999999999998 -97.1 L 177.89999999999998 -91.1 C 177.89999999999998 -91.04499999999999 177.85500000000002 -91.0 177.79999999999995 -91.0 L 174.89999999999998 -91.0 L 174.89999999999998 -85.19999999999999 L 177.79999999999995 -85.19999999999999 C 177.85500000000002 -85.19999999999999 177.89999999999998 -85.155 177.89999999999998 -85.1 L 177.89999999999998 -79.1 C 177.89999999999998 -79.04499999999999 177.85500000000002 -79.0 177.79999999999995 -79.0 L 174.89999999999998 -79.0 L 174.89999999999998 -73.19999999999999 L 177.79999999999995 -73.19999999999999 C 177.85500000000002 -73.19999999999999 177.89999999999998 -73.155 177.89999999999998 -73.1 L 177.89999999999998 -67.1 C 177.89999999999998 -67.04499999999999 177.85500000000002 -67.0 177.79999999999995 -67.0 L 174.89999999999998 -67.0 L 174.89999999999998 -61.19999999999999 L 177.79999999999995 -61.19999999999999 C 177.85500000000002 -61.19999999999999 177.89999999999998 -61.155 177.89999999999998 -61.099999999999994 L 177.89999999999998 -55.099999999999994 C 177.89999999999998 -55.04499999999999 177.85500000000002 -55.0 177.79999999999995 -55.0 L 174.89999999999998 -55.0 L 174.89999999999998 -49.19999999999999 L 177.79999999999995 -49.19999999999999 C 177.85500000000002 -49.19999999999999 177.89999999999998 -49.155 177.89999999999998 -49.099999999999994 L 177.89999999999998 -43.099999999999994 C 177.89999999999998 -43.04499999999999 177.85500000000002 -43.0 177.79999999999995 -43.0 L 174.89999999999998 -43.0 L 174.89999999999998 -37.19999999999999 L 177.79999999999995 -37.19999999999999 C 177.85500000000002 -37.19999999999999 177.89999999999998 -37.155 177.89999999999998 -37.099999999999994 L 177.89999999999998 -31.099999999999994 C 177.89999999999998 -31.044999999999987 177.85500000000002 -31.0 177.79999999999995 -31.0 L 174.89999999999998 -31.0 L 174.89999999999998 -25.19999999999999 L 177.79999999999995 -25.19999999999999 C 177.85500000000002 -25.19999999999999 177.89999999999998 -25.155 177.89999999999998 -25.099999999999994 L 177.89999999999998 -19.099999999999994 C 177.89999999999998 -19.044999999999987 177.85500000000002 -19.0 177.79999999999995 -19.0 L 174.89999999999998 -19.0 L 174.89999999999998 -13.199999999999989 L 177.79999999999995 -13.199999999999989 C 177.85500000000002 -13.199999999999989 177.89999999999998 -13.155000000000001 177.89999999999998 -13.099999999999994 L 177.89999999999998 -7.099999999999994 C 177.89999999999998 -7.0449999999999875 177.85500000000002 -7.0 177.79999999999995 -7.0 L 174.89999999999998 -7.0 L 174.89999999999998 -1.1999999999999886 L 177.79999999999995 -1.1999999999999886 C 177.85500000000002 -1.1999999999999886 177.89999999999998 -1.1550000000000011 177.89999999999998 -1.0999999999999943 L 177.89999999999998 4.900000000000006 C 177.89999999999998 4.9550000000000125 177.85500000000002 5.0 177.79999999999995 5.0 L 174.89999999999998 5.0 L 174.89999999999998 10.799999999999997 L 177.79999999999995 10.799999999999997 C 177.85500000000002 10.799999999999997 177.89999999999998 10.844999999999999 177.89999999999998 10.900000000000006 L 177.89999999999998 16.900000000000006 C 177.89999999999998 16.955 177.85500000000002 17.0 177.79999999999995 17.0 L 174.89999999999998 17.0 L 174.89999999999998 22.799999999999997 L 177.79999999999995 22.799999999999997 C 177.85500000000002 22.799999999999997 177.89999999999998 22.845 177.89999999999998 22.900000000000006 L 177.89999999999998 28.900000000000006 C 177.89999999999998 28.955 177.85500000000002 29.0 177.79999999999995 29.0 L 174.89999999999998 29.0 L 174.89999999999998 34.8 L 177.79999999999995 34.8 C 177.85500000000002 34.8 177.89999999999998 34.845 177.89999999999998 34.900000000000006 L 177.89999999999998 40.900000000000006 C 177.89999999999998 40.955 177.85500000000002 41.0 177.79999999999995 41.0 L 174.89999999999998 41.0 L 174.89999999999998 46.8 L 177.79999999999995 46.8 C 177.85500000000002 46.8 177.89999999999998 46.845 177.89999999999998 46.900000000000006 L 177.89999999999998 52.900000000000006 C 177.89999999999998 52.955 177.85500000000002 53.0 177.79999999999995 53.0 L 174.89999999999998 53.0 L 174.89999999999998 58.8 L 177.79999999999995 58.8 C 177.85500000000002 58.8 177.89999999999998 58.845 177.89999999999998 58.900000000000006 L 177.89999999999998 64.9 C 177.89999999999998 64.955 177.85500000000002 65.0 177.79999999999995 65.0 L 174.89999999999998 65.0 L 174.89999999999998 70.8 L 177.79999999999995 70.8 C 177.85500000000002 70.8 177.89999999999998 70.845 177.89999999999998 70.9 L 177.89999999999998 76.9 C 177.89999999999998 76.955 177.85500000000002 77.0 177.79999999999995 77.0 L 174.89999999999998 77.0 L 174.89999999999998 82.8 L 177.79999999999995 82.8 C 177.85500000000002 82.8 177.89999999999998 82.845 177.89999999999998 82.9 L 177.89999999999998 88.9 C 177.89999999999998 88.955 177.85500000000002 89.0 177.79999999999995 89.0 L 174.89999999999998 89.0 L 174.89999999999998 94.8 L 177.79999999999995 94.8 C 177.85500000000002 94.8 177.89999999999998 94.845 177.89999999999998 94.9 L 177.89999999999998 100.9 C 177.89999999999998 100.955 177.85500000000002 101.0 177.79999999999995 101.0 L 174.89999999999998 101.0 L 174.89999999999998 106.8 L 177.79999999999995 106.8 C 177.85500000000002 106.8 177.89999999999998 106.845 177.89999999999998 106.9 L 177.89999999999998 112.9 C 177.89999999999998 112.955 177.85500000000002 113.0 177.79999999999995 113.0 L 174.89999999999998 113.0 L 174.89999999999998 121.9 C 174.89999999999998 121.955 174.85500000000002 122.0 174.79999999999995 122.0 L 166.89999999999998 122.0 L 166.89999999999998 124.9 C 166.89999999999998 124.955 166.85500000000002 125.0 166.79999999999995 125.0 L 160.79999999999995 125.0 C 160.745 125.0 160.70000000000005 124.955 160.70000000000005 124.9 L 160.70000000000005 122.0 L 154.89999999999998 122.0 L 154.89999999999998 124.9 C 154.89999999999998 124.955 154.85500000000002 125.0 154.79999999999995 125.0 L 148.79999999999995 125.0 C 148.745 125.0 148.70000000000005 124.955 148.70000000000005 124.9 L 148.70000000000005 122.0 L 142.89999999999998 122.0 L 142.89999999999998 124.9 C 142.89999999999998 124.955 142.85500000000002 125.0 142.79999999999995 125.0 L 136.79999999999995 125.0 C 136.745 125.0 136.70000000000005 124.955 136.70000000000005 124.9 L 136.70000000000005 122.0 L 130.89999999999998 122.0 L 130.89999999999998 124.9 C 130.89999999999998 124.955 130.85500000000002 125.0 130.79999999999995 125.0 L 124.79999999999995 125.0 C 124.745 125.0 124.70000000000005 124.955 124.70000000000005 124.9 L 124.70000000000005 122.0 L 118.89999999999998 122.0 L 118.89999999999998 124.9 C 118.89999999999998 124.955 118.85500000000002 125.0 118.79999999999995 125.0 L 112.79999999999995 125.0 C 112.745 125.0 112.70000000000005 124.955 112.70000000000005 124.9 L 112.70000000000005 122.0 L 106.89999999999998 122.0 L 106.89999999999998 124.9 C 106.89999999999998 124.955 106.85500000000002 125.0 106.79999999999995 125.0 L 100.79999999999995 125.0 C 100.745 125.0 100.70000000000005 124.955 100.70000000000005 124.9 L 100.70000000000005 122.0 L 94.89999999999998 122.0 L 94.89999999999998 124.9 C 94.89999999999998 124.955 94.85500000000002 125.0 94.79999999999995 125.0 L 88.79999999999995 125.0 C 88.745 125.0 88.70000000000005 124.955 88.70000000000005 124.9 L 88.70000000000005 122.0 L 82.89999999999998 122.0 L 82.89999999999998 124.9 C 82.89999999999998 124.955 82.85500000000002 125.0 82.79999999999995 125.0 L 76.79999999999995 125.0 C 76.745 125.0 76.70000000000005 124.955 76.70000000000005 124.9 L 76.70000000000005 122.0 L 70.89999999999998 122.0 L 70.89999999999998 124.9 C 70.89999999999998 124.955 70.85500000000002 125.0 70.79999999999995 125.0 L 64.79999999999995 125.0 C 64.745 125.0 64.70000000000005 124.955 64.70000000000005 124.9 L 64.70000000000005 122.0 L 58.89999999999998 122.0 L 58.89999999999998 124.9 C 58.89999999999998 124.955 58.85500000000002 125.0 58.799999999999955 125.0 L 52.799999999999955 125.0 C 52.745000000000005 125.0 52.700000000000045 124.955 52.700000000000045 124.9 L 52.700000000000045 122.0 L 46.89999999999998 122.0 L 46.89999999999998 124.9 C 46.89999999999998 124.955 46.85500000000002 125.0 46.799999999999955 125.0 L 40.80000000000001 125.0 C 40.745000000000005 125.0 40.69999999999999 124.955 40.69999999999999 124.9 L 40.69999999999999 122.0 L 34.89999999999998 122.0 L 34.89999999999998 124.9 C 34.89999999999998 124.955 34.85500000000002 125.0 34.80000000000001 125.0 L 28.80000000000001 125.0 C 28.745000000000005 125.0 28.69999999999999 124.955 28.69999999999999 124.9 L 28.69999999999999 122.0 L 22.899999999999977 122.0 L 22.899999999999977 124.9 C 22.899999999999977 124.955 22.855000000000018 125.0 22.80000000000001 125.0 L 16.80000000000001 125.0 C 16.745000000000005 125.0 16.69999999999999 124.955 16.69999999999999 124.9 L 16.69999999999999 122.0 L 10.899999999999977 122.0 L 10.899999999999977 124.9 C 10.899999999999977 124.955 10.855000000000018 125.0 10.800000000000011 125.0 L 4.800000000000011 125.0 C 4.7450000000000045 125.0 4.699999999999989 124.955 4.699999999999989 124.9 L 4.699999999999989 122.0 L -1.1000000000000227 122.0 L -1.1000000000000227 124.9 C -1.1000000000000227 124.955 -1.1449999999999818 125.0 -1.1999999999999886 125.0 L -7.199999999999989 125.0 C -7.2549999999999955 125.0 -7.300000000000011 124.955 -7.300000000000011 124.9 L -7.300000000000011 122.0 L -13.100000000000023 122.0 L -13.100000000000023 124.9 C -13.100000000000023 124.955 -13.144999999999982 125.0 -13.199999999999989 125.0 L -19.19999999999999 125.0 C -19.254999999999995 125.0 -19.30000000000001 124.955 -19.30000000000001 124.9 L -19.30000000000001 122.0 L -25.100000000000023 122.0 L -25.100000000000023 124.9 C -25.100000000000023 124.955 -25.144999999999982 125.0 -25.19999999999999 125.0 L -31.19999999999999 125.0 C -31.254999999999995 125.0 -31.30000000000001 124.955 -31.30000000000001 124.9 L -31.30000000000001 122.0 L -37.10000000000002 122.0 L -37.10000000000002 124.9 C -37.10000000000002 124.955 -37.14499999999998 125.0 -37.19999999999999 125.0 L -43.19999999999999 125.0 C -43.254999999999995 125.0 -43.30000000000001 124.955 -43.30000000000001 124.9 L -43.30000000000001 122.0 L -49.10000000000002 122.0 L -49.10000000000002 124.9 C -49.10000000000002 124.955 -49.14499999999998 125.0 -49.19999999999999 125.0 L -55.19999999999999 125.0 C -55.254999999999995 125.0 -55.30000000000001 124.955 -55.30000000000001 124.9 L -55.30000000000001 122.0 L -61.10000000000002 122.0 L -61.10000000000002 124.9 C -61.10000000000002 124.955 -61.14499999999998 125.0 -61.19999999999999 125.0 L -67.19999999999999 125.0 C -67.255 125.0 -67.30000000000001 124.955 -67.30000000000001 124.9 L -67.30000000000001 122.0 L -73.10000000000002 122.0 L -73.10000000000002 124.9 C -73.10000000000002 124.955 -73.14499999999998 125.0 -73.19999999999999 125.0 L -79.19999999999999 125.0 C -79.255 125.0 -79.30000000000001 124.955 -79.30000000000001 124.9 L -79.30000000000001 122.0 L -85.10000000000002 122.0 L -85.10000000000002 124.9 C -85.10000000000002 124.955 -85.14499999999998 125.0 -85.19999999999999 125.0 L -91.19999999999999 125.0 C -91.255 125.0 -91.30000000000001 124.955 -91.30000000000001 124.9 L -91.30000000000001 122.0 L -97.10000000000002 122.0 L -97.10000000000002 124.9 C -97.10000000000002 124.955 -97.14499999999998 125.0 -97.19999999999999 125.0 L -103.19999999999999 125.0 C -103.255 125.0 -103.30000000000001 124.955 -103.30000000000001 124.9 L -103.30000000000001 122.0 L -109.10000000000002 122.0 L -109.10000000000002 124.9 C -109.10000000000002 124.955 -109.14499999999998 125.0 -109.19999999999999 125.0 L -115.19999999999999 125.0 C -115.255 125.0 -115.30000000000001 124.955 -115.30000000000001 124.9 L -115.30000000000001 122.0 L -121.10000000000002 122.0 L -121.10000000000002 124.9 C -121.10000000000002 124.955 -121.14499999999998 125.0 -121.19999999999999 125.0 L -127.19999999999999 125.0 C -127.255 125.0 -127.30000000000001 124.955 -127.30000000000001 124.9 L -127.30000000000001 122.0 L -135.2 122.0 C -135.255 122.0 -135.3 121.955 -135.3 121.9 L -135.3 113.0 L -138.2 113.0 C -138.255 113.0 -138.3 112.955 -138.3 112.9 L -138.3 106.9 C -138.3 106.845 -138.255 106.8 -138.2 106.8 L -135.3 106.8 L -135.3 101.0 L -138.2 101.0 C -138.255 101.0 -138.3 100.955 -138.3 100.9 L -138.3 94.9 C -138.3 94.845 -138.255 94.8 -138.2 94.8 L -135.3 94.8 L -135.3 89.0 L -138.2 89.0 C -138.255 89.0 -138.3 88.955 -138.3 88.9 L -138.3 82.9 C -138.3 82.845 -138.255 82.8 -138.2 82.8 L -135.3 82.8 L -135.3 77.0 L -138.2 77.0 C -138.255 77.0 -138.3 76.955 -138.3 76.9 L -138.3 70.9 C -138.3 70.845 -138.255 70.8 -138.2 70.8 L -135.3 70.8 L -135.3 65.0 L -138.2 65.0 C -138.255 65.0 -138.3 64.955 -138.3 64.9 L -138.3 58.900000000000006 C -138.3 58.845 -138.255 58.8 -138.2 58.8 L -135.3 58.8 L -135.3 53.0 L -138.2 53.0 C -138.255 53.0 -138.3 52.955 -138.3 52.900000000000006 L -138.3 46.900000000000006 C -138.3 46.845 -138.255 46.8 -138.2 46.8 L -135.3 46.8 L -135.3 41.0 L -138.2 41.0 C -138.255 41.0 -138.3 40.955 -138.3 40.900000000000006 L -138.3 34.900000000000006 C -138.3 34.845 -138.255 34.8 -138.2 34.8 L -135.3 34.8 L -135.3 29.0 L -138.2 29.0 C -138.255 29.0 -138.3 28.955 -138.3 28.900000000000006 L -138.3 22.900000000000006 C -138.3 22.845 -138.255 22.799999999999997 -138.2 22.799999999999997 L -135.3 22.799999999999997 L -135.3 17.0 L -138.2 17.0 C -138.255 17.0 -138.3 16.955 -138.3 16.900000000000006 L -138.3 10.900000000000006 C -138.3 10.844999999999999 -138.255 10.799999999999997 -138.2 10.799999999999997 L -135.3 10.799999999999997 L -135.3 5.0 L -138.2 5.0 C -138.255 5.0 -138.3 4.9550000000000125 -138.3 4.900000000000006 L -138.3 -1.0999999999999943 C -138.3 -1.1550000000000011 -138.255 -1.1999999999999886 -138.2 -1.1999999999999886 L -135.3 -1.1999999999999886 L -135.3 -7.0 L -138.2 -7.0 C -138.255 -7.0 -138.3 -7.0449999999999875 -138.3 -7.099999999999994 L -138.3 -13.099999999999994 C -138.3 -13.155000000000001 -138.255 -13.199999999999989 -138.2 -13.199999999999989 L -135.3 -13.199999999999989 L -135.3 -19.0 L -138.2 -19.0 C -138.255 -19.0 -138.3 -19.044999999999987 -138.3 -19.099999999999994 L -138.3 -25.099999999999994 C -138.3 -25.155 -138.255 -25.19999999999999 -138.2 -25.19999999999999 L -135.3 -25.19999999999999 L -135.3 -31.0 L -138.2 -31.0 C -138.255 -31.0 -138.3 -31.044999999999987 -138.3 -31.099999999999994 L -138.3 -37.099999999999994 C -138.3 -37.155 -138.255 -37.19999999999999 -138.2 -37.19999999999999 L -135.3 -37.19999999999999 L -135.3 -43.0 L -138.2 -43.0 C -138.255 -43.0 -138.3 -43.04499999999999 -138.3 -43.099999999999994 L -138.3 -49.099999999999994 C -138.3 -49.155 -138.255 -49.19999999999999 -138.2 -49.19999999999999 L -135.3 -49.19999999999999 L -135.3 -55.0 L -138.2 -55.0 C -138.255 -55.0 -138.3 -55.04499999999999 -138.3 -55.099999999999994 L -138.3 -61.099999999999994 C -138.3 -61.155 -138.255 -61.19999999999999 -138.2 -61.19999999999999 L -135.3 -61.19999999999999 L -135.3 -67.0 L -138.2 -67.0 C -138.255 -67.0 -138.3 -67.04499999999999 -138.3 -67.1 L -138.3 -73.1 C -138.3 -73.155 -138.255 -73.19999999999999 -138.2 -73.19999999999999 L -135.3 -73.19999999999999 L -135.3 -79.0 L -138.2 -79.0 C -138.255 -79.0 -138.3 -79.04499999999999 -138.3 -79.1 L -138.3 -85.1 C -138.3 -85.155 -138.255 -85.19999999999999 -138.2 -85.19999999999999 L -135.3 -85.19999999999999 L -135.3 -91.0 L -138.2 -91.0 C -138.255 -91.0 -138.3 -91.04499999999999 -138.3 -91.1 L -138.3 -97.1 C -138.3 -97.155 -138.255 -97.19999999999999 -138.2 -97.19999999999999 L -135.3 -97.19999999999999 L -135.3 -103.0 L -138.2 -103.0 C -138.255 -103.0 -138.3 -103.04499999999999 -138.3 -103.1 L -138.3 -109.1 C -138.3 -109.155 -138.255 -109.19999999999999 -138.2 -109.19999999999999 L -135.3 -109.19999999999999 L -135.3 -118.1 C -135.3 -118.155 -135.255 -118.19999999999999 -135.2 -118.19999999999999 " stroke="#000000" stroke-width="0.35 px" style="stroke-width:0.35;stroke-miterlimit:4;stroke-dasharray:none;fill:none;fill-opacity:1;fill-rule: evenodd"/>
<title>b'Sketch002'</title>
</g>
</svg>